<svg width="377" height="369" viewBox="0 0 377 369" fill="none" xmlns="http://www.w3.org/2000/svg">
<path d="M287.355 0.210441L282.425 0.790443C281.712 0.87711 281.682 1.07043 282.335 1.37043C283.035 1.69043 283.365 2.23044 283.325 2.99044C283.298 3.39711 283.438 3.73377 283.745 4.00043C285.938 5.93377 288.005 8.16044 289.945 10.6804C290.732 11.7071 291.352 13.0338 291.805 14.6604C292.198 16.0538 292.919 17.3938 293.965 18.6804C294.185 18.9604 294.275 19.2738 294.235 19.6204L293.945 22.2804C293.898 22.6604 294.005 22.9938 294.265 23.2804C294.712 23.7804 295.312 24.0804 296.065 24.1804C296.118 24.1871 296.125 24.2104 296.085 24.2504L295.905 24.4404C295.819 24.5204 295.795 24.6171 295.835 24.7304C296.822 27.4638 298.115 29.9504 299.715 32.1904C299.982 32.5638 300.115 32.9771 300.115 33.4304C300.122 33.9504 300.272 34.4071 300.565 34.8004C300.598 34.8404 300.635 34.8671 300.675 34.8804C300.822 34.9271 300.912 34.9038 300.945 34.8104C301.059 34.4904 301.212 34.4671 301.405 34.7404C302.519 36.3604 303.659 38.2204 304.825 40.3204C306.578 43.4871 307.948 46.2671 308.935 48.6604C309.042 48.9204 309.175 49.1638 309.335 49.3904C309.509 49.6171 309.652 49.8571 309.765 50.1105C313.052 57.4771 316.365 64.7238 319.705 71.8504C320.078 72.6438 320.349 73.4805 320.515 74.3605C320.682 75.2538 320.945 76.1038 321.305 76.9104C321.845 78.1171 322.195 79.3338 322.355 80.5604C322.509 81.6538 322.685 82.7504 322.885 83.8504C323.078 84.8971 323.145 85.9771 323.085 87.0904C323.018 88.3171 322.919 89.5071 322.785 90.6604C322.745 91.0071 322.809 91.3304 322.975 91.6304C323.269 92.1771 323.472 92.7471 323.585 93.3404C323.958 95.2404 324.419 97.1371 324.965 99.0304C325.479 100.79 325.865 102.617 326.125 104.51C326.352 106.137 326.558 107.7 326.745 109.2C326.945 110.827 326.882 112.41 326.555 113.95C326.295 115.157 326.232 116.53 326.365 118.07C326.485 119.424 326.312 121.097 325.845 123.09C325.565 124.34 325.975 125.02 326.055 126.19C326.075 126.517 325.995 126.82 325.815 127.1C324.365 129.32 325.775 131.61 323.295 133.33C322.949 133.57 322.745 133.897 322.685 134.31C322.618 134.784 322.422 135.17 322.095 135.47C321.789 135.757 321.795 136.034 322.115 136.3C322.262 136.427 322.425 136.54 322.605 136.64C323.085 136.894 323.052 137.037 322.505 137.07C322.212 137.084 321.925 137.047 321.645 136.96C320.639 136.66 319.618 136.5 318.585 136.48C318.432 136.48 318.312 136.42 318.225 136.3C317.692 135.587 317.035 134.984 316.255 134.49C316.002 134.324 315.722 134.267 315.415 134.32C314.489 134.494 313.832 134.12 313.445 133.2C313.305 132.86 313.055 132.657 312.695 132.59C311.582 132.37 310.855 132.177 310.515 132.01C308.089 130.844 305.712 129.684 303.385 128.53C303.092 128.384 302.782 128.32 302.455 128.34C301.548 128.407 300.975 128.057 300.735 127.29C300.622 126.944 300.395 126.7 300.055 126.56L291.835 123.26C291.662 123.187 291.492 123.187 291.325 123.26C291.212 123.307 291.089 123.334 290.955 123.34C290.515 123.374 290.265 123.17 290.205 122.73C290.145 122.31 289.905 122.157 289.485 122.27C289.299 122.319 289.102 122.315 288.917 122.258C288.731 122.202 288.565 122.095 288.435 121.95C288.002 121.464 287.465 121.214 286.825 121.2C286.552 121.194 286.358 121.067 286.245 120.82C285.865 119.987 285.302 119.38 284.555 119C281.215 117.307 277.865 115.644 274.505 114.01C274.265 113.897 273.658 113.517 272.685 112.87C271.958 112.397 271.182 112.11 270.355 112.01C269.042 111.864 267.755 111.61 266.495 111.25C266.095 111.13 265.705 111.16 265.325 111.34C265.012 111.487 264.772 111.417 264.605 111.13C264.445 110.85 264.205 110.707 263.885 110.7C262.025 110.687 260.245 110.39 258.545 109.81C258.239 109.71 258.042 109.507 257.955 109.2C257.525 107.71 256.715 105.58 257.775 104.17C257.975 103.91 258.105 103.62 258.165 103.3C258.372 102.16 258.695 101.014 259.135 99.8605C259.622 98.5871 259.908 97.4305 259.995 96.3904C260.202 93.9705 260.475 91.4638 260.815 88.8704C260.855 88.5438 260.779 88.2471 260.585 87.9804C260.359 87.6738 260.242 87.3338 260.235 86.9604C260.235 86.6138 260.212 86.2738 260.165 85.9404C259.759 83.0471 259.125 80.1838 258.265 77.3504C258.159 77.0038 257.969 76.7138 257.695 76.4804C256.295 75.2871 255.022 73.9904 253.875 72.5904C253.368 71.9771 252.785 71.4504 252.125 71.0104C251.472 70.5771 250.835 70.1304 250.215 69.6704C248.365 68.2905 246.425 67.8304 244.365 67.0104C243.398 66.6238 242.392 66.3371 241.345 66.1504C239.679 65.8504 238.142 65.4071 236.735 64.8204C236.109 64.5604 235.515 64.4038 234.955 64.3504C233.295 64.1804 231.775 64.1404 230.245 63.4804C228.645 62.7804 227.055 62.0338 225.475 61.2404C225.202 61.1004 224.972 60.9104 224.785 60.6704C224.345 60.0771 223.732 59.5738 222.945 59.1604C220.418 57.8404 217.952 56.6604 215.545 55.6204C214.359 55.1071 213.092 54.7605 211.745 54.5805C210.332 54.3871 208.949 54.1338 207.595 53.8204C205.662 53.3738 203.662 53.1104 201.595 53.0304C198.269 52.9038 194.982 52.8338 191.735 52.8204C190.322 52.8138 189.002 53.0271 187.775 53.4604C186.415 53.9404 185.022 54.3038 183.595 54.5504C181.502 54.9038 179.222 55.9371 176.755 57.6504C176.035 58.1504 175.265 58.5538 174.445 58.8605C173.692 59.1338 172.945 59.4038 172.205 59.6704C171.265 60.0038 170.522 60.5304 169.975 61.2504C168.395 63.3238 166.485 65.1504 164.245 66.7304C163.652 67.1504 163.175 67.7404 162.815 68.5004C162.195 69.8138 161.645 71.1971 161.165 72.6504C160.932 73.3504 160.485 73.8471 159.825 74.1404C159.458 74.3071 159.178 74.5671 158.985 74.9204C157.712 77.2538 156.432 79.6104 155.145 81.9904C155.059 82.1438 154.928 82.2404 154.755 82.2804C154.442 82.3471 154.195 82.5104 154.015 82.7704C153.195 83.9304 152.559 85.1504 152.105 86.4304C151.565 87.9304 150.525 88.8104 149.905 90.2604C149.639 90.8871 149.268 91.4338 148.795 91.9004C148.302 92.3804 147.835 92.8971 147.395 93.4504C147.315 93.5504 147.225 93.6204 147.125 93.6604C146.985 93.7138 146.849 93.7538 146.715 93.7804C146.402 93.8471 146.135 94.0038 145.915 94.2504C144.568 95.7704 143.615 97.5038 143.055 99.4504C142.675 100.75 141.965 102.05 141.755 103.46C141.702 103.794 141.552 104.074 141.305 104.3C139.159 106.307 136.655 107.71 133.795 108.51C133.702 108.53 133.642 108.587 133.615 108.68C133.569 108.84 133.589 108.92 133.675 108.92C134.209 108.92 134.295 109.114 133.935 109.5C133.555 109.907 133.265 110.344 133.065 110.81C132.939 111.097 132.719 111.23 132.405 111.21C131.912 111.17 131.652 111.394 131.625 111.88C131.605 112.247 131.415 112.454 131.055 112.5C130.635 112.56 130.232 112.574 129.845 112.54C129.772 112.534 129.742 112.56 129.755 112.62C129.762 112.667 129.785 112.697 129.825 112.71C129.859 112.73 129.908 112.727 129.975 112.7C130.628 112.44 131.199 112.49 131.685 112.85C129.239 113.237 125.482 113.54 120.415 113.76C114.489 114.014 110.812 116.867 109.385 122.32C108.875 124.28 109.005 126.65 109.045 128.77C109.125 133.54 111.455 137.41 115.035 140.41C115.209 140.977 114.822 141.434 113.875 141.78C111.242 140.067 108.559 138.404 105.825 136.79C104.412 135.957 102.829 135.404 101.075 135.13C99.9152 134.944 99.0918 134.47 98.6052 133.71C94.0152 126.56 87.7652 120.05 78.6352 123.89C69.4152 127.764 52.5585 136.014 28.0652 148.64C28.7452 147.734 29.6719 147.067 30.8452 146.64C31.1319 146.54 31.3218 146.41 31.4152 146.25C31.5618 146.024 31.6052 145.764 31.5452 145.47C31.5252 145.364 31.5685 145.314 31.6752 145.32C31.7818 145.32 31.8885 145.317 31.9952 145.31C32.2485 145.304 32.4518 145.197 32.6052 144.99L34.5252 142.37C34.5776 142.299 34.6124 142.216 34.6264 142.128C34.6405 142.041 34.6335 141.952 34.606 141.868C34.5785 141.785 34.5313 141.709 34.4685 141.649C34.4056 141.588 34.329 141.544 34.2452 141.52C34.0052 141.447 33.9552 141.354 34.0952 141.24C34.5885 140.847 34.5218 140.68 33.8952 140.74C33.7152 140.76 33.5352 140.774 33.3552 140.78C33.0418 140.807 32.7885 140.944 32.5952 141.19C32.0285 141.91 31.2352 142.334 30.2152 142.46C29.9419 142.494 29.7752 142.647 29.7152 142.92C29.6752 143.12 29.5785 143.287 29.4252 143.42C27.4852 145.134 25.5552 146.624 23.6352 147.89C23.0952 148.244 22.6319 148.684 22.2452 149.21C21.7919 149.824 21.3918 150.447 21.0452 151.08C20.6052 151.874 20.0518 152.6 19.3852 153.26C18.5785 154.047 18.0652 154.997 17.8452 156.11C17.3385 158.71 16.7019 161.45 15.9352 164.33C15.5852 165.62 15.7452 166.59 15.9352 167.86C16.0752 168.86 16.1185 169.747 16.0652 170.52C15.7919 174.594 15.9152 178.077 16.4352 180.97C16.5952 181.864 16.6885 182.704 16.7152 183.49C16.7952 185.41 17.4452 187.34 17.8852 189.24C18.0918 190.12 18.1552 191.08 18.0752 192.12C17.9552 193.82 17.8518 195.58 17.7652 197.4C17.6452 199.72 16.0852 201.52 16.1152 203.85C16.1352 205.37 15.7852 206.827 15.0652 208.22C14.5052 209.307 14.2052 210.474 14.1652 211.72C14.0785 214.567 14.0319 217.317 14.0252 219.97C14.0252 220.29 13.9785 220.61 13.8852 220.93C13.7785 221.277 13.8285 221.63 14.0352 221.99C14.2019 222.277 14.2752 222.587 14.2552 222.92C14.1018 225.9 14.6452 228.664 15.8852 231.21C16.6118 232.69 17.2718 234.214 17.8652 235.78C18.5852 237.66 19.9052 239.817 21.8252 242.25C23.4652 244.317 25.2152 245.99 27.0752 247.27C29.8552 249.18 32.4652 251.24 34.8052 253.64C36.5985 255.487 38.4818 257.137 40.4552 258.59C40.5885 258.69 40.7218 258.694 40.8552 258.6C40.9418 258.54 41.0252 258.544 41.1052 258.61C45.4052 262.35 49.4052 266.16 53.1052 270.04C54.6052 271.607 56.0852 272.934 57.5452 274.02C59.2185 275.26 60.9818 276.414 62.8352 277.48C65.5352 279.04 68.0085 280.684 70.2552 282.41C71.4685 283.35 72.8052 284.094 74.2652 284.64C76.0918 285.32 77.7952 286.197 79.3752 287.27C80.9685 288.35 82.7685 289.13 84.7752 289.61C85.4219 289.757 85.9418 290.084 86.3352 290.59C86.5362 290.843 86.8147 291.019 87.1252 291.09C89.6252 291.61 91.6352 293.02 93.9052 294.07C94.9185 294.544 95.8685 295.107 96.7552 295.76C98.7152 297.2 100.792 298.517 102.985 299.71C104.799 300.69 106.512 301.847 108.125 303.18C110.472 305.107 113.495 306.844 117.195 308.39C118.635 308.997 120.069 309.66 121.495 310.38C123.225 311.25 125.335 312.53 127.165 313.01C127.645 313.13 128.082 313.317 128.475 313.57C128.902 313.844 128.872 313.91 128.385 313.77C128.178 313.717 127.985 313.744 127.805 313.85C127.425 314.077 127.445 314.26 127.865 314.4L137.545 317.69C137.625 317.717 137.652 317.767 137.625 317.84L137.515 318.15C137.462 318.297 137.362 318.347 137.215 318.3L130.835 316.2C130.375 316.047 130.279 316.174 130.545 316.58C130.678 316.787 130.868 316.93 131.115 317.01C131.302 317.077 131.298 317.12 131.105 317.14C130.972 317.154 130.855 317.12 130.755 317.04C130.675 316.967 130.589 316.907 130.495 316.86C128.702 315.934 126.652 315.264 124.345 314.85C123.959 314.777 123.755 314.94 123.735 315.34C123.702 315.927 123.522 316.484 123.195 317.01C123.115 317.139 123.005 317.245 122.873 317.318C122.742 317.392 122.595 317.43 122.445 317.43C120.999 317.417 119.562 317.51 118.135 317.71C116.962 317.87 115.909 318.31 114.975 319.03C114.755 319.204 114.529 319.207 114.295 319.04L113.965 318.8C113.712 318.614 113.425 318.53 113.105 318.55C111.125 318.67 109.149 318.794 107.175 318.92C106.589 318.96 106.172 318.744 105.925 318.27C105.739 317.917 105.449 317.77 105.055 317.83L103.285 318.09C102.925 318.144 102.589 318.084 102.275 317.91C99.9018 316.644 97.6818 315.187 95.6152 313.54C95.0152 313.067 94.3319 312.747 93.5652 312.58C92.9585 312.454 92.3585 312.35 91.7652 312.27C91.3518 312.217 91.0119 312.034 90.7452 311.72C90.0585 310.94 89.1252 310.554 87.9452 310.56C87.6118 310.56 87.3118 310.46 87.0452 310.26C86.6252 309.954 86.1585 309.887 85.6452 310.06C84.7185 310.38 83.8852 310.327 83.1452 309.9C82.8652 309.74 82.5685 309.697 82.2552 309.77L80.9052 310.07C80.6805 310.122 80.4446 310.086 80.2452 309.97C79.0385 309.284 77.6685 309.074 76.1352 309.34C75.8047 309.392 75.4699 309.332 75.1852 309.17C73.4652 308.19 71.7018 307.62 69.8952 307.46C69.5752 307.434 69.3352 307.28 69.1752 307C68.9618 306.62 68.6252 306.457 68.1652 306.51C68.033 306.526 67.8986 306.512 67.7709 306.471C67.6433 306.43 67.5254 306.361 67.4252 306.27C66.3785 305.337 65.2885 304.387 64.1552 303.42C63.3285 302.714 62.3485 302.197 61.2152 301.87C59.8485 301.477 58.5518 300.98 57.3252 300.38C56.1652 299.81 54.8952 300.2 53.8352 299.59C52.4218 298.777 50.9918 298.074 49.5452 297.48C48.1118 296.894 46.8452 296.21 45.7452 295.43C44.3652 294.444 42.8652 293.834 41.2452 293.6C40.9719 293.567 40.7452 293.444 40.5652 293.23C40.3852 293.017 40.2485 292.77 40.1552 292.49C40.0992 292.317 40.0019 292.16 39.8715 292.031C39.741 291.902 39.5811 291.806 39.4052 291.75C36.3185 290.744 33.3752 289.36 30.5752 287.6C30.2018 287.367 29.7952 287.264 29.3552 287.29C28.7085 287.337 28.1819 287.1 27.7752 286.58C27.6218 286.382 27.4156 286.229 27.1793 286.139C26.943 286.049 26.6856 286.025 26.4352 286.07C25.0352 286.31 23.7119 286.007 22.4652 285.16C21.3852 284.42 20.3685 283.494 19.4152 282.38C19.214 282.154 18.9425 282.002 18.6452 281.95C17.7985 281.81 17.1985 281.35 16.8452 280.57C16.7319 280.33 16.5718 280.13 16.3652 279.97C15.7185 279.444 15.0285 279.03 14.2952 278.73C13.7618 278.504 13.3118 278.137 12.9452 277.63C12.4318 276.91 12.1585 276.187 12.1252 275.46C12.1052 275.134 11.9752 274.854 11.7352 274.62C11.1552 274.06 10.7718 273.38 10.5852 272.58C10.5118 272.247 10.3452 271.974 10.0852 271.76L7.12519 269.3C6.84519 269.06 6.69518 268.757 6.67518 268.39C6.56184 266.044 5.39518 264.604 3.17518 264.07C2.84184 263.99 2.59519 263.794 2.43519 263.48L1.45518 261.58C1.34184 261.367 1.27851 261.38 1.26517 261.62L1.24519 261.95C1.23185 262.25 1.13518 262.284 0.955177 262.05C0.541844 261.53 0.37852 260.914 0.465187 260.2C0.665187 258.414 0.551857 256.727 0.12519 255.14C-0.048143 199.834 -0.0414873 144.517 0.145179 89.1904C0.171846 80.3304 0.548518 73.7271 1.27518 69.3804C4.14852 52.1804 11.7252 37.3671 24.0052 24.9404C39.7318 9.04044 59.0252 0.797108 81.8852 0.210441C87.7252 0.0637748 93.5618 -0.00623192 99.3952 0.000434746C162.049 0.0471014 224.702 0.117108 287.355 0.210441Z" fill="#6B49FF"/>
<path d="M287.355 0.210397C295.308 0.190397 300.988 0.427055 304.395 0.920389C340.815 6.17039 369.405 33.7904 375.165 70.0004C375.858 74.3737 376.202 81.0171 376.195 89.9304C376.148 132.337 376.132 174.747 376.145 217.16C376.172 237.834 376.162 258.514 376.115 279.2C376.102 287.574 375.702 294.27 374.915 299.29C373.495 308.37 370.495 316.99 365.915 325.15C356.155 342.557 342.052 354.984 323.605 362.43C314.932 365.937 305.945 367.827 296.645 368.1C293.605 368.194 287.342 368.224 277.855 368.19C214.948 368.137 152.042 368.14 89.1351 368.2C80.3817 368.214 73.7684 367.827 69.2951 367.04C34.8451 361.03 7.58508 334.56 1.41508 300.11C0.595076 295.517 0.165098 288.874 0.125098 280.18C0.0917643 271.84 0.0917643 263.494 0.125098 255.14C0.551764 256.727 0.665094 258.414 0.465094 260.2C0.378427 260.914 0.541751 261.53 0.955084 262.05C1.13508 262.284 1.23176 262.25 1.24509 261.95L1.26508 261.62C1.27842 261.38 1.34175 261.367 1.45508 261.58L2.4351 263.48C2.5951 263.794 2.84175 263.99 3.17509 264.07C5.39509 264.604 6.56175 266.044 6.67509 268.39C6.69509 268.757 6.8451 269.06 7.1251 269.3L10.0851 271.76C10.3451 271.974 10.5118 272.247 10.5851 272.58C10.7718 273.38 11.1551 274.06 11.7351 274.62C11.9751 274.854 12.1051 275.134 12.1251 275.46C12.1584 276.187 12.4317 276.91 12.9451 277.63C13.3117 278.137 13.7617 278.504 14.2951 278.73C15.0284 279.03 15.7184 279.444 16.3651 279.97C16.5718 280.13 16.7318 280.33 16.8451 280.57C17.1984 281.35 17.7984 281.81 18.6451 281.95C18.9424 282.002 19.2139 282.154 19.4151 282.38C20.3684 283.494 21.3851 284.42 22.4651 285.16C23.7118 286.007 25.0351 286.31 26.4351 286.07C26.6855 286.025 26.9429 286.049 27.1792 286.139C27.4155 286.229 27.6217 286.382 27.7751 286.58C28.1818 287.1 28.7084 287.337 29.3551 287.29C29.7951 287.264 30.2017 287.367 30.5751 287.6C33.3751 289.36 36.3184 290.744 39.4051 291.75C39.5811 291.806 39.7409 291.902 39.8714 292.031C40.0018 292.16 40.0991 292.317 40.1551 292.49C40.2484 292.77 40.3851 293.017 40.5651 293.23C40.7451 293.444 40.9718 293.567 41.2451 293.6C42.8651 293.834 44.3651 294.444 45.7451 295.43C46.8451 296.21 48.1117 296.894 49.5451 297.48C50.9917 298.074 52.4218 298.777 53.8351 299.59C54.8951 300.2 56.1651 299.81 57.3251 300.38C58.5517 300.98 59.8484 301.477 61.2151 301.87C62.3484 302.197 63.3284 302.714 64.1551 303.42C65.2884 304.387 66.3784 305.337 67.4251 306.27C67.5253 306.361 67.6432 306.43 67.7708 306.471C67.8985 306.512 68.0329 306.526 68.1651 306.51C68.6251 306.457 68.9618 306.62 69.1751 307C69.3351 307.28 69.5751 307.434 69.8951 307.46C71.7018 307.62 73.4651 308.19 75.1851 309.17C75.4698 309.332 75.8046 309.392 76.1351 309.34C77.6684 309.074 79.0384 309.284 80.2451 309.97C80.4445 310.086 80.6804 310.122 80.9051 310.07L82.2551 309.77C82.5684 309.697 82.8651 309.74 83.1451 309.9C83.8851 310.327 84.7184 310.38 85.6451 310.06C86.1584 309.887 86.6251 309.954 87.0451 310.26C87.3118 310.46 87.6117 310.56 87.9451 310.56C89.1251 310.554 90.0584 310.94 90.7451 311.72C91.0118 312.034 91.3518 312.217 91.7651 312.27C92.3584 312.35 92.9584 312.454 93.5651 312.58C94.3318 312.747 95.0151 313.067 95.6151 313.54C97.6818 315.187 99.9018 316.644 102.275 317.91C102.588 318.084 102.925 318.144 103.285 318.09L105.055 317.83C105.448 317.77 105.738 317.917 105.925 318.27C106.172 318.744 106.588 318.96 107.175 318.92C109.148 318.794 111.125 318.67 113.105 318.55C113.425 318.53 113.712 318.614 113.965 318.8L114.295 319.04C114.528 319.207 114.755 319.204 114.975 319.03C115.908 318.31 116.962 317.87 118.135 317.71C119.562 317.51 120.998 317.417 122.445 317.43C122.595 317.43 122.742 317.392 122.873 317.318C123.005 317.245 123.115 317.139 123.195 317.01C123.522 316.484 123.702 315.927 123.735 315.34C123.755 314.94 123.958 314.777 124.345 314.85C126.652 315.264 128.702 315.934 130.495 316.86C130.588 316.907 130.675 316.967 130.755 317.04C130.855 317.12 130.972 317.154 131.105 317.14C131.298 317.12 131.302 317.077 131.115 317.01C130.868 316.93 130.678 316.787 130.545 316.58C130.278 316.174 130.375 316.047 130.835 316.2L137.215 318.3C137.362 318.347 137.462 318.297 137.515 318.15L137.625 317.84C137.652 317.767 137.625 317.717 137.545 317.69L127.865 314.4C127.445 314.26 127.425 314.077 127.805 313.85C127.985 313.744 128.178 313.717 128.385 313.77C128.872 313.91 128.902 313.844 128.475 313.57C128.082 313.317 127.645 313.13 127.165 313.01C125.335 312.53 123.225 311.25 121.495 310.38C120.068 309.66 118.635 308.997 117.195 308.39C113.495 306.844 110.472 305.107 108.125 303.18C106.512 301.847 104.798 300.69 102.985 299.71C100.792 298.517 98.7151 297.2 96.7551 295.76C95.8684 295.107 94.9184 294.544 93.9051 294.07C91.6351 293.02 89.6251 291.61 87.1251 291.09C86.8146 291.019 86.5361 290.843 86.3351 290.59C85.9418 290.084 85.4218 289.757 84.7751 289.61C82.7684 289.13 80.9684 288.35 79.3751 287.27C77.7951 286.197 76.0918 285.32 74.2651 284.64C72.8051 284.094 71.4684 283.35 70.2551 282.41C68.0084 280.684 65.5351 279.04 62.8351 277.48C60.9818 276.414 59.2184 275.26 57.5451 274.02C56.0851 272.934 54.6051 271.607 53.1051 270.04C49.4051 266.16 45.4051 262.35 41.1051 258.61C41.0251 258.544 40.9417 258.54 40.8551 258.6C40.7217 258.694 40.5884 258.69 40.4551 258.59C38.4818 257.137 36.5984 255.487 34.8051 253.64C32.4651 251.24 29.8551 249.18 27.0751 247.27C25.2151 245.99 23.4651 244.317 21.8251 242.25C19.9051 239.817 18.5851 237.66 17.8651 235.78C17.2718 234.214 16.6117 232.69 15.8851 231.21C14.6451 228.664 14.1017 225.9 14.2551 222.92C14.2751 222.587 14.2018 222.277 14.0351 221.99C13.8284 221.63 13.7784 221.277 13.8851 220.93C13.9784 220.61 14.0251 220.29 14.0251 219.97C14.0318 217.317 14.0784 214.567 14.1651 211.72C14.2051 210.474 14.5051 209.307 15.0651 208.22C15.7851 206.827 16.1351 205.37 16.1151 203.85C16.0851 201.52 17.6451 199.72 17.7651 197.4C17.8517 195.58 17.9551 193.82 18.0751 192.12C18.1551 191.08 18.0917 190.12 17.8851 189.24C17.4451 187.34 16.7951 185.41 16.7151 183.49C16.6884 182.704 16.5951 181.864 16.4351 180.97C15.9151 178.077 15.7918 174.594 16.0651 170.52C16.1184 169.747 16.0751 168.86 15.9351 167.86C15.7451 166.59 15.5851 165.62 15.9351 164.33C16.7018 161.45 17.3384 158.71 17.8451 156.11C18.0651 154.997 18.5784 154.047 19.3851 153.26C20.0517 152.6 20.6051 151.874 21.0451 151.08C21.3917 150.447 21.7918 149.824 22.2451 149.21C22.6318 148.684 23.0951 148.244 23.6351 147.89C25.5551 146.624 27.4851 145.134 29.4251 143.42C29.5784 143.287 29.6751 143.12 29.7151 142.92C29.7751 142.647 29.9418 142.494 30.2151 142.46C31.2351 142.334 32.0284 141.91 32.5951 141.19C32.7884 140.944 33.0417 140.807 33.3551 140.78C33.5351 140.774 33.7151 140.76 33.8951 140.74C34.5218 140.68 34.5884 140.847 34.0951 141.24C33.9551 141.354 34.0051 141.447 34.2451 141.52C34.3289 141.544 34.4055 141.588 34.4684 141.649C34.5312 141.709 34.5784 141.785 34.6059 141.868C34.6334 141.952 34.6404 142.041 34.6264 142.128C34.6123 142.216 34.5775 142.299 34.5251 142.37L32.6051 144.99C32.4517 145.197 32.2484 145.304 31.9951 145.31C31.8884 145.317 31.7818 145.32 31.6751 145.32C31.5684 145.314 31.5251 145.364 31.5451 145.47C31.6051 145.764 31.5617 146.024 31.4151 146.25C31.3217 146.41 31.1318 146.54 30.8451 146.64C29.6718 147.067 28.7451 147.734 28.0651 148.64C25.2318 150.734 23.2818 153.34 22.2151 156.46C21.1284 159.627 21.1684 162.694 22.3351 165.66C24.2951 170.66 27.7884 174.087 32.8151 175.94C33.1951 176.08 33.3117 176.34 33.1651 176.72C31.1717 182 31.3118 187.194 33.5851 192.3C33.6117 192.357 33.6255 192.418 33.6255 192.481C33.6255 192.543 33.6117 192.605 33.5851 192.662C33.5585 192.719 33.5196 192.77 33.4713 192.811C33.4229 192.852 33.3663 192.883 33.3051 192.9C24.5551 195.47 19.4851 204.46 23.3751 213.05C24.8751 216.35 27.6384 219.15 31.6651 221.45C32.4317 221.89 32.6018 222.497 32.1751 223.27C31.5451 224.39 31.3051 225.6 31.3951 226.92C31.5651 229.21 31.5251 231.46 31.9851 233.69C33.0651 238.937 36.8084 243.304 43.2151 246.79C61.9684 256.977 80.6684 267.284 99.3151 277.71C124.322 291.69 147.428 304.777 168.635 316.97C173.035 319.504 177.028 321.584 180.615 323.21C183.268 324.41 185.798 324.884 188.205 324.63C191.432 324.284 194.582 323.154 197.655 321.24C200.668 319.367 203.688 317.62 206.715 316C208.215 315.194 209.555 314.34 210.735 313.44C211.568 312.807 212.468 312.287 213.435 311.88C214.422 311.467 215.328 310.987 216.155 310.44C217.162 309.78 218.192 309.15 219.245 308.55C223.012 306.41 226.695 304.307 230.295 302.24L236.325 299.88C236.638 299.754 236.892 299.554 237.085 299.28C237.732 298.36 238.618 297.944 239.745 298.03C240.078 298.057 240.355 297.947 240.575 297.7L242.865 295.1L291.905 267.19C292.992 267.057 294.535 266.484 296.535 265.47C297.688 264.884 298.795 264.267 299.855 263.62C300.828 263.027 301.968 262.47 303.275 261.95C305.648 260.997 307.792 259.73 309.705 258.15C309.876 258.006 310.078 257.9 310.295 257.84C310.775 257.714 311.182 257.464 311.515 257.09C311.742 256.824 312.018 256.627 312.345 256.5C314.185 255.794 315.892 254.867 317.465 253.72C318.012 253.32 319.045 252.69 320.565 251.83C321.665 251.21 322.602 250.387 323.375 249.36C327.208 247.3 330.848 244.874 334.295 242.08C338.695 238.51 340.365 232.11 340.465 226.73C340.485 225.32 339.865 224.07 339.395 222.73C339.268 222.377 339.372 222.107 339.705 221.92C344.015 219.51 348.415 216.56 350.155 211.68C351.115 208.987 351.272 206.46 350.625 204.1C348.992 198.134 345.152 194.477 339.105 193.13C338.974 193.102 338.851 193.044 338.745 192.962C338.638 192.88 338.551 192.776 338.49 192.656C338.429 192.537 338.395 192.405 338.391 192.271C338.386 192.137 338.412 192.004 338.465 191.88C340.672 186.787 340.948 181.644 339.295 176.45C339.186 176.106 339.201 175.734 339.338 175.401C339.475 175.068 339.726 174.795 340.045 174.63C342.785 173.22 345.545 171.33 347.195 168.61C352.465 159.87 348.305 151.46 339.655 147.41C315.382 136.03 291.472 124.757 267.925 113.59C260.605 110.117 253.868 110.627 247.715 115.12C243.945 117.88 242.815 121.8 241.905 126.15C241.821 126.539 241.61 126.887 241.305 127.14C232.165 134.61 226.665 145.83 240.375 153C243.022 154.387 245.678 155.704 248.345 156.95C248.625 157.084 248.625 157.224 248.345 157.37L219.795 172.1C219.268 172.373 218.684 172.517 218.09 172.521C217.495 172.524 216.908 172.387 216.375 172.12L198.785 163.29C197.658 162.73 197.705 162.29 198.925 161.97C201.672 161.257 204.482 160.024 207.355 158.27C211.095 155.99 214.572 153.704 217.785 151.41C220.265 149.637 223.542 145.837 227.615 140.01C229.122 137.864 230.878 134.807 232.885 130.84C236.085 124.51 237.245 118.53 237.825 111.61C238.025 109.19 237.945 106.794 237.585 104.42C237.378 103.047 237.278 101.777 237.285 100.61C237.298 99.2904 237.165 98.0404 236.885 96.8604C236.805 96.5204 236.905 96.2504 237.185 96.0504C240.218 93.8837 243.475 91.8537 246.955 89.9604C248.805 88.9504 251.035 86.7904 251.645 84.9304C253.992 77.737 251.765 72.7704 244.965 70.0304C240.605 68.2771 235.205 66.867 228.765 65.8004C227.418 65.5804 226.265 65.0537 225.305 64.2204C217.175 57.1704 205.835 53.9704 195.555 54.8604C188.782 55.4471 182.598 57.5137 177.005 61.0604C170.318 65.3004 165.135 70.5771 161.455 76.8904C159.302 80.5971 156.668 86.4037 153.555 94.3104C149.715 104.057 142.425 110.237 131.685 112.85C131.198 112.49 130.628 112.44 129.975 112.7C129.908 112.727 129.858 112.73 129.825 112.71C129.785 112.697 129.762 112.667 129.755 112.62C129.742 112.56 129.772 112.534 129.845 112.54C130.232 112.574 130.635 112.56 131.055 112.5C131.415 112.454 131.605 112.247 131.625 111.88C131.652 111.394 131.912 111.17 132.405 111.21C132.718 111.23 132.938 111.097 133.065 110.81C133.265 110.344 133.555 109.907 133.935 109.5C134.295 109.114 134.208 108.92 133.675 108.92C133.588 108.92 133.568 108.84 133.615 108.68C133.642 108.587 133.702 108.53 133.795 108.51C136.655 107.71 139.158 106.307 141.305 104.3C141.552 104.074 141.702 103.794 141.755 103.46C141.965 102.05 142.675 100.75 143.055 99.4504C143.615 97.5037 144.568 95.7704 145.915 94.2504C146.135 94.0037 146.402 93.8471 146.715 93.7804C146.848 93.7537 146.985 93.7137 147.125 93.6604C147.225 93.6204 147.315 93.5504 147.395 93.4504C147.835 92.8971 148.302 92.3804 148.795 91.9004C149.268 91.4337 149.638 90.8871 149.905 90.2604C150.525 88.8104 151.565 87.9304 152.105 86.4304C152.558 85.1504 153.195 83.9304 154.015 82.7704C154.195 82.5104 154.442 82.3471 154.755 82.2804C154.928 82.2404 155.058 82.1437 155.145 81.9904C156.432 79.6104 157.712 77.2537 158.985 74.9204C159.178 74.5671 159.458 74.3071 159.825 74.1404C160.485 73.8471 160.932 73.3504 161.165 72.6504C161.645 71.1971 162.195 69.8137 162.815 68.5004C163.175 67.7404 163.652 67.1504 164.245 66.7304C166.485 65.1504 168.395 63.3237 169.975 61.2504C170.522 60.5304 171.265 60.0037 172.205 59.6704C172.945 59.4037 173.692 59.1337 174.445 58.8604C175.265 58.5537 176.035 58.1504 176.755 57.6504C179.222 55.937 181.502 54.9037 183.595 54.5504C185.022 54.3037 186.415 53.9404 187.775 53.4604C189.002 53.027 190.322 52.8137 191.735 52.8204C194.982 52.8337 198.268 52.9037 201.595 53.0304C203.662 53.1104 205.662 53.3737 207.595 53.8204C208.948 54.1337 210.332 54.3871 211.745 54.5804C213.092 54.7604 214.358 55.1071 215.545 55.6204C217.952 56.6604 220.418 57.8404 222.945 59.1604C223.732 59.5737 224.345 60.0771 224.785 60.6704C224.972 60.9104 225.202 61.1004 225.475 61.2404C227.055 62.0337 228.645 62.7804 230.245 63.4804C231.775 64.1404 233.295 64.1804 234.955 64.3504C235.515 64.4037 236.108 64.5604 236.735 64.8204C238.142 65.4071 239.678 65.8504 241.345 66.1504C242.392 66.3371 243.398 66.6237 244.365 67.0104C246.425 67.8304 248.365 68.2904 250.215 69.6704C250.835 70.1304 251.472 70.5771 252.125 71.0104C252.785 71.4504 253.368 71.9771 253.875 72.5904C255.022 73.9904 256.295 75.2871 257.695 76.4804C257.968 76.7137 258.158 77.0037 258.265 77.3504C259.125 80.1837 259.758 83.0471 260.165 85.9404C260.212 86.2737 260.235 86.6137 260.235 86.9604C260.242 87.3337 260.358 87.6737 260.585 87.9804C260.778 88.2471 260.855 88.5437 260.815 88.8704C260.475 91.4637 260.202 93.9704 259.995 96.3904C259.908 97.4304 259.622 98.5871 259.135 99.8604C258.695 101.014 258.372 102.16 258.165 103.3C258.105 103.62 257.975 103.91 257.775 104.17C256.715 105.58 257.525 107.71 257.955 109.2C258.042 109.507 258.238 109.71 258.545 109.81C260.245 110.39 262.025 110.687 263.885 110.7C264.205 110.707 264.445 110.85 264.605 111.13C264.772 111.417 265.012 111.487 265.325 111.34C265.705 111.16 266.095 111.13 266.495 111.25C267.755 111.61 269.042 111.864 270.355 112.01C271.182 112.11 271.958 112.397 272.685 112.87C273.658 113.517 274.265 113.897 274.505 114.01C277.865 115.644 281.215 117.307 284.555 119C285.302 119.38 285.865 119.987 286.245 120.82C286.358 121.067 286.552 121.194 286.825 121.2C287.465 121.214 288.002 121.464 288.435 121.95C288.565 122.095 288.731 122.202 288.917 122.258C289.102 122.315 289.298 122.319 289.485 122.27C289.905 122.157 290.145 122.31 290.205 122.73C290.265 123.17 290.515 123.374 290.955 123.34C291.088 123.334 291.212 123.307 291.325 123.26C291.492 123.187 291.662 123.187 291.835 123.26L300.055 126.56C300.395 126.7 300.622 126.944 300.735 127.29C300.975 128.057 301.548 128.407 302.455 128.34C302.782 128.32 303.092 128.384 303.385 128.53C305.712 129.684 308.088 130.844 310.515 132.01C310.855 132.177 311.582 132.37 312.695 132.59C313.055 132.657 313.305 132.86 313.445 133.2C313.832 134.12 314.488 134.494 315.415 134.32C315.722 134.267 316.002 134.324 316.255 134.49C317.035 134.984 317.692 135.587 318.225 136.3C318.312 136.42 318.432 136.48 318.585 136.48C319.618 136.5 320.638 136.66 321.645 136.96C321.925 137.047 322.212 137.084 322.505 137.07C323.052 137.037 323.085 136.894 322.605 136.64C322.425 136.54 322.262 136.427 322.115 136.3C321.795 136.034 321.788 135.757 322.095 135.47C322.422 135.17 322.618 134.784 322.685 134.31C322.745 133.897 322.948 133.57 323.295 133.33C325.775 131.61 324.365 129.32 325.815 127.1C325.995 126.82 326.075 126.517 326.055 126.19C325.975 125.02 325.565 124.34 325.845 123.09C326.312 121.097 326.485 119.424 326.365 118.07C326.232 116.53 326.295 115.157 326.555 113.95C326.882 112.41 326.945 110.827 326.745 109.2C326.558 107.7 326.352 106.137 326.125 104.51C325.865 102.617 325.478 100.79 324.965 99.0304C324.418 97.1371 323.958 95.2404 323.585 93.3404C323.472 92.7471 323.268 92.1771 322.975 91.6304C322.808 91.3304 322.745 91.0071 322.785 90.6604C322.918 89.5071 323.018 88.3171 323.085 87.0904C323.145 85.9771 323.078 84.8971 322.885 83.8504C322.685 82.7504 322.508 81.6537 322.355 80.5604C322.195 79.3337 321.845 78.1171 321.305 76.9104C320.945 76.1037 320.682 75.2537 320.515 74.3604C320.348 73.4804 320.078 72.6437 319.705 71.8504C316.365 64.7237 313.052 57.4771 309.765 50.1104C309.652 49.8571 309.508 49.6171 309.335 49.3904C309.175 49.1637 309.042 48.9204 308.935 48.6604C307.948 46.2671 306.578 43.4871 304.825 40.3204C303.658 38.2204 302.518 36.3604 301.405 34.7404C301.212 34.467 301.058 34.4904 300.945 34.8104C300.912 34.9037 300.822 34.9271 300.675 34.8804C300.635 34.8671 300.598 34.8404 300.565 34.8004C300.272 34.407 300.122 33.9504 300.115 33.4304C300.115 32.977 299.982 32.5637 299.715 32.1904C298.115 29.9504 296.822 27.4637 295.835 24.7304C295.795 24.6171 295.818 24.5204 295.905 24.4404L296.085 24.2504C296.125 24.2104 296.118 24.187 296.065 24.1804C295.312 24.0804 294.712 23.7804 294.265 23.2804C294.005 22.9937 293.898 22.6604 293.945 22.2804L294.235 19.6204C294.275 19.2737 294.185 18.9604 293.965 18.6804C292.918 17.3937 292.198 16.0537 291.805 14.6604C291.352 13.0337 290.732 11.7071 289.945 10.6804C288.005 8.1604 285.938 5.93372 283.745 4.00039C283.438 3.73372 283.298 3.39706 283.325 2.9904C283.365 2.2304 283.035 1.69039 282.335 1.37039C281.682 1.07039 281.712 0.877066 282.425 0.790399L287.355 0.210397Z" fill="#5E40F1"/>
<path d="M323.375 249.36L291.905 267.19L242.865 295.1L230.295 302.24C226.695 304.307 223.012 306.41 219.245 308.55C218.192 309.15 217.162 309.78 216.155 310.44C215.329 310.987 214.422 311.467 213.435 311.88C212.469 312.287 211.569 312.807 210.735 313.44C209.555 314.34 208.215 315.194 206.715 316C203.689 317.62 200.669 319.367 197.655 321.24C194.582 323.154 191.432 324.284 188.205 324.63C185.799 324.884 183.269 324.41 180.615 323.21C177.029 321.584 173.035 319.504 168.635 316.97C147.429 304.777 124.322 291.69 99.3153 277.71C80.6686 267.284 61.9686 256.977 43.2153 246.79C36.8086 243.304 33.0653 238.937 31.9853 233.69C31.5253 231.46 31.5653 229.21 31.3953 226.92C31.3053 225.6 31.5453 224.39 32.1753 223.27C32.6019 222.497 32.4319 221.89 31.6652 221.45C27.6386 219.15 24.8753 216.35 23.3753 213.05C19.4853 204.46 24.5553 195.47 33.3053 192.9C33.3664 192.883 33.4231 192.852 33.4715 192.811C33.5198 192.77 33.5586 192.719 33.5853 192.662C33.6119 192.605 33.6257 192.543 33.6257 192.481C33.6257 192.418 33.6119 192.357 33.5853 192.3C31.3119 187.194 31.1719 182 33.1652 176.72C33.3119 176.34 33.1953 176.08 32.8153 175.94C27.7886 174.087 24.2953 170.66 22.3353 165.66C21.1686 162.694 21.1286 159.627 22.2153 156.46C23.2819 153.34 25.2319 150.734 28.0653 148.64C52.5586 136.014 69.4152 127.764 78.6353 123.89C87.7653 120.05 94.0152 126.56 98.6052 133.71C99.0919 134.47 99.9152 134.944 101.075 135.13C102.829 135.404 104.412 135.957 105.825 136.79C108.559 138.404 111.242 140.067 113.875 141.78C118.569 144.8 120.305 149.134 119.085 154.78C119.019 155.1 119.132 155.337 119.425 155.49L152.675 172.46C153.105 172.68 153.581 172.794 154.062 172.794C154.544 172.794 155.018 172.68 155.445 172.46L167.325 166.39C168.805 165.637 168.719 165.174 167.065 165C161.805 164.44 156.475 163.387 151.075 161.84C147.582 160.84 144.032 159.384 140.425 157.47C136.965 155.637 133.489 154.004 129.995 152.57C123.525 149.92 119.595 144.69 115.035 140.41C111.455 137.41 109.125 133.54 109.045 128.77C109.005 126.65 108.875 124.28 109.385 122.32C110.812 116.867 114.489 114.014 120.415 113.76C125.482 113.54 129.239 113.237 131.685 112.85C142.425 110.237 149.715 104.057 153.555 94.3104C156.669 86.4037 159.302 80.5971 161.455 76.8904C165.135 70.5771 170.319 65.3004 177.005 61.0604C182.599 57.5137 188.782 55.4471 195.555 54.8604C205.835 53.9704 217.175 57.1704 225.305 64.2204C226.265 65.0537 227.419 65.5804 228.765 65.8004C235.205 66.867 240.605 68.2771 244.965 70.0304C251.765 72.7704 253.992 77.737 251.645 84.9304C251.035 86.7904 248.805 88.9504 246.955 89.9604C243.475 91.8537 240.219 93.8837 237.185 96.0504C236.905 96.2504 236.805 96.5204 236.885 96.8604C237.165 98.0404 237.299 99.2904 237.285 100.61C237.279 101.777 237.379 103.047 237.585 104.42C237.945 106.794 238.025 109.19 237.825 111.61C237.245 118.53 236.085 124.51 232.885 130.84C230.879 134.807 229.122 137.864 227.615 140.01C223.542 145.837 220.265 149.637 217.785 151.41C214.572 153.704 211.095 155.99 207.355 158.27C204.482 160.024 201.672 161.257 198.925 161.97C197.705 162.29 197.659 162.73 198.785 163.29L216.375 172.12C216.908 172.387 217.495 172.524 218.09 172.521C218.684 172.517 219.269 172.373 219.795 172.1L248.345 157.37C248.625 157.224 248.625 157.084 248.345 156.95C245.679 155.704 243.022 154.387 240.375 153C226.665 145.83 232.165 134.61 241.305 127.14C241.61 126.887 241.821 126.539 241.905 126.15C242.815 121.8 243.945 117.88 247.715 115.12C253.869 110.627 260.605 110.117 267.925 113.59C291.472 124.757 315.382 136.03 339.655 147.41C348.305 151.46 352.465 159.87 347.195 168.61C345.545 171.33 342.785 173.22 340.045 174.63C339.726 174.795 339.475 175.068 339.338 175.401C339.201 175.734 339.186 176.106 339.295 176.45C340.949 181.644 340.672 186.787 338.465 191.88C338.412 192.004 338.387 192.137 338.391 192.271C338.395 192.405 338.429 192.537 338.49 192.656C338.552 192.776 338.639 192.88 338.745 192.962C338.851 193.044 338.974 193.102 339.105 193.13C345.152 194.477 348.992 198.134 350.625 204.1C351.272 206.46 351.115 208.987 350.155 211.68C348.415 216.56 344.015 219.51 339.705 221.92C339.372 222.107 339.269 222.377 339.395 222.73C339.865 224.07 340.485 225.32 340.465 226.73C340.365 232.11 338.695 238.51 334.295 242.08C330.849 244.874 327.209 247.3 323.375 249.36ZM120.305 127.44C119.299 127.654 118.742 128.134 118.635 128.88C118.569 129.387 118.812 129.94 119.365 130.54C123.699 135.267 126.692 138.42 128.345 140C131.935 143.43 137.685 145.15 140.845 146.76C143.679 148.207 146.502 149.607 149.315 150.96C154.525 153.47 160.545 154.15 166.165 155.1C177.585 157.04 188.285 156.02 199.475 151.42C202.785 150.06 205.885 147.77 208.985 145.71C211.425 144.09 213.405 142.427 214.925 140.72C219.645 135.43 222.465 129.98 225.645 123.68C226.939 121.127 227.589 117.91 227.595 114.03C228.202 107.524 227.925 100.9 226.765 94.1604C226.545 92.8537 226.792 91.8971 227.505 91.2904C232.205 87.3104 237.242 83.9771 242.615 81.2904C242.771 81.2127 242.901 81.0927 242.991 80.9441C243.081 80.7956 243.127 80.6246 243.124 80.4509C243.12 80.2773 243.068 80.1081 242.973 79.9629C242.878 79.8177 242.743 79.7024 242.585 79.6304C237.152 77.1771 231.412 75.6937 225.365 75.1804C223.775 75.0404 221.565 74.1604 220.505 73.1104C211.125 63.8204 195.865 61.7904 184.645 67.8404C177.159 71.8737 171.499 77.9171 167.665 85.9704C164.795 92.0004 162.485 98.8504 159.385 104.11C150.975 118.38 136.615 123.68 119.875 123.56C119.627 123.557 119.384 123.626 119.174 123.757C118.964 123.889 118.797 124.078 118.69 124.303C118.584 124.528 118.544 124.779 118.575 125.026C118.606 125.274 118.707 125.508 118.865 125.7L120.305 127.44ZM50.0153 160.85C50.1486 160.57 50.3519 160.36 50.6253 160.22C62.8119 154.014 74.9453 147.877 87.0253 141.81C88.1053 141.27 89.0386 140.697 89.8252 140.09C89.9591 139.988 90.0705 139.859 90.1525 139.711C90.2346 139.564 90.2856 139.401 90.3025 139.232C90.3193 139.064 90.3016 138.893 90.2505 138.731C90.1994 138.569 90.116 138.419 90.0052 138.29L85.3553 132.88C85.0966 132.58 84.7466 132.373 84.3597 132.291C83.9727 132.21 83.5704 132.259 83.2153 132.43C68.7886 139.297 54.6152 146.17 40.6952 153.05C37.8552 154.45 34.3453 155.72 32.3353 157.92C29.6853 160.85 31.7353 164.42 34.7653 165.95C56.0053 176.677 73.1286 185.677 86.1352 192.95C87.2252 193.56 88.1052 194.86 88.1652 196.13C88.4319 201.384 88.7253 207 89.0452 212.98C89.1452 215 89.8552 216.39 91.6652 217.38C105.479 224.907 118.099 231.92 129.525 238.42C135.179 241.64 141.005 244.87 147.005 248.11C159.312 254.75 171.565 261.487 183.765 268.32C185.785 269.454 187.832 269.5 189.905 268.46C194.385 266.22 199.495 263.45 205.235 260.15C230.102 245.85 254.952 231.71 279.785 217.73C281.859 216.564 282.949 214.8 283.055 212.44C283.309 206.807 283.522 201.347 283.695 196.06C283.717 195.414 283.905 194.783 284.241 194.231C284.578 193.679 285.051 193.224 285.615 192.91C303.235 183.117 320.089 174.04 336.175 165.68C338.262 164.594 339.455 163.427 339.755 162.18C340.555 158.9 337.765 157.39 335.145 156.17C324.299 151.104 299.879 139.554 261.885 121.52C260.681 120.948 259.338 120.726 258.012 120.882C256.685 121.038 255.429 121.564 254.385 122.4L253.495 123.11C251.449 124.744 251.595 126.147 253.935 127.32C273.249 137 292.629 146.737 312.075 156.53C314.469 157.737 316.849 158.974 319.215 160.24C319.862 160.58 320.155 161.037 320.095 161.61C320.077 161.782 320.016 161.945 319.918 162.085C319.82 162.226 319.688 162.337 319.535 162.41C304.269 170.037 289.409 178.127 274.955 186.68C273.615 187.47 272.205 188.74 272.185 190.19C272.152 194.564 272.115 198.777 272.075 202.83C272.069 203.439 271.904 204.035 271.597 204.559C271.29 205.084 270.852 205.519 270.325 205.82C254.635 214.79 238.725 223.18 222.945 232.13C211.565 238.584 200.115 244.817 188.595 250.83C188.102 251.087 187.553 251.22 186.998 251.218C186.442 251.216 185.896 251.08 185.405 250.82C157.605 236.234 129.865 221.35 102.185 206.17C100.545 205.27 99.7252 204.02 99.7252 202.42C99.7252 198.627 99.7186 194.777 99.7053 190.87C99.7021 190.202 99.5266 189.544 99.1957 188.961C98.8648 188.378 98.3896 187.889 97.8153 187.54C82.5153 178.3 66.5953 170.04 50.5153 162.25C50.2667 162.127 50.0757 161.913 49.9824 161.651C49.8891 161.39 49.9009 161.103 50.0153 160.85ZM102.275 156.53L109.795 152.04C109.891 151.983 109.971 151.902 110.027 151.805C110.084 151.708 110.114 151.598 110.116 151.486C110.118 151.374 110.091 151.263 110.039 151.164C109.986 151.065 109.909 150.981 109.815 150.92L100.515 144.98C100.156 144.75 99.7459 144.612 99.3218 144.579C98.8977 144.546 98.4728 144.618 98.0853 144.79C92.7253 147.177 87.1686 149.964 81.4152 153.15C80.1686 153.837 79.3719 154.847 79.0253 156.18C78.3353 158.82 80.5853 160.75 82.7353 161.85C100.622 171.01 123.765 183.007 152.165 197.84C154.915 199.27 157.475 197.81 159.845 196.59C167.765 192.497 175.382 188.464 182.695 184.49C185.495 182.97 188.085 182.83 190.465 184.07C198.759 188.377 207.052 192.684 215.345 196.99C217.785 198.257 220.309 198.177 222.915 196.75C238.315 188.297 258.539 177.64 283.585 164.78C284.365 164.38 285.165 163.927 285.985 163.42C288.545 161.83 293.495 159.9 291.465 156.04C290.595 154.39 287.685 152.72 286.155 151.94C274.182 145.847 262.199 140.077 250.205 134.63C249.651 134.379 249.035 134.296 248.434 134.392C247.833 134.488 247.273 134.758 246.825 135.17C245.085 136.764 243.435 138.66 241.875 140.86C241.758 141.027 241.677 141.217 241.639 141.417C241.601 141.617 241.607 141.823 241.655 142.02C241.704 142.218 241.794 142.402 241.92 142.561C242.046 142.72 242.205 142.849 242.385 142.94C250.652 147.2 258.982 151.447 267.375 155.68C268.115 156.054 268.465 156.447 268.425 156.86C268.385 157.223 268.257 157.571 268.051 157.873C267.845 158.174 267.569 158.421 267.245 158.59C251.532 166.764 235.862 174.834 220.235 182.8C219.573 183.141 218.838 183.32 218.093 183.322C217.347 183.323 216.611 183.148 215.945 182.81C207.305 178.437 198.425 173.924 189.305 169.27C187.459 168.33 185.745 168.23 184.165 168.97C178.379 171.684 169.155 176.327 156.495 182.9C154.685 183.84 153.275 183.92 151.555 183C135.602 174.494 119.195 166.167 102.335 158.02C101.389 157.56 101.369 157.064 102.275 156.53ZM327.935 179.28L302.445 193.02C299.992 194.34 298.722 196.394 298.635 199.18L298.595 200.7C298.502 203.787 299.809 204.587 302.515 203.1L327.905 189.19C328.703 188.753 329.365 188.106 329.819 187.319C330.272 186.532 330.499 185.637 330.475 184.73L330.365 180.69C330.319 178.904 329.509 178.434 327.935 179.28ZM47.2753 181.02C46.2286 180.454 45.2086 180.017 44.2153 179.71C43.2019 179.397 42.5353 179.747 42.2153 180.76C41.0953 184.38 40.8353 187.94 44.6153 190.03C49.8353 192.91 58.3219 197.314 70.0753 203.24C72.6486 204.54 74.2453 203.784 74.8653 200.97C74.8919 200.85 74.9186 200.727 74.9452 200.6C75.5519 197.834 74.6119 195.777 72.1253 194.43C63.8453 189.957 55.5619 185.487 47.2753 181.02ZM254.585 189.67C246.225 194.17 238.295 198.44 230.795 202.48C227.815 204.087 226.805 206.3 227.765 209.12C228.645 211.7 231.115 212.46 233.285 211.36C241.392 207.267 248.565 203.437 254.805 199.87C259.045 197.45 258.315 194.2 258.035 190.05C258.023 189.889 257.978 189.731 257.903 189.588C257.828 189.444 257.724 189.318 257.598 189.216C257.472 189.115 257.327 189.041 257.172 188.999C257.017 188.956 256.854 188.947 256.695 188.97C255.955 189.077 255.252 189.31 254.585 189.67ZM118.085 189.85C115.592 188.637 114.145 189.404 113.745 192.15C113.725 192.27 113.712 192.39 113.705 192.51C113.445 195.19 114.492 197.18 116.845 198.48C124.379 202.647 132.125 206.93 140.085 211.33C145.345 214.23 148.715 206.15 143.525 203.17C135.992 198.857 127.512 194.417 118.085 189.85ZM186.455 193.74L181.185 196.53C181.172 196.65 181.005 196.824 180.685 197.05C180.365 197.024 180.082 197.06 179.835 197.16C179.469 197.314 179.442 197.514 179.755 197.76C180.809 198.587 181.895 198.58 183.015 197.74C182.829 197.3 183.015 197.077 183.575 197.07L194.035 198.53C194.302 199.13 195.055 199.547 196.295 199.78C199.015 201.267 201.789 202.657 204.615 203.95C204.969 204.11 205.019 204.054 204.765 203.78C204.679 203.694 204.575 203.62 204.455 203.56C204.169 203.434 204.035 203.294 204.055 203.14C204.062 203.1 204.079 203.074 204.105 203.06C204.685 202.78 205.129 202.99 205.435 203.69C205.709 204.317 206.062 204.764 206.495 205.03C206.895 205.27 206.999 205.18 206.805 204.76C206.345 203.76 205.842 203.1 205.295 202.78C201.662 200.674 195.722 197.71 187.475 193.89C186.635 193.184 186.295 193.134 186.455 193.74ZM178.005 198.05C177.924 198.065 177.849 198.103 177.788 198.16C177.728 198.216 177.685 198.289 177.665 198.369C177.645 198.449 177.649 198.534 177.675 198.612C177.702 198.69 177.751 198.759 177.815 198.81C178.222 199.144 178.662 199.304 179.135 199.29C179.395 199.284 179.495 199.154 179.435 198.9C179.269 198.174 178.792 197.89 178.005 198.05ZM177.105 199.47C176.939 199.184 176.582 199.084 176.035 199.17C175.974 199.181 175.917 199.207 175.87 199.246C175.823 199.285 175.786 199.337 175.765 199.395C175.744 199.452 175.738 199.515 175.749 199.576C175.759 199.636 175.786 199.693 175.825 199.74C176.365 200.38 176.909 200.46 177.455 199.98C177.529 199.914 177.525 199.857 177.445 199.81C177.419 199.79 177.392 199.774 177.365 199.76C177.272 199.707 177.185 199.61 177.105 199.47ZM175.105 200.41L175.075 200.01C175.074 199.993 175.069 199.977 175.059 199.962C175.05 199.948 175.037 199.936 175.021 199.927C175.006 199.918 174.988 199.913 174.97 199.912C174.951 199.911 174.933 199.914 174.915 199.92L174.025 200.27C173.672 200.41 173.652 200.59 173.965 200.81C174.479 201.164 175.052 201.3 175.685 201.22C175.729 201.214 175.77 201.194 175.802 201.164C175.835 201.134 175.857 201.094 175.867 201.051C175.877 201.008 175.873 200.963 175.857 200.922C175.84 200.88 175.812 200.845 175.775 200.82C175.635 200.734 175.489 200.677 175.335 200.65C175.195 200.63 175.119 200.55 175.105 200.41ZM159.615 207.8C159.282 207.74 158.959 207.9 158.645 208.28C157.892 207.94 157.122 207.917 156.335 208.21C155.989 208.337 155.782 208.584 155.715 208.95L155.375 210.92C155.302 211.36 155.479 211.514 155.905 211.38C156.112 211.32 156.262 211.18 156.355 210.96C158.082 210.714 159.272 209.707 159.925 207.94C160.265 207.874 160.642 207.947 161.055 208.16C161.362 208.314 161.629 208.267 161.855 208.02C162.029 207.834 162.145 207.617 162.205 207.37C162.285 206.984 162.492 206.897 162.825 207.11C163.005 207.224 163.199 207.274 163.405 207.26C163.745 207.234 163.959 207.054 164.045 206.72C164.199 206.134 164.552 205.964 165.105 206.21C165.572 206.424 165.872 206.284 166.005 205.79C166.179 205.144 166.562 204.957 167.155 205.23C167.529 205.397 167.785 205.287 167.925 204.9C167.992 204.687 168.095 204.5 168.235 204.34C168.442 204.087 168.702 204.017 169.015 204.13C169.535 204.324 169.899 204.15 170.105 203.61C170.245 203.237 170.509 203.107 170.895 203.22C171.462 203.38 171.839 203.184 172.025 202.63C172.056 202.544 172.104 202.464 172.167 202.397C172.23 202.33 172.306 202.277 172.391 202.241C172.476 202.205 172.567 202.188 172.659 202.189C172.751 202.191 172.842 202.212 172.925 202.25C173.052 202.304 173.185 202.317 173.325 202.29C173.892 202.184 173.942 201.954 173.475 201.6C173.349 201.507 173.242 201.394 173.155 201.26C172.842 200.78 172.615 200.82 172.475 201.38C172.275 202.16 171.815 202.444 171.095 202.23C170.722 202.117 170.449 202.234 170.275 202.58L170.085 202.97C169.932 203.277 169.689 203.384 169.355 203.29C168.749 203.124 168.345 203.304 168.145 203.83C168.019 204.177 167.775 204.31 167.415 204.23C166.815 204.097 166.395 204.3 166.155 204.84C166.022 205.154 165.785 205.277 165.445 205.21C164.792 205.09 164.295 205.334 163.955 205.94C163.885 206.063 163.771 206.155 163.637 206.195C163.503 206.236 163.359 206.224 163.235 206.16C163.075 206.074 162.919 206.06 162.765 206.12C162.519 206.22 162.355 206.397 162.275 206.65C162.195 206.917 162.045 207.107 161.825 207.22C161.652 207.307 161.375 207.307 160.995 207.22C160.075 207.014 159.615 207.207 159.615 207.8ZM78.7252 223.3C66.0652 215.85 53.6753 208.77 41.1253 202.7C38.9053 201.62 36.8486 201.584 34.9553 202.59C31.2953 204.54 30.1052 208.99 34.4452 211.36C78.5252 235.48 106.782 251.07 119.215 258.13C141.615 270.844 163.905 283.234 186.085 295.3C186.629 295.597 187.24 295.75 187.859 295.745C188.479 295.739 189.087 295.576 189.625 295.27C213.379 281.824 237.222 268.257 261.155 254.57C286.875 239.87 313.005 225.89 337.715 211.8C339.355 210.86 341.505 208.86 341.395 206.7C341.349 205.914 341.125 205.31 340.725 204.89C337.732 201.784 334.295 201.297 330.415 203.43C321.402 208.39 312.349 213.434 303.255 218.56C264.229 240.567 226.699 261.6 190.665 281.66C188.665 282.77 185.985 283.22 184.135 282.17C162.915 270.1 141.715 257.9 120.235 246.3C100.582 235.694 86.7452 228.027 78.7252 223.3ZM207.525 204.72C207.779 205.46 208.169 205.927 208.695 206.12C209.022 206.24 209.099 206.147 208.925 205.84C208.672 205.38 208.339 204.927 207.925 204.48C207.412 203.92 207.279 204 207.525 204.72ZM165.925 229.68L186.785 240.21C187.048 240.343 187.338 240.409 187.633 240.404C187.927 240.399 188.216 240.322 188.475 240.18L208.535 229.24C210.942 228.214 213.435 227.1 216.015 225.9C218.329 224.82 218.502 223.364 216.535 221.53C216.416 221.418 216.285 221.323 216.145 221.25C207.572 216.79 199.249 212.507 191.175 208.4C188.305 206.94 186.045 206.59 183.315 208.06C174.822 212.634 166.212 217.137 157.485 221.57C157.035 221.8 156.683 222.184 156.492 222.652C156.301 223.12 156.284 223.641 156.445 224.12C156.659 224.76 157.265 225.344 158.265 225.87C160.939 227.284 163.492 228.554 165.925 229.68ZM217.145 209.85C216.959 209.937 216.762 209.964 216.555 209.93C216.009 209.83 215.962 209.94 216.415 210.26C216.649 210.42 216.882 210.564 217.115 210.69C217.375 210.837 217.519 210.76 217.545 210.46L217.675 208.69C217.702 208.33 217.569 208.047 217.275 207.84C216.469 207.28 215.579 207.074 214.605 207.22C213.779 207.347 213.782 207.45 214.615 207.53C216.015 207.67 216.955 208.127 217.435 208.9C217.484 208.98 217.516 209.068 217.528 209.161C217.54 209.253 217.532 209.348 217.504 209.437C217.477 209.527 217.431 209.61 217.369 209.681C217.307 209.753 217.231 209.81 217.145 209.85ZM185.445 304.1C179.465 301.31 172.645 296.82 166.915 293.71C158.022 288.884 149.169 283.977 140.355 278.99C108.515 260.964 76.5853 243.01 44.5653 225.13C42.5053 223.984 41.4586 224.587 41.4253 226.94L41.3653 230.42C41.3253 232.827 42.3753 234.58 44.5153 235.68C51.1219 239.094 58.8219 243.284 67.6153 248.25C106.449 270.204 145.522 292.144 184.835 314.07C186.569 315.037 188.245 315.05 189.865 314.11C235.555 287.77 279.375 263.35 326.835 235.64C330.615 233.43 330.415 229.4 330.375 225.49C330.375 225.382 330.348 225.276 330.298 225.18C330.248 225.084 330.176 225.001 330.088 224.938C329.999 224.875 329.897 224.833 329.789 224.816C329.68 224.799 329.57 224.807 329.465 224.84C327.715 225.4 326.005 226.88 324.675 227.6C298.522 241.994 272.759 256.544 247.385 271.25C228.465 282.21 208.965 292.98 190.655 303.53C188.735 304.637 186.999 304.827 185.445 304.1Z" fill="#01172E"/>
<path d="M227.595 114.03C224.762 122.797 220.362 130.477 214.395 137.07C211.435 140.35 207.185 142.66 203.415 145.23C199.805 147.69 195.285 148.98 190.645 150.18C184.192 151.847 177.608 152.334 170.895 151.641C168.942 151.441 164.808 150.784 158.495 149.671C156.735 149.37 154.965 148.65 153.195 148.16C148.475 146.85 144.055 144.221 139.265 141.891C135.085 139.851 131.245 138.85 127.555 135.03C125.088 132.47 122.672 129.94 120.305 127.44L118.865 125.701C118.707 125.508 118.606 125.274 118.575 125.027C118.544 124.779 118.584 124.528 118.69 124.303C118.796 124.078 118.964 123.889 119.174 123.757C119.384 123.626 119.627 123.558 119.875 123.56C136.615 123.68 150.975 118.381 159.385 104.111C162.485 98.8505 164.795 92.0005 167.665 85.9705C171.498 77.9172 177.158 71.8738 184.645 67.8405C195.865 61.7905 211.125 63.8205 220.505 73.1105C221.565 74.1605 223.775 75.0405 225.365 75.1805C231.412 75.6938 237.152 77.1772 242.585 79.6305C242.743 79.7025 242.877 79.8178 242.973 79.963C243.068 80.1082 243.12 80.2774 243.123 80.451C243.126 80.6247 243.08 80.7957 242.99 80.9442C242.901 81.0928 242.77 81.2128 242.615 81.2905C237.242 83.9772 232.205 87.3105 227.505 91.2905C226.792 91.8972 226.545 92.8538 226.765 94.1605C227.925 100.9 228.202 107.524 227.595 114.03ZM199.019 92.5254C200.052 92.4622 201.062 92.1908 201.991 91.7266C202.921 91.2625 203.751 90.6146 204.436 89.8201C205.12 89.0256 205.645 88.1 205.981 87.0962C206.316 86.0923 206.455 85.0298 206.39 83.9694C206.259 81.8278 205.305 79.8246 203.737 78.4005C202.17 76.9764 200.117 76.248 198.031 76.3756C196.998 76.4388 195.988 76.7102 195.059 77.1744C194.129 77.6385 193.299 78.2863 192.614 79.0808C191.93 79.8753 191.405 80.801 191.069 81.8048C190.734 82.8087 190.595 83.8712 190.66 84.9316C190.791 87.0732 191.745 89.0764 193.313 90.5005C194.88 91.9246 196.933 92.653 199.019 92.5254ZM138.945 136.72C155.015 143.3 174.145 139.201 182.485 123.391C185.465 117.741 186.325 111.541 185.135 105.361C185.054 104.942 184.826 104.567 184.492 104.303C184.158 104.039 183.74 103.903 183.315 103.921L177.925 104.12C176.832 104.16 176.272 104.731 176.245 105.831C175.992 117.744 170.635 125.557 160.175 129.27C157.325 130.28 153.925 130.2 150.895 130.18C145.285 130.16 140.025 131.46 134.735 132.76C134.603 132.792 134.482 132.86 134.385 132.956C134.289 133.053 134.221 133.173 134.189 133.306C134.157 133.438 134.162 133.577 134.204 133.706C134.245 133.836 134.322 133.952 134.425 134.04C135.705 135.12 137.212 136.014 138.945 136.72Z" fill="white"/>
<path d="M190.66 84.9316C190.933 89.3912 194.675 92.7911 199.019 92.5254C203.363 92.2597 206.663 88.4291 206.39 83.9694C206.118 79.5098 202.375 76.1099 198.031 76.3756C193.687 76.6413 190.387 80.4719 190.66 84.9316Z" fill="#01172E"/>
<path d="M138.945 136.72C137.212 136.014 135.705 135.12 134.425 134.04C134.322 133.952 134.246 133.836 134.204 133.706C134.162 133.577 134.157 133.438 134.189 133.306C134.221 133.173 134.289 133.052 134.386 132.956C134.482 132.86 134.603 132.792 134.735 132.76C140.025 131.46 145.285 130.16 150.895 130.18C153.925 130.2 157.325 130.28 160.175 129.27C170.635 125.557 175.992 117.744 176.245 105.83C176.272 104.73 176.832 104.16 177.925 104.12L183.315 103.92C183.741 103.903 184.158 104.039 184.492 104.303C184.826 104.567 185.054 104.942 185.135 105.36C186.325 111.54 185.465 117.74 182.485 123.39C174.145 139.2 155.015 143.3 138.945 136.72Z" fill="#01172E"/>
<path d="M227.595 114.031C227.589 117.911 226.939 121.127 225.645 123.681C222.465 129.981 219.645 135.431 214.925 140.721C213.405 142.427 211.425 144.091 208.985 145.711C205.885 147.771 202.785 150.061 199.475 151.421C188.285 156.021 177.585 157.041 166.165 155.101C160.545 154.151 154.525 153.471 149.315 150.961C146.502 149.607 143.679 148.207 140.845 146.761C137.685 145.151 131.935 143.431 128.345 140.001C126.692 138.421 123.699 135.267 119.365 130.541C118.812 129.941 118.569 129.387 118.635 128.881C118.742 128.134 119.299 127.654 120.305 127.441C122.672 129.941 125.089 132.471 127.555 135.031C131.245 138.851 135.085 139.851 139.265 141.891C144.055 144.221 148.475 146.851 153.195 148.161C154.965 148.651 156.735 149.371 158.495 149.671C164.809 150.784 168.942 151.441 170.895 151.641C177.609 152.334 184.192 151.847 190.645 150.181C195.285 148.981 199.805 147.691 203.415 145.231C207.185 142.661 211.435 140.351 214.395 137.071C220.362 130.477 224.762 122.797 227.595 114.031Z" fill="#9284D6"/>
<path d="M50.015 160.851C49.9006 161.103 49.8888 161.39 49.9821 161.652C50.0754 161.913 50.2664 162.127 50.515 162.251C66.595 170.041 82.515 178.301 97.815 187.541C98.3893 187.889 98.8645 188.378 99.1954 188.961C99.5263 189.544 99.7018 190.202 99.705 190.871C99.7183 194.777 99.7249 198.627 99.7249 202.421C99.7249 204.021 100.545 205.271 102.185 206.171C129.865 221.351 157.605 236.234 185.405 250.821C185.895 251.08 186.442 251.217 186.998 251.218C187.553 251.22 188.101 251.087 188.595 250.831C200.115 244.817 211.565 238.584 222.945 232.131C238.725 223.181 254.635 214.791 270.325 205.821C270.852 205.519 271.29 205.084 271.597 204.56C271.904 204.035 272.069 203.439 272.075 202.831C272.115 198.777 272.152 194.564 272.185 190.191C272.205 188.741 273.615 187.471 274.955 186.681C289.408 178.127 304.268 170.037 319.535 162.411C319.688 162.338 319.82 162.226 319.918 162.086C320.016 161.946 320.077 161.782 320.095 161.611C320.155 161.037 319.862 160.581 319.215 160.241C316.848 158.974 314.468 157.737 312.075 156.531C292.628 146.737 273.248 137.001 253.935 127.321C251.595 126.147 251.448 124.744 253.495 123.111L254.385 122.401C255.428 121.564 256.685 121.038 258.012 120.882C259.338 120.727 260.68 120.948 261.885 121.521C299.878 139.554 324.298 151.104 335.145 156.171C337.765 157.391 340.555 158.901 339.755 162.181C339.455 163.427 338.262 164.594 336.175 165.681C320.088 174.041 303.235 183.117 285.615 192.911C285.051 193.224 284.577 193.68 284.241 194.232C283.904 194.784 283.716 195.414 283.695 196.061C283.522 201.347 283.308 206.807 283.055 212.441C282.948 214.801 281.858 216.564 279.785 217.731C254.952 231.711 230.102 245.851 205.235 260.151C199.495 263.451 194.385 266.221 189.905 268.461C187.832 269.501 185.785 269.454 183.765 268.321C171.565 261.487 159.312 254.751 147.005 248.111C141.005 244.871 135.178 241.641 129.525 238.421C118.098 231.921 105.478 224.907 91.665 217.381C89.8549 216.391 89.145 215.001 89.045 212.981C88.725 207.001 88.4316 201.384 88.165 196.131C88.1049 194.861 87.225 193.561 86.135 192.951C73.1283 185.677 56.005 176.677 34.765 165.951C31.735 164.421 29.685 160.851 32.335 157.921C34.345 155.721 37.8549 154.451 40.6949 153.051C54.6149 146.171 68.7883 139.297 83.215 132.431C83.5701 132.259 83.9724 132.21 84.3594 132.292C84.7463 132.373 85.0963 132.58 85.355 132.881L90.0049 138.291C90.1157 138.42 90.1991 138.57 90.2502 138.732C90.3014 138.893 90.319 139.064 90.3022 139.232C90.2853 139.401 90.2343 139.564 90.1523 139.711C90.0702 139.859 89.9588 139.988 89.825 140.091C89.0383 140.697 88.105 141.271 87.025 141.811C74.945 147.877 62.8116 154.014 50.625 160.221C50.3516 160.361 50.1483 160.571 50.015 160.851Z" fill="white"/>
<path d="M102.275 156.53C101.369 157.064 101.389 157.56 102.335 158.02C119.195 166.167 135.602 174.494 151.555 183C153.275 183.92 154.685 183.84 156.495 182.9C169.155 176.327 178.379 171.684 184.165 168.97C185.745 168.23 187.459 168.33 189.305 169.27C198.425 173.924 207.305 178.437 215.945 182.81C216.611 183.148 217.347 183.323 218.093 183.322C218.838 183.32 219.573 183.141 220.235 182.8C235.862 174.834 251.532 166.764 267.245 158.59C267.569 158.421 267.845 158.174 268.051 157.873C268.257 157.571 268.385 157.223 268.425 156.86C268.465 156.447 268.115 156.054 267.375 155.68C258.982 151.447 250.652 147.2 242.385 142.94C242.205 142.849 242.046 142.72 241.92 142.561C241.794 142.402 241.704 142.218 241.655 142.02C241.607 141.823 241.601 141.617 241.639 141.417C241.677 141.217 241.758 141.027 241.875 140.86C243.435 138.66 245.085 136.764 246.825 135.17C247.273 134.759 247.833 134.488 248.434 134.392C249.035 134.296 249.651 134.379 250.205 134.63C262.199 140.077 274.182 145.847 286.155 151.94C287.685 152.72 290.595 154.39 291.465 156.04C293.495 159.9 288.545 161.83 285.985 163.42C285.165 163.927 284.365 164.38 283.585 164.78C258.539 177.64 238.315 188.297 222.915 196.75C220.309 198.177 217.785 198.257 215.345 196.99C207.052 192.684 198.759 188.377 190.465 184.07C188.085 182.83 185.495 182.97 182.695 184.49C175.382 188.464 167.765 192.497 159.845 196.59C157.475 197.81 154.915 199.27 152.165 197.84C123.765 183.007 100.622 171.01 82.7353 161.85C80.5853 160.75 78.3353 158.82 79.0253 156.18C79.372 154.847 80.1686 153.837 81.4153 153.15C87.1686 149.964 92.7253 147.177 98.0853 144.79C98.4729 144.618 98.8978 144.546 99.3219 144.579C99.746 144.612 100.156 144.75 100.515 144.98L109.815 150.92C109.909 150.981 109.986 151.065 110.039 151.164C110.092 151.263 110.118 151.374 110.116 151.486C110.114 151.598 110.084 151.708 110.027 151.805C109.971 151.902 109.891 151.983 109.795 152.04L102.275 156.53Z" fill="white"/>
<path d="M115.035 140.41C119.595 144.69 123.525 149.92 129.995 152.57C133.488 154.004 136.965 155.637 140.425 157.47C144.032 159.384 147.582 160.84 151.075 161.84C156.475 163.387 161.805 164.44 167.065 165C168.718 165.174 168.805 165.637 167.325 166.39L155.445 172.46C155.018 172.68 154.544 172.794 154.062 172.794C153.581 172.794 153.105 172.68 152.675 172.46L119.425 155.49C119.132 155.337 119.018 155.1 119.085 154.78C120.305 149.134 118.568 144.8 113.875 141.78C114.822 141.434 115.208 140.977 115.035 140.41Z" fill="#5E40F1"/>
<path d="M302.445 193.02L327.935 179.28C329.508 178.434 330.318 178.904 330.365 180.69L330.475 184.73C330.499 185.637 330.272 186.532 329.818 187.319C329.365 188.106 328.703 188.753 327.905 189.19L302.515 203.1C299.808 204.587 298.502 203.787 298.595 200.7L298.635 199.18C298.722 196.394 299.992 194.34 302.445 193.02Z" fill="#9284D6"/>
<path d="M47.2751 181.02C55.5618 185.487 63.8451 189.957 72.1251 194.43C74.6118 195.777 75.5518 197.834 74.9451 200.6C74.9184 200.727 74.8918 200.85 74.8651 200.97C74.2451 203.784 72.6484 204.54 70.0751 203.24C58.3218 197.314 49.8351 192.91 44.6151 190.03C40.8351 187.94 41.0951 184.38 42.2151 180.76C42.5351 179.747 43.2018 179.397 44.2151 179.71C45.2085 180.017 46.2285 180.454 47.2751 181.02Z" fill="#9284D6"/>
<path d="M254.585 189.67C255.252 189.31 255.955 189.077 256.695 188.97C256.854 188.947 257.017 188.956 257.172 188.999C257.327 189.041 257.472 189.115 257.598 189.217C257.724 189.318 257.827 189.444 257.903 189.588C257.978 189.731 258.023 189.889 258.035 190.05C258.315 194.2 259.045 197.45 254.805 199.87C248.565 203.437 241.392 207.267 233.285 211.36C231.115 212.46 228.645 211.7 227.765 209.12C226.805 206.3 227.815 204.087 230.795 202.48C238.295 198.44 246.225 194.17 254.585 189.67Z" fill="#9284D6"/>
<path d="M118.085 189.85C127.512 194.417 135.992 198.857 143.525 203.17C148.715 206.15 145.345 214.23 140.085 211.33C132.125 206.93 124.379 202.647 116.845 198.48C114.492 197.18 113.445 195.19 113.705 192.51C113.712 192.39 113.725 192.27 113.745 192.15C114.145 189.404 115.592 188.637 118.085 189.85Z" fill="#9284D6"/>
<path d="M187.475 193.89L199.265 200.35C199.538 200.497 199.535 200.64 199.255 200.78C199.095 200.854 198.932 200.854 198.765 200.78C198.525 200.667 198.325 200.517 198.165 200.33C197.725 199.81 197.102 199.627 196.295 199.78C195.055 199.547 194.302 199.13 194.035 198.53C190.408 196.69 186.922 196.204 183.575 197.07C183.015 197.077 182.828 197.3 183.015 197.74C181.635 197.954 180.858 197.724 180.685 197.05C181.005 196.824 181.172 196.65 181.185 196.53C183.578 196.257 185.335 195.327 186.455 193.74C186.295 193.134 186.635 193.184 187.475 193.89Z" fill="#2D1F6E"/>
<path d="M186.455 193.74C185.335 195.327 183.578 196.257 181.185 196.53L186.455 193.74Z" fill="#5E40F1"/>
<path d="M187.475 193.89C195.722 197.71 201.662 200.674 205.295 202.78C205.842 203.1 206.345 203.76 206.805 204.76C206.998 205.18 206.895 205.27 206.495 205.03C206.062 204.764 205.708 204.317 205.435 203.69C205.128 202.99 204.685 202.78 204.105 203.06C204.078 203.074 204.062 203.1 204.055 203.14C204.035 203.294 204.168 203.434 204.455 203.56C204.575 203.62 204.678 203.694 204.765 203.78C205.018 204.054 204.968 204.11 204.615 203.95C201.788 202.657 199.015 201.267 196.295 199.78C197.102 199.627 197.725 199.81 198.165 200.33C198.325 200.517 198.525 200.667 198.765 200.78C198.932 200.854 199.095 200.854 199.255 200.78C199.535 200.64 199.538 200.497 199.265 200.35L187.475 193.89Z" fill="#5E40F1"/>
<path d="M194.035 198.531L183.575 197.071C186.922 196.204 190.409 196.691 194.035 198.531Z" fill="#5E40F1"/>
<path d="M180.685 197.05C180.858 197.724 181.635 197.954 183.015 197.74C181.895 198.58 180.808 198.587 179.755 197.76C179.442 197.514 179.468 197.314 179.835 197.16C180.082 197.06 180.365 197.024 180.685 197.05Z" fill="#9284D6"/>
<path d="M178.005 198.05C178.792 197.89 179.269 198.174 179.435 198.9C179.495 199.154 179.395 199.284 179.135 199.29C178.662 199.304 178.222 199.144 177.815 198.81C177.75 198.759 177.702 198.69 177.675 198.612C177.649 198.534 177.645 198.449 177.665 198.369C177.685 198.289 177.728 198.216 177.788 198.16C177.849 198.103 177.924 198.065 178.005 198.05Z" fill="#9284D6"/>
<path d="M177.365 199.76C177.392 199.774 177.418 199.79 177.445 199.81C177.525 199.857 177.528 199.914 177.455 199.98C176.908 200.46 176.365 200.38 175.825 199.74C175.785 199.693 175.759 199.636 175.748 199.575C175.738 199.515 175.743 199.452 175.765 199.394C175.786 199.337 175.822 199.285 175.87 199.246C175.917 199.207 175.974 199.181 176.035 199.17C176.582 199.084 176.938 199.184 177.105 199.47C177.185 199.61 177.272 199.707 177.365 199.76Z" fill="#9284D6"/>
<path d="M175.335 200.65C175.488 200.677 175.635 200.734 175.775 200.82C175.812 200.845 175.84 200.88 175.857 200.922C175.873 200.963 175.877 201.008 175.867 201.051C175.857 201.094 175.835 201.134 175.802 201.164C175.77 201.194 175.729 201.214 175.685 201.22C175.052 201.3 174.478 201.164 173.965 200.81C173.652 200.59 173.672 200.41 174.025 200.27L174.915 199.92C174.932 199.914 174.951 199.911 174.969 199.912C174.988 199.913 175.006 199.918 175.021 199.927C175.037 199.936 175.05 199.948 175.059 199.962C175.068 199.977 175.074 199.993 175.075 200.01L175.105 200.41C175.118 200.55 175.195 200.63 175.335 200.65Z" fill="#9284D6"/>
<path d="M159.925 207.941C159.825 207.894 159.722 207.847 159.615 207.801C159.615 207.207 160.075 207.014 160.995 207.221C161.375 207.307 161.652 207.307 161.825 207.221C162.045 207.107 162.195 206.917 162.275 206.651C162.355 206.397 162.519 206.221 162.765 206.121C162.919 206.061 163.075 206.074 163.235 206.161C163.359 206.224 163.503 206.237 163.637 206.196C163.771 206.155 163.885 206.063 163.955 205.941C164.295 205.334 164.792 205.091 165.445 205.211C165.785 205.277 166.022 205.154 166.155 204.841C166.395 204.301 166.815 204.097 167.415 204.231C167.775 204.311 168.019 204.177 168.145 203.831C168.345 203.304 168.749 203.124 169.355 203.291C169.689 203.384 169.932 203.277 170.085 202.971L170.275 202.581C170.449 202.234 170.722 202.117 171.095 202.231C171.815 202.444 172.275 202.161 172.475 201.381C172.615 200.821 172.842 200.781 173.155 201.261C173.242 201.394 173.349 201.507 173.475 201.601C173.942 201.954 173.892 202.184 173.325 202.291C173.185 202.317 173.052 202.304 172.925 202.251C172.842 202.212 172.751 202.191 172.659 202.19C172.567 202.188 172.476 202.206 172.391 202.241C172.306 202.277 172.23 202.33 172.167 202.397C172.104 202.464 172.056 202.544 172.025 202.631C171.839 203.184 171.462 203.381 170.895 203.221C170.509 203.107 170.245 203.237 170.105 203.611C169.899 204.151 169.535 204.324 169.015 204.131C168.702 204.017 168.442 204.087 168.235 204.341C168.095 204.501 167.992 204.687 167.925 204.901C167.785 205.287 167.529 205.397 167.155 205.231C166.562 204.957 166.179 205.144 166.005 205.791C165.872 206.284 165.572 206.424 165.105 206.211C164.552 205.964 164.199 206.134 164.045 206.721C163.959 207.054 163.745 207.234 163.405 207.261C163.199 207.274 163.005 207.224 162.825 207.111C162.492 206.897 162.285 206.984 162.205 207.371C162.145 207.617 162.029 207.834 161.855 208.021C161.629 208.267 161.362 208.314 161.055 208.161C160.642 207.947 160.265 207.874 159.925 207.941Z" fill="#9284D6"/>
<path d="M41.1252 202.701C53.6752 208.771 66.0652 215.851 78.7252 223.301C86.7452 228.027 100.582 235.694 120.235 246.301C141.715 257.901 162.915 270.101 184.135 282.171C185.985 283.221 188.665 282.771 190.665 281.66C226.698 261.601 264.228 240.567 303.255 218.561C312.348 213.434 321.402 208.391 330.415 203.431C334.295 201.297 337.732 201.784 340.725 204.891C341.125 205.311 341.349 205.914 341.395 206.701C341.505 208.861 339.355 210.861 337.715 211.801C313.005 225.891 286.875 239.871 261.155 254.571C237.222 268.257 213.379 281.824 189.625 295.271C189.086 295.576 188.479 295.74 187.859 295.745C187.24 295.75 186.629 295.597 186.085 295.301C163.905 283.234 141.615 270.844 119.215 258.131C106.782 251.071 78.5252 235.481 34.4452 211.361C30.1052 208.991 31.2952 204.541 34.9552 202.591C36.8485 201.584 38.9052 201.621 41.1252 202.701Z" fill="white"/>
<path d="M207.925 204.481C208.339 204.927 208.672 205.381 208.925 205.841C209.099 206.147 209.022 206.241 208.695 206.121C208.169 205.927 207.779 205.461 207.525 204.721C207.279 204.001 207.412 203.921 207.925 204.481Z" fill="#5E40F1"/>
<path d="M208.535 229.241L187.845 218.171C187.545 218.017 187.245 218.021 186.945 218.181L165.925 229.681C163.492 228.554 160.938 227.284 158.265 225.871C157.265 225.344 156.658 224.761 156.445 224.121C156.284 223.641 156.301 223.12 156.492 222.652C156.683 222.185 157.035 221.801 157.485 221.571C166.212 217.137 174.822 212.634 183.315 208.061C186.045 206.591 188.305 206.941 191.175 208.401C199.248 212.507 207.572 216.791 216.145 221.251C216.284 221.324 216.416 221.418 216.535 221.531C218.502 223.364 218.328 224.821 216.015 225.901C213.435 227.101 210.942 228.214 208.535 229.241Z" fill="white"/>
<path d="M217.435 208.9C216.955 208.127 216.015 207.67 214.615 207.53C213.782 207.45 213.779 207.347 214.605 207.22C215.579 207.074 216.469 207.28 217.275 207.84C217.569 208.047 217.702 208.33 217.675 208.69L217.545 210.46C217.519 210.76 217.375 210.837 217.115 210.69C216.882 210.564 216.649 210.42 216.415 210.26C215.962 209.94 216.009 209.83 216.555 209.93C216.762 209.964 216.959 209.937 217.145 209.85C217.231 209.81 217.307 209.753 217.369 209.681C217.431 209.61 217.477 209.527 217.504 209.437C217.532 209.348 217.54 209.253 217.528 209.161C217.516 209.068 217.484 208.98 217.435 208.9Z" fill="#9284D6"/>
<path d="M158.645 208.28C158.298 208.6 157.805 208.687 157.165 208.54C156.989 208.499 156.806 208.503 156.632 208.553C156.459 208.603 156.301 208.697 156.174 208.825C156.048 208.954 155.956 209.113 155.909 209.288C155.862 209.462 155.861 209.645 155.905 209.82C155.985 210.14 156.135 210.52 156.355 210.96C156.262 211.18 156.112 211.32 155.905 211.38C155.478 211.514 155.302 211.36 155.375 210.92L155.715 208.95C155.782 208.584 155.988 208.337 156.335 208.21C157.122 207.917 157.892 207.94 158.645 208.28Z" fill="#5E40F1"/>
<path d="M159.615 207.8C159.722 207.847 159.825 207.894 159.925 207.94C159.272 209.707 158.082 210.714 156.355 210.96C156.135 210.52 155.985 210.14 155.905 209.82C155.861 209.645 155.862 209.462 155.91 209.288C155.957 209.113 156.048 208.954 156.175 208.825C156.301 208.697 156.459 208.603 156.633 208.553C156.806 208.503 156.99 208.499 157.165 208.54C157.805 208.687 158.299 208.6 158.645 208.28C158.959 207.9 159.282 207.74 159.615 207.8Z" fill="#2D1F6E"/>
<path d="M208.535 229.24L188.475 240.18C188.216 240.322 187.927 240.399 187.633 240.404C187.338 240.409 187.048 240.343 186.785 240.21L165.925 229.68L186.945 218.18C187.245 218.02 187.545 218.017 187.845 218.17L208.535 229.24Z" fill="#9284D6"/>
<path d="M185.445 304.1C186.998 304.827 188.735 304.637 190.655 303.53C208.965 292.98 228.465 282.21 247.385 271.25C272.758 256.544 298.522 241.994 324.675 227.6C326.005 226.88 327.715 225.4 329.465 224.84C329.57 224.807 329.68 224.799 329.788 224.816C329.897 224.833 329.999 224.875 330.087 224.938C330.176 225.001 330.248 225.084 330.298 225.18C330.348 225.276 330.374 225.382 330.375 225.49C330.415 229.4 330.615 233.43 326.835 235.64C279.375 263.35 235.555 287.77 189.865 314.11C188.245 315.05 186.568 315.037 184.835 314.07C145.522 292.144 106.448 270.204 67.6151 248.25C58.8218 243.284 51.1218 239.094 44.5151 235.68C42.3751 234.58 41.3251 232.827 41.3651 230.42L41.4251 226.94C41.4584 224.587 42.5051 223.984 44.5651 225.13C76.5851 243.01 108.515 260.964 140.355 278.99C149.168 283.977 158.022 288.884 166.915 293.71C172.645 296.82 179.465 301.31 185.445 304.1Z" fill="#9284D6"/>
<path d="M323.375 249.36C322.602 250.387 321.665 251.21 320.565 251.83C319.045 252.69 318.012 253.32 317.465 253.72C315.892 254.867 314.185 255.794 312.345 256.5C312.019 256.627 311.742 256.824 311.515 257.09C311.182 257.464 310.775 257.714 310.295 257.84C310.078 257.9 309.876 258.005 309.705 258.15C307.792 259.73 305.649 260.997 303.275 261.95C301.969 262.47 300.829 263.027 299.855 263.62C298.795 264.267 297.689 264.884 296.535 265.47C294.535 266.484 292.992 267.057 291.905 267.19L323.375 249.36Z" fill="#2D1F6E"/>
<path d="M242.865 295.1L240.575 297.7C240.355 297.947 240.078 298.057 239.745 298.03C238.618 297.944 237.732 298.36 237.085 299.28C236.892 299.554 236.638 299.754 236.325 299.88L230.295 302.24L242.865 295.1Z" fill="#2D1F6E"/>
<path d="M214.513 215.69L187.145 201.259V192.69L218.63 208.475L214.513 215.69Z" fill="#01172E"/>
<path d="M219.145 207.573L218.63 208.475M218.63 208.475L214.513 215.69L187.145 201.259V192.69L218.63 208.475Z" stroke="#01172E"/>
<path d="M155.645 214.69L188.145 199.004V189.69L150.756 206.847L155.645 214.69Z" fill="#01172E"/>
<path d="M150.145 205.867L150.756 206.847M150.756 206.847L155.645 214.69L188.145 199.004V189.69L150.756 206.847Z" stroke="#01172E"/>
</svg>
