<svg width="481" height="132" viewBox="0 0 481 132" fill="none" xmlns="http://www.w3.org/2000/svg">
<path d="M472.145 82C476.011 82 479.145 78.6421 479.145 74.5C479.145 70.3579 476.011 67 472.145 67C468.279 67 465.145 70.3579 465.145 74.5C465.145 78.6421 468.279 82 472.145 82Z" fill="#5E40F1"/>
<path d="M452.969 115.416C452.927 116.688 453.471 117.666 454.604 118.351C457.865 120.3 460.653 119.888 462.969 117.116C463.097 116.956 463.286 116.851 463.496 116.823C463.706 116.796 463.92 116.848 464.093 116.969L465.842 118.216C466.012 118.339 466.126 118.518 466.161 118.718C466.197 118.918 466.151 119.124 466.034 119.293C465.182 120.557 464.02 121.494 462.547 122.106C459.542 123.345 456.502 123.296 453.429 121.959C447.299 119.281 446.584 111.416 450.862 106.793C453.02 104.445 456.966 103.564 460.146 104.2C464.761 105.122 467.094 108.412 467.145 114.07C467.153 114.584 466.889 114.841 466.353 114.841L453.633 114.792C453.208 114.792 452.986 115 452.969 115.416ZM453.276 111.673L462.547 111.649C462.591 111.649 462.634 111.632 462.665 111.602C462.696 111.572 462.713 111.532 462.713 111.49V111.416C462.71 110.39 462.219 109.407 461.347 108.682C460.476 107.958 459.295 107.551 458.065 107.552H457.758C457.147 107.552 456.541 107.653 455.976 107.848C455.412 108.044 454.899 108.331 454.467 108.692C454.035 109.053 453.693 109.482 453.46 109.954C453.227 110.426 453.108 110.931 453.11 111.441V111.514C453.11 111.556 453.127 111.597 453.158 111.627C453.189 111.656 453.232 111.673 453.276 111.673Z" fill="#5E40F1"/>
<path d="M474.685 105.286C474.953 105.131 475.153 104.91 475.287 104.625C475.457 104.253 475.724 103.968 476.09 103.769C477.223 103.155 478.298 102.909 479.315 103.03C479.824 103.09 480.082 103.367 480.091 103.86L480.145 107.413C480.154 107.88 479.917 108.083 479.436 108.022C475.796 107.564 473.904 109.237 473.762 113.041C473.646 116.257 473.641 119.434 473.748 122.572C473.766 122.857 473.628 123 473.334 123H469.6C469.297 123 469.145 122.857 469.145 122.572L469.158 104.145C469.158 103.756 469.359 103.557 469.761 103.549L472.972 103.523C473.383 103.523 473.628 103.722 473.708 104.119L473.869 104.936C473.967 105.429 474.239 105.546 474.685 105.286Z" fill="#5E40F1"/>
<path d="M224.21 0.198077L224.198 47.7184C224.198 48.2797 224.386 48.3499 224.762 47.9289L242.032 28.5146C242.324 28.1845 242.696 28.0194 243.148 28.0194H261.583C262.378 28.0194 262.511 28.3166 261.985 28.9109L241.542 51.9405C241.241 52.2789 241.229 52.6256 241.505 52.9806L263.101 80.6533C263.125 80.6828 263.14 80.7186 263.144 80.7563C263.148 80.794 263.141 80.8319 263.124 80.8658C263.107 80.8997 263.08 80.928 263.047 80.9474C263.014 80.9668 262.976 80.9764 262.938 80.9752L244.051 81C243.516 81 243.089 80.7854 242.772 80.3561L224.712 56.4474C224.386 56.0182 224.223 56.0718 224.223 56.6084L224.198 80.2819C224.198 80.7524 223.96 80.9876 223.483 80.9876H208.948C208.413 80.9876 208.145 80.7235 208.145 80.1952L208.158 0.557115C208.158 0.449808 208.199 0.338425 208.283 0.222864C208.325 0.15454 208.385 0.0980233 208.457 0.0589512C208.53 0.0198791 208.612 -0.000396612 208.697 5.87741e-06L224.21 0.198077Z" fill="#5E40F1"/>
<path d="M55.1169 41.6888H46.9011C46.397 41.6888 46.145 41.4414 46.145 40.9466L46.1702 29.0587C46.1786 28.5968 46.4139 28.3659 46.8759 28.3659L55.3563 28.3535C55.5936 28.3535 55.8212 28.261 55.9889 28.0963C56.1567 27.9316 56.251 27.7082 56.251 27.4753L56.2384 12.6557C56.2384 12.2186 56.461 12 56.9063 12H71.1328C71.5696 12 71.788 12.2103 71.788 12.6309V27.7722C71.788 28.168 71.9854 28.3659 72.3802 28.3659L84.4141 28.3535C84.9014 28.3453 85.145 28.5845 85.145 29.071V40.9837C85.145 41.4538 84.9098 41.6888 84.4394 41.6888H72.607C72.0862 41.6888 71.8216 41.9444 71.8132 42.4558C71.7544 47.9564 71.7418 53.5395 71.7754 59.2052C71.8006 63.9554 73.0985 67.4686 78.0507 68.2726C80.2348 68.6272 81.9612 68.6066 83.2296 68.2108C84.1873 67.9139 84.6662 68.2603 84.6662 69.2499V79.6781C84.6662 80.544 84.2335 81.0759 83.3683 81.2739C70.4397 84.1933 56.0872 78.2926 56.0368 63.8812C56.0116 57.2837 55.9654 50.1419 55.8982 42.4558C55.8982 41.9444 55.6377 41.6888 55.1169 41.6888Z" fill="#5E40F1"/>
<path d="M436.04 13L443.331 13.1228C443.753 13.131 443.956 13.3438 443.939 13.7614C443.889 14.9648 444.018 15.7958 444.323 16.2542L444.075 27.3554C444.059 27.7975 444.274 28.0185 444.72 28.0185H456.5C456.93 28.0185 457.145 28.2314 457.145 28.6571V34.3796C457.145 34.6989 456.98 34.8585 456.649 34.8585L444.745 34.8463C444.299 34.8463 444.071 35.0632 444.063 35.4971C443.972 46.4754 443.972 57.5029 444.063 68.5795C444.08 70.8308 445.58 72.4273 448.564 73.3688C450.978 74.1383 453.677 74.2283 456.661 73.6389C456.984 73.5734 457.145 73.7044 457.145 74.0318V79.6806C457.145 79.9344 457.017 80.0982 456.761 80.1719C452.619 81.3344 448.502 81.2729 444.41 79.9876C438.962 78.2766 436.206 74.2856 436.139 68.0146C436.024 57.3228 436.011 46.5041 436.102 35.5584C436.111 35.0836 435.871 34.8463 435.383 34.8463L426.48 34.8585C426.257 34.8585 426.145 34.748 426.145 34.527V28.3992C426.145 28.1209 426.286 27.9817 426.567 27.9817L435.395 28.0308C435.809 28.0308 436.015 27.8261 436.015 27.4168L436.04 13Z" fill="#5E40F1"/>
<path d="M11.9228 63.8173C15.1045 69.199 23.0965 71.234 28.3108 68.5125C32.755 66.1956 28.8285 62.665 25.9625 61.9907C22.4694 61.1735 19.0647 60.2336 15.7484 59.1712C6.48117 56.2045 0.155744 48.9717 3.23639 39.1277C4.43161 35.2702 7.13351 32.2096 11.342 29.9458C21.796 24.3311 37.174 26.7584 43.8151 37.0927C43.8711 37.1813 43.9088 37.2798 43.9258 37.3823C43.9428 37.4847 43.9388 37.5892 43.9142 37.6896C43.8895 37.7899 43.8446 37.8843 43.782 37.967C43.7195 38.0497 43.6406 38.1192 43.5499 38.1715L33.6262 43.9332C33.2474 44.1539 32.8729 44.1416 32.5025 43.8964C31.8208 43.4469 31.2063 42.9198 30.6592 42.315C28.0709 39.4464 23.4374 38.9683 19.9148 39.9858C16.8973 40.8684 16.064 43.8597 18.5891 45.7844C19.4897 46.4709 20.504 46.9448 21.6319 47.2064C30.6971 49.2536 44.1938 52.1345 45.0776 63.376C45.9362 74.1517 38.4997 80.4773 28.0331 81.6909C17.0488 82.9781 5.90042 80.4282 0.269406 70.5597C0.042145 70.1675 0.126293 69.8529 0.521894 69.6159L10.9128 63.5599C11.342 63.3147 11.6787 63.4005 11.9228 63.8173Z" fill="#5E40F1"/>
<path d="M126.035 75.1674C126.043 74.6177 125.868 74.5604 125.51 74.9951C121.307 80.1141 115.448 82.4274 107.932 81.9352C96.6063 81.1846 88.8424 72.8663 91.7635 61.89C93.2497 56.2789 97.6612 52.6611 104.998 51.0368C110.242 49.8719 115.414 49.4659 120.513 49.8186C123.37 50.0155 125.791 48.3543 125.138 45.3026C124.404 41.8161 121.777 39.9375 117.259 39.6668C111.724 39.3305 107.565 41.4757 104.78 46.1024C104.726 46.191 104.654 46.2684 104.569 46.3301C104.483 46.3918 104.386 46.4366 104.282 46.4618C104.178 46.487 104.07 46.4921 103.964 46.4769C103.859 46.4617 103.757 46.4264 103.666 46.3732L92.6475 39.9621C92.246 39.7242 92.1692 39.4125 92.4169 39.0269C95.4917 34.1458 99.4591 30.8522 104.319 29.1459C119.142 23.953 139.897 27.6323 140.82 46.287C141.161 53.2928 141.234 64.6136 141.037 80.2494C141.029 80.7252 140.777 80.9631 140.282 80.9631H126.701C126.197 80.9631 125.949 80.7211 125.958 80.2371L126.035 75.1674ZM113.928 59.6382C106.843 60.0565 104.012 69.2363 112.493 70.3069C120.026 71.2585 124.305 67.9114 125.33 60.2657C125.343 60.1752 125.336 60.0831 125.309 59.9954C125.282 59.9078 125.236 59.8266 125.175 59.757C125.113 59.6874 125.037 59.631 124.951 59.5915C124.865 59.5519 124.772 59.5301 124.677 59.5275C120.953 59.3962 117.37 59.4331 113.928 59.6382Z" fill="#5E40F1"/>
<path d="M200.481 65.3244C201.122 65.5782 201.299 66.008 201.012 66.6137C196.124 76.9444 187.406 82.0729 174.858 81.9992C156.731 81.8887 144.165 68.4924 146.403 50.958C148.008 38.4335 158.601 28.5366 171.306 27.2105C183.947 25.8844 196.107 30.796 200.646 42.7434C200.797 43.1691 200.662 43.4678 200.241 43.6398L187.6 48.7846C187.387 48.87 187.148 48.8703 186.933 48.7855C186.719 48.7006 186.545 48.5374 186.45 48.3303C183.074 40.8893 174.011 39.072 167.374 43.7994C160.156 48.9443 160.814 62.1933 168.929 66.3067C175.616 69.6957 183.782 67.596 186.778 60.5602C186.85 60.3979 186.985 60.2698 187.155 60.2032C187.325 60.1367 187.517 60.1369 187.688 60.2041L200.481 65.3244Z" fill="#5E40F1"/>
<path d="M277.921 36.5153C282.489 29.7763 289.251 26.4935 297.642 27.0634C311.666 28.0172 317.183 37.655 317.145 50.0428C317.102 62.0507 317.098 72.217 317.132 80.5417C317.132 80.8472 316.974 81 316.657 81H309.241C309.173 81 309.108 80.9739 309.06 80.9274C309.012 80.881 308.984 80.8179 308.984 80.7522C308.839 72.4772 308.848 63.9667 309.01 55.2209C309.241 42.672 306.11 33.121 290.957 34.5456C285.106 35.0907 280.333 39.414 278.37 44.5302C277.695 46.2975 277.352 49.1757 277.344 53.1646C277.327 62.505 277.327 71.7008 277.344 80.7522C277.344 80.9091 277.267 80.9876 277.113 80.9876L269.466 81C269.381 81 269.299 80.9674 269.239 80.9093C269.179 80.8512 269.145 80.7724 269.145 80.6903V28.3145C269.145 28.2192 269.183 28.1279 269.25 28.0605C269.318 27.9931 269.409 27.9553 269.504 27.9553L277.113 28.042C277.293 28.042 277.382 28.1287 277.382 28.3022L277.28 36.3295C277.271 37.0892 277.485 37.1512 277.921 36.5153Z" fill="#5E40F1"/>
<path d="M333.16 57.2728C334.225 65.4527 338.17 70.8785 344.994 73.5501C354.686 77.3473 364.707 73.6243 369.565 64.657C369.7 64.4179 369.882 64.3725 370.11 64.521L375.362 67.9224C375.476 67.9949 375.557 68.1084 375.588 68.2395C375.618 68.3707 375.596 68.5095 375.527 68.6274C368.385 81.1322 353.81 85.1643 340.808 79.4623C328.06 73.8593 322.897 60.1301 326.043 46.9821C328.124 38.2622 335.379 30.371 344.627 27.9591C356.157 24.9535 368.626 29.0351 374.043 39.8824C376.52 44.8629 377.514 50.301 377.023 56.1968C376.99 56.6833 376.719 56.9266 376.212 56.9266L333.477 56.9142C333.432 56.9136 333.387 56.9227 333.346 56.9411C333.304 56.9594 333.268 56.9865 333.238 57.0204C333.208 57.0543 333.185 57.0944 333.172 57.1379C333.158 57.1815 333.154 57.2275 333.16 57.2728ZM334.009 50.4454L368.842 50.198C368.88 50.1949 368.915 50.1779 368.941 50.1503C368.967 50.1228 368.981 50.0869 368.981 50.0496V50C368.95 45.7496 367.084 41.6862 363.794 38.7033C360.504 35.7205 356.06 34.0625 351.438 34.0939H351.159C346.538 34.1282 342.119 35.8492 338.874 38.8784C335.63 41.9076 333.825 45.9971 333.857 50.2474V50.297C333.857 50.3363 333.873 50.3741 333.902 50.4019C333.93 50.4297 333.969 50.4454 334.009 50.4454Z" fill="#5E40F1"/>
<path d="M407.591 81.685C395.232 83.2719 386.43 78.8625 381.186 68.4565C381.107 68.316 381.142 68.2086 381.29 68.1342L387.813 64.8116C387.842 64.7954 387.875 64.7855 387.909 64.7823C387.943 64.7792 387.978 64.783 388.011 64.7935C388.044 64.8039 388.075 64.8209 388.101 64.8432C388.128 64.8655 388.15 64.8927 388.165 64.9232C391.262 71.0312 395.645 74.3786 401.316 74.9654C406.16 75.4778 409.991 74.1471 412.809 70.9733C415.366 68.0887 415.462 65.3033 413.096 62.6171C411.522 60.8236 408.687 59.4433 404.59 58.4763C395.719 56.3686 384.395 54.5585 383.325 43.6608C382.529 35.4782 389.979 29.3289 397.885 27.432C409.148 25.6467 417.232 29.395 422.137 38.6769C422.381 39.1397 422.263 39.4951 421.785 39.7431L416.358 42.5574C415.862 42.8053 415.471 42.702 415.184 42.2474C414.714 41.5118 414.257 40.7969 413.814 40.1026C411.144 35.9865 407.347 33.945 402.425 33.9781C398.537 34.0029 395.475 35.3956 393.24 38.1562C389.379 42.9417 392.627 47.6901 398.224 48.9919C405.047 50.5788 412.535 51.7194 417.897 56.2942C423.185 60.8153 424.477 66.039 421.772 71.9651C419.389 77.1805 414.662 80.4204 407.591 81.685Z" fill="#5E40F1"/>
<path d="M98.145 95.2452L98.0644 122.352C98.0644 122.784 97.7902 123 97.2418 123H94.7902C94.3708 123.008 94.1611 122.843 94.1611 122.505L94.145 111.865L94.1934 95.0294C94.1934 94.6062 94.4514 94.3353 94.9676 94.2168C97.0751 93.7259 98.1343 94.0687 98.145 95.2452Z" fill="#5E40F1"/>
<path d="M373.169 108.652C375.279 114.575 373.968 118.975 369.236 121.853C366.21 123.688 362.873 123.321 359.226 120.752C358.982 120.577 358.827 120.635 358.759 120.927L358.52 121.941C358.427 122.316 358.188 122.504 357.801 122.504L354.738 122.491C354.593 122.488 354.455 122.428 354.353 122.326C354.252 122.223 354.195 122.084 354.195 121.941L354.145 97.0283L354.183 94.8386C354.191 94.2964 354.469 94.0211 355.015 94.0127L357.7 94.0002C358.238 93.9919 358.507 94.2546 358.507 94.7885V104.999C358.507 105.474 358.713 105.587 359.125 105.337C364.899 101.758 369.58 102.863 373.169 108.652ZM369.954 113.107C369.954 111.574 369.341 110.103 368.248 109.019C367.156 107.935 365.675 107.326 364.13 107.326C362.585 107.326 361.104 107.935 360.011 109.019C358.919 110.103 358.305 111.574 358.305 113.107C358.305 114.64 358.919 116.11 360.011 117.194C361.104 118.279 362.585 118.888 364.13 118.888C365.675 118.888 367.156 118.279 368.248 117.194C369.341 116.11 369.954 114.64 369.954 113.107Z" fill="#5E40F1"/>
<path d="M406.835 94H403.455C403.284 94 403.145 94.1483 403.145 94.3313V122.669C403.145 122.852 403.284 123 403.455 123H406.835C407.006 123 407.145 122.852 407.145 122.669V94.3313C407.145 94.1483 407.006 94 406.835 94Z" fill="#5E40F1"/>
<path d="M0.14502 96C3.32776 96 6.51474 96.0659 9.70599 96.1976C15.4673 96.4198 19.6074 98.9588 22.1263 103.815C25.7388 114.061 19.4074 123.086 8.44227 122.999C5.89778 122.975 3.35754 122.921 0.821563 122.839C0.387553 122.822 0.170536 122.604 0.170536 122.185L0.14502 96ZM3.22139 99.2839V119.58C3.22139 119.681 3.26307 119.779 3.33728 119.85C3.41149 119.922 3.51215 119.962 3.6171 119.962H9.42516C10.8232 119.962 12.2076 119.701 13.4992 119.193C14.7909 118.685 15.9645 117.94 16.953 117.001C17.9416 116.062 18.7258 114.947 19.2608 113.721C19.7958 112.494 20.0712 111.179 20.0712 109.852V109.012C20.0712 107.684 19.7958 106.369 19.2608 105.143C18.7258 103.916 17.9416 102.801 16.953 101.863C15.9645 100.924 14.7909 100.179 13.4992 99.6708C12.2076 99.1627 10.8232 98.9012 9.42516 98.9012H3.6171C3.51215 98.9012 3.41149 98.9415 3.33728 99.0133C3.26307 99.085 3.22139 99.1824 3.22139 99.2839Z" fill="#5E40F1"/>
<path d="M28.145 100C29.2496 100 30.145 99.1045 30.145 98C30.145 96.8954 29.2496 96 28.145 96C27.0404 96 26.145 96.8954 26.145 98C26.145 99.1045 27.0404 100 28.145 100Z" fill="#5E40F1"/>
<path d="M60.145 97.9838C59.7871 99.1599 59.0446 99.832 57.9174 100C56.6989 99.5876 56.1087 98.8544 56.1468 97.8005C56.1563 97.4806 56.2481 97.1686 56.4134 96.8948C56.5786 96.6211 56.8117 96.3947 57.0899 96.2379C57.3681 96.0812 57.6821 95.9992 58.0012 96C58.3203 96.0008 58.6339 96.0844 58.9113 96.2426C59.5282 96.5939 59.9394 97.1742 60.145 97.9838Z" fill="#5E40F1"/>
<path d="M263.049 117.025C262.897 117.43 262.855 117.814 262.922 118.178C262.998 118.599 263.251 118.81 263.681 118.81L274.487 118.76C274.849 118.76 275.035 118.942 275.043 119.306L275.144 122.343C275.161 122.781 274.946 123 274.5 123H258.777C258.381 123 258.179 122.806 258.17 122.417L258.145 120.136L258.158 96.4714C258.158 96.1491 258.318 95.992 258.638 96.0003L262.493 96.0251C262.821 96.0334 262.986 96.1987 262.986 96.521L263.049 117.025Z" fill="#5E40F1"/>
<path d="M67.3213 99.0048C68.3684 99.4036 68.769 101.06 68.523 103.974C68.4834 104.373 68.6619 104.576 69.0585 104.584L72.0333 104.609C72.4061 104.617 72.7036 104.772 72.9257 105.073C73.3065 105.586 73.1914 106.233 72.5806 107.014L69.1537 107.087C68.6698 107.104 68.4279 107.36 68.4279 107.857L68.4398 118.332C68.4398 118.837 68.6262 119.256 68.999 119.59C69.9113 120.395 70.9663 120.689 72.1642 120.469C72.2676 120.448 72.3742 120.449 72.4772 120.472C72.5803 120.494 72.6777 120.539 72.7636 120.602C72.8494 120.664 72.9218 120.745 72.9762 120.837C73.0307 120.93 73.0662 121.033 73.0804 121.14L73.128 121.58C73.2073 122.19 72.9535 122.569 72.3664 122.715C68.1661 123.753 65.6911 121.946 65.6435 117.429C65.6038 114.083 65.5999 110.827 65.6316 107.661C65.6316 107.23 65.4214 107.014 65.0009 107.014L63.2042 107.026C62.5141 107.034 62.165 106.684 62.1571 105.976L62.1452 105.512C62.1372 104.902 62.4307 104.593 63.0257 104.584H65.0248C65.4214 104.576 65.5959 104.373 65.5483 103.974C65.1754 100.555 65.7665 98.899 67.3213 99.0048Z" fill="#5E40F1"/>
<path d="M42.5813 103C44.987 103.617 47.0161 104.741 48.6684 106.373C49.165 106.863 49.3362 106.77 49.1821 106.094L48.8354 104.522C48.8126 104.416 48.8133 104.307 48.8373 104.202C48.8612 104.097 48.908 103.998 48.9742 103.914C49.0403 103.829 49.1243 103.76 49.2202 103.712C49.3161 103.663 49.4214 103.637 49.5288 103.634L51.2111 103.583C51.8104 103.558 52.1101 103.837 52.1101 104.42C52.17 114.481 52.1529 120.969 52.0587 123.886C51.9303 127.88 49.1564 130.645 45.2781 131.608C40.3982 132.817 36.4771 131.228 33.5149 126.84C33.2752 126.477 33.2709 126.109 33.5021 125.737C33.7589 125.357 34.0842 125.048 34.478 124.811C34.8719 124.575 35.2315 124.613 35.5568 124.925C36.597 125.876 37.1492 127.094 38.3435 127.905C42.1704 130.505 48.5143 129.414 49.0023 124.088C49.1478 122.482 49.1478 120.973 49.0023 119.561C48.9424 119.003 48.7711 118.965 48.4886 119.447C47.6753 120.834 46.8063 121.645 45.8817 121.882C37.1492 124.08 32.907 120.352 33.1553 110.697C34.5422 105.895 37.6842 103.33 42.5813 103ZM42.5428 120.157C44.273 120.157 45.9323 119.4 47.1558 118.051C48.3792 116.703 49.0665 114.874 49.0665 112.967C49.0665 111.06 48.3792 109.231 47.1558 107.883C45.9323 106.535 44.273 105.777 42.5428 105.777C40.8126 105.777 39.1533 106.535 37.9298 107.883C36.7064 109.231 36.0191 111.06 36.0191 112.967C36.0191 114.874 36.7064 116.703 37.9298 118.051C39.1533 119.4 40.8126 120.157 42.5428 120.157Z" fill="#5E40F1"/>
<path d="M90.6963 108.379C91.0973 112.866 91.2295 117.281 91.093 121.624C91.0674 122.504 90.274 122.839 88.7128 122.627C88.5764 122.609 88.4452 122.564 88.328 122.492C88.2108 122.421 88.1102 122.326 88.0328 122.213C87.9554 122.1 87.903 121.972 87.879 121.838C87.8551 121.703 87.8601 121.566 87.8938 121.433C87.9791 121.111 87.9407 120.807 87.7786 120.519C87.5483 120.096 87.2753 120.066 86.9596 120.43C82.9158 125.065 74.15 123.313 75.2377 116.125C75.9543 111.401 82.7239 111.439 86.4478 111.719C87.9151 111.829 88.4142 111.19 87.945 109.801L87.4203 108.214C86.9938 106.961 86.1321 106.195 84.8353 105.915C81.6361 105.221 79.337 106.326 77.9378 109.23C77.9037 109.304 77.8527 109.37 77.7888 109.422C77.7249 109.474 77.6498 109.51 77.5693 109.529C77.4889 109.547 77.4053 109.547 77.3249 109.528C77.2446 109.509 77.1697 109.472 77.1061 109.42L75.7368 108.328C75.598 108.216 75.5047 108.058 75.4742 107.883C75.4436 107.708 75.4778 107.528 75.5704 107.376L76.4534 105.89C79.6782 102.817 83.3211 102.195 87.3819 104.023C89.0455 104.777 90.1503 106.229 90.6963 108.379ZM87.6379 116.532C88.508 114.796 87.9706 113.987 86.0255 114.106C83.4661 114.258 78.6161 113.293 78.2194 116.938C78.1404 117.658 78.3292 118.383 78.7507 118.976C79.1722 119.57 79.7975 119.992 80.51 120.163C83.6751 120.908 86.051 119.698 87.6379 116.532Z" fill="#5E40F1"/>
<path d="M111.276 106.934C112.016 105.903 113.002 105.07 114.233 104.433C117.552 103.394 120.212 104.224 122.215 106.922C122.713 107.599 122.666 108.231 122.074 108.819L121.782 109.121C121.198 109.701 120.711 109.629 120.321 108.904C118.802 106.137 115.062 105.509 113.578 108.36C113.448 108.612 113.372 108.89 113.355 109.175C113.338 109.46 113.381 109.745 113.481 110.011C113.581 110.278 113.735 110.518 113.934 110.717C114.132 110.916 114.37 111.068 114.63 111.163C115.931 111.638 117.314 112.081 118.779 112.492C122.963 113.664 124.879 118.461 121.163 121.445C117.446 124.429 112.526 122.871 110.236 118.872C110.15 118.716 110.124 118.533 110.163 118.358C110.202 118.183 110.303 118.03 110.446 117.929L111.79 116.987C112.11 116.761 112.347 116.83 112.503 117.192C113.687 119.81 115.557 120.805 118.113 120.176C119.312 119.887 120.014 119.113 120.216 117.857C120.304 117.331 120.203 116.79 119.931 116.336C119.66 115.882 119.238 115.546 118.744 115.392C116.558 114.703 113.473 114.099 111.954 112.613C110.411 111.091 110.185 109.198 111.276 106.934Z" fill="#5E40F1"/>
<path d="M163.327 110.019L162.28 110.152C161.834 110.209 161.506 110.047 161.296 109.668C159.866 107.098 157.709 106.096 154.825 106.662C147.231 108.153 147.281 118.527 154.535 120.212C157.663 120.947 159.942 119.881 161.372 117.012C161.557 116.657 161.843 116.532 162.23 116.637L163.554 117.012C164.109 117.166 164.273 117.501 164.046 118.018C160.867 125.169 150.006 124.272 146.991 117.558C145.898 115.118 145.864 112.298 146.89 109.098C150.111 104.71 154.068 103.155 158.761 104.432C160.022 104.771 161.132 105.373 162.091 106.238C163.823 107.789 164.235 109.049 163.327 110.019Z" fill="#5E40F1"/>
<path d="M182.129 110.314C176.061 100.842 164.792 110.976 170.758 117.68C174.361 121.715 178.139 121.431 182.091 116.825C182.541 116.295 183.034 116.255 183.569 116.705C184.037 117.09 184.22 117.66 184.118 118.414C184.076 118.787 183.896 119.136 183.608 119.401C179.316 123.437 174.905 124.078 170.375 121.326C166.959 119.256 165.612 116.019 166.334 111.614C168.119 104.513 176.176 101.636 182.193 106.21C182.915 106.755 183.472 107.409 183.863 108.172C184.177 108.781 184.186 109.275 183.888 109.652C183.565 110.061 182.979 110.282 182.129 110.314Z" fill="#5E40F1"/>
<path d="M204.069 108.321L205.124 113.104C205.153 113.236 205.152 113.373 205.12 113.505C205.088 113.636 205.026 113.759 204.94 113.864C204.853 113.968 204.744 114.053 204.62 114.11C204.496 114.168 204.36 114.197 204.223 114.196L190.023 114.183C189.302 114.183 189.061 114.517 189.302 115.185C191.426 121.174 198.417 122.202 202.035 116.924C202.082 116.852 202.146 116.793 202.22 116.749C202.295 116.705 202.379 116.678 202.466 116.669C202.553 116.661 202.641 116.671 202.725 116.7C202.808 116.728 202.885 116.775 202.949 116.835L203.94 117.787C204.056 117.897 204.128 118.044 204.145 118.202C204.161 118.36 204.121 118.518 204.03 118.649C201.301 122.811 196.254 124.182 191.581 121.91C187.126 119.736 185.409 115.845 186.431 110.237C189.379 101.989 199.872 100.048 204.069 108.321ZM189.688 111.709L201.507 111.658C201.544 111.658 201.58 111.643 201.607 111.617C201.633 111.591 201.648 111.555 201.648 111.518V111.455C201.645 110.708 201.487 109.97 201.183 109.281C200.879 108.593 200.435 107.968 199.877 107.442C199.319 106.917 198.657 106.501 197.929 106.218C197.201 105.936 196.422 105.792 195.636 105.796H195.507C193.92 105.803 192.4 106.408 191.282 107.479C190.164 108.55 189.54 109.998 189.546 111.506V111.569C189.546 111.606 189.561 111.642 189.588 111.668C189.614 111.694 189.65 111.709 189.688 111.709Z" fill="#5E40F1"/>
<path d="M220.072 115.338C220.68 121.564 217.505 123.996 210.545 122.633C208.6 122.25 207.16 120.947 206.225 118.724C206.054 118.306 206.157 117.974 206.534 117.727L207.704 116.935C208.192 116.612 208.548 116.722 208.771 117.267C210.134 120.64 216.099 122.084 217.14 117.932C217.457 116.663 216.939 115.773 215.585 115.262C212.975 114.252 208.964 113.869 207.37 111.416C206.53 110.113 206.354 108.58 206.842 106.817C210.922 101.946 215.105 101.737 219.39 106.191C219.947 106.77 219.952 107.358 219.403 107.954L218.837 108.567C218.732 108.685 218.6 108.774 218.451 108.828C218.302 108.882 218.142 108.898 217.984 108.875C217.827 108.852 217.677 108.791 217.548 108.698C217.418 108.604 217.314 108.48 217.243 108.337C215.906 105.565 212.499 104.837 210.275 107.111C209.991 107.401 209.789 107.762 209.692 108.155C209.595 108.548 209.605 108.96 209.722 109.349C209.838 109.737 210.057 110.087 210.356 110.363C210.654 110.639 211.021 110.83 211.419 110.918C213.099 111.293 214.753 111.761 216.382 112.323C217.787 112.817 219.017 113.822 220.072 115.338Z" fill="#5E40F1"/>
<path d="M235.798 119.378C232.148 124.474 225.039 124.157 222.254 118.653C222.051 118.263 222.131 117.941 222.496 117.687L224.111 116.543C224.416 116.543 224.717 116.823 225.014 117.382C226.4 119.962 229.872 121.665 232.263 119.276C232.848 118.7 233.136 118.073 233.128 117.395C233.121 116.825 232.927 116.274 232.576 115.824C232.225 115.374 231.735 115.051 231.182 114.904C229.732 114.522 228.227 114.077 226.667 113.569C216.354 110.252 227.71 96.8932 235.442 106.299C235.544 106.423 235.62 106.567 235.666 106.721C235.711 106.875 235.726 107.037 235.708 107.197C235.69 107.357 235.641 107.511 235.562 107.652C235.484 107.792 235.378 107.916 235.251 108.015C234.861 108.311 234.433 108.523 233.967 108.65C233.56 108.76 233.255 108.625 233.051 108.243C231.746 105.786 229.834 105.087 227.316 106.146C225.858 106.765 225.357 107.892 225.815 109.527C225.938 109.961 226.192 110.347 226.542 110.633C226.892 110.919 227.322 111.092 227.774 111.129C229.427 111.247 231.021 111.662 232.555 112.374C235.692 113.832 236.773 116.166 235.798 119.378Z" fill="#5E40F1"/>
<path d="M289.729 106.11C290.344 107.518 291.083 108.698 291.083 110.287C291.091 114.195 291.112 118.024 291.145 121.772C291.153 122.205 290.931 122.422 290.48 122.422L287.365 122.41C286.995 122.41 286.823 122.225 286.847 121.856L286.897 121.23C286.938 120.732 286.757 120.64 286.355 120.953C283.005 123.569 279.828 123.678 276.824 121.278C275.412 120.154 274.891 118.381 275.26 115.957C277.76 110.913 281.614 112.346 286.133 111.659C286.601 111.587 286.868 111.322 286.933 110.865C287.155 109.308 286.461 108.277 284.852 107.771C282.398 107.001 280.44 107.715 278.979 109.914C278.659 110.387 278.269 110.456 277.809 110.119L276.048 108.818C275.597 108.489 275.543 108.108 275.888 107.675C279.41 103.136 285.345 103.028 289.729 106.11ZM286.995 115.801C287.159 115.038 286.847 114.649 286.059 114.633C284.171 114.577 282.455 114.705 280.912 115.018C280.472 115.106 280.078 115.344 279.8 115.688C279.523 116.031 279.38 116.46 279.397 116.896C279.496 119.665 282.402 119.689 284.372 119.075C285.735 118.65 286.609 117.558 286.995 115.801Z" fill="#5E40F1"/>
<path d="M335.205 116.468L335.23 104.221C335.23 103.763 335.443 103.533 335.869 103.533L338.441 103.546C338.867 103.546 339.133 103.767 339.237 104.208C339.294 104.442 339.322 104.676 339.322 104.91C339.33 105.282 339.467 105.356 339.732 105.13L341.809 103.468C342.662 103.018 343.451 102.892 344.175 103.092C344.577 103.195 344.831 103.464 344.935 103.897C345.193 104.944 345.213 106.1 344.996 107.364C344.915 107.832 344.654 108.039 344.211 107.988C340.952 107.65 339.298 109.308 339.25 112.961C339.209 116.217 339.225 119.39 339.298 122.481C339.306 122.827 339.149 123 338.827 123H335.592C335.294 123 335.145 122.84 335.145 122.52L335.205 116.468Z" fill="#5E40F1"/>
<path d="M421.715 120.945C421.559 121.042 421.442 121.175 421.364 121.345C421.24 121.636 421.041 121.863 420.768 122.024C416.887 124.316 410.609 122.546 411.182 116.98C411.673 112.129 417.004 111.644 420.71 111.96C420.914 111.977 421.12 111.949 421.313 111.878C421.506 111.806 421.683 111.692 421.83 111.544C421.977 111.396 422.092 111.217 422.167 111.018C422.242 110.82 422.275 110.608 422.265 110.395C422.101 106.976 417.635 106.964 415.881 108.771C415.476 109.183 415.063 109.583 414.642 109.971C414.338 110.254 413.999 110.319 413.625 110.165C412.994 109.906 412.429 109.547 411.93 109.086C411.626 108.803 411.56 108.467 411.731 108.079C412.308 106.762 413.415 105.723 415.051 104.963C417.951 103.621 420.729 103.682 423.387 105.145C425.094 106.083 425.979 107.659 426.041 109.874C426.15 113.908 426.173 117.942 426.111 121.976C426.103 122.396 425.897 122.606 425.491 122.606H422.943C422.538 122.606 422.284 122.404 422.183 122C422.12 121.774 422.12 121.551 422.183 121.333C422.323 120.816 422.167 120.686 421.715 120.945ZM422.183 116.507C422.565 115.415 422.198 114.829 421.084 114.749C419.463 114.635 417.974 114.789 416.618 115.209C416.219 115.329 415.865 115.574 415.605 115.91C415.346 116.247 415.193 116.659 415.168 117.089C415.083 118.399 415.64 119.171 416.84 119.405C419.537 119.922 421.318 118.956 422.183 116.507Z" fill="#5E40F1"/>
<path d="M323.892 114.838L317.671 114.85C317.021 114.85 316.793 115.152 316.987 115.756C318.469 120.321 324.158 120.602 327.135 117.053C327.254 116.908 327.427 116.814 327.619 116.791C327.811 116.768 328.005 116.818 328.161 116.931L330.176 118.363C330.522 118.607 330.564 118.893 330.303 119.219C325.45 125.265 316.113 123.613 313.136 117.433C311.218 113.476 312.084 109.686 315.733 106.064C322.828 101.353 332.038 104.999 331.075 114.031C331.033 114.447 330.792 114.659 330.353 114.667L323.892 114.838ZM317.532 111.693L326.654 111.62C326.697 111.62 326.739 111.603 326.77 111.573C326.801 111.543 326.818 111.503 326.818 111.461V111.363C326.81 110.335 326.318 109.353 325.451 108.633C324.584 107.912 323.413 107.512 322.194 107.52H321.941C321.336 107.524 320.738 107.629 320.181 107.828C319.624 108.027 319.118 108.316 318.694 108.68C318.269 109.044 317.933 109.475 317.705 109.948C317.478 110.42 317.363 110.926 317.367 111.436V111.534C317.367 111.576 317.385 111.617 317.415 111.647C317.446 111.676 317.488 111.693 317.532 111.693Z" fill="#5E40F1"/>
<path d="M26.943 104.043C27.7664 103.96 28.478 103.997 29.0777 104.157C29.5758 104.291 29.8096 104.576 29.7791 105.012C29.7181 105.918 29.8401 106.572 30.145 106.974L29.9621 122.244C29.9519 122.68 29.6774 122.911 29.1387 122.936L26.9125 122.999C26.4042 123.016 26.1501 122.814 26.1501 122.395C26.1399 116.634 26.145 110.727 26.1654 104.672C26.1654 104.446 26.2263 104.295 26.3483 104.22C26.4906 104.127 26.6888 104.069 26.943 104.043Z" fill="#5E40F1"/>
<path d="M59.6072 104H56.6828C56.3858 104 56.145 104.182 56.145 104.406V122.594C56.145 122.818 56.3858 123 56.6828 123H59.6072C59.9042 123 60.145 122.818 60.145 122.594V104.406C60.145 104.182 59.9042 104 59.6072 104Z" fill="#5E40F1"/>
<path d="M127.626 104L128.66 104.22C129.077 104.301 129.294 104.546 129.311 104.953C129.425 108.018 128.481 115.602 130.242 118.167C133.458 122.82 139.967 119.803 140.082 114.405C140.15 110.978 140.146 107.733 140.069 104.672C140.061 104.354 140.222 104.191 140.554 104.183L142.481 104.159C142.898 104.159 143.107 104.358 143.107 104.757L143.145 112.72V121.599C143.145 121.832 143.048 122.055 142.876 122.22C142.704 122.385 142.47 122.478 142.226 122.478H140.631C140.078 122.478 139.852 122.217 139.954 121.696L140.159 120.634C140.303 119.885 140.091 119.779 139.52 120.316C135.785 123.899 131.914 123.895 127.907 120.304C125.418 118.081 126.311 108.482 126.26 104.977C126.252 104.537 126.473 104.265 126.924 104.159L127.626 104Z" fill="#5E40F1"/>
<path d="M312.706 105.518L300.357 131.44C300.184 131.821 299.882 132.008 299.451 132L296.128 131.975C295.585 131.975 295.425 131.738 295.649 131.266L300.357 121.136C300.546 120.737 300.538 120.343 300.331 119.953L292.145 104.261L296.568 104.174C297.05 104.165 297.395 104.369 297.602 104.783L302.826 115.486C302.854 115.538 302.896 115.581 302.949 115.611C303.001 115.641 303.061 115.656 303.121 115.655C303.182 115.654 303.241 115.636 303.292 115.604C303.343 115.572 303.383 115.527 303.408 115.473L308.167 104.759C308.348 104.369 308.659 104.153 309.098 104.111C312.685 103.763 313.887 104.232 312.706 105.518Z" fill="#5E40F1"/>
<path d="M377.6 104.001C377.94 103.993 378.243 104.047 378.509 104.163C378.725 104.262 378.912 104.474 379.069 104.798C380.805 108.327 382.474 111.877 384.077 115.447C384.101 115.506 384.143 115.557 384.196 115.592C384.249 115.627 384.312 115.646 384.375 115.646C384.439 115.646 384.502 115.627 384.555 115.592C384.608 115.557 384.65 115.506 384.674 115.447L389.42 104.312C389.495 104.13 389.628 104.042 389.819 104.051L393.966 104.113C393.996 104.112 394.026 104.119 394.052 104.133C394.078 104.147 394.101 104.167 394.117 104.192C394.133 104.217 394.143 104.246 394.145 104.276C394.147 104.305 394.141 104.335 394.128 104.362L381.81 131.303C381.602 131.768 381.241 132 380.726 132L377.649 131.963C377.135 131.963 376.985 131.726 377.201 131.253L381.747 121.127C381.922 120.728 381.913 120.338 381.722 119.956L375.146 106.803L374.237 104.86C374.029 104.412 374.174 104.175 374.673 104.15L377.6 104.001Z" fill="#5E40F1"/>
<path d="M433.118 104.252L438.647 115.427C438.669 115.476 438.706 115.517 438.753 115.545C438.799 115.573 438.855 115.587 438.911 115.586C438.968 115.585 439.023 115.568 439.072 115.537C439.12 115.507 439.158 115.465 439.182 115.415L444.175 104.314C444.254 104.14 444.393 104.053 444.594 104.053L448.959 104.102C448.991 104.105 449.021 104.114 449.049 104.129C449.076 104.144 449.099 104.164 449.115 104.189C449.132 104.213 449.142 104.241 449.144 104.269C449.147 104.297 449.141 104.325 449.129 104.351L436.333 130.95C436.168 131.289 435.898 131.521 435.523 131.645C434.399 132.026 432.944 132.1 431.157 131.868L436.163 121.09C436.346 120.701 436.338 120.316 436.137 119.935L428.243 104.984C428.034 104.578 428.16 104.33 428.622 104.239C430.208 103.916 431.706 103.92 433.118 104.252Z" fill="#5E40F1"/>
<path d="M245.004 119.848C245.516 122.955 244.634 125.567 242.359 127.682C242.141 127.887 241.862 128 241.575 128C241.287 128 241.008 127.887 240.79 127.682L240.538 127.445C240.478 127.387 240.429 127.316 240.396 127.237C240.362 127.157 240.345 127.07 240.345 126.983C240.345 126.895 240.362 126.808 240.396 126.729C240.429 126.649 240.478 126.578 240.538 126.52C241.958 125.112 242.71 124.067 242.794 123.384C242.848 122.934 242.668 122.713 242.256 122.722C241.149 122.73 240.447 122.222 240.149 121.197C240.011 117.474 243.573 116.974 245.004 119.848Z" fill="#5E40F1"/>
</svg>
