<svg width="267" height="94" viewBox="0 0 267 94" fill="none" xmlns="http://www.w3.org/2000/svg">
<path d="M266 57.3627C265.907 57.0289 265.877 56.7034 265.909 56.3863C265.911 56.3671 265.908 56.3478 265.902 56.3296C265.896 56.3114 265.886 56.2948 265.873 56.2808C265.86 56.2668 265.845 56.2558 265.827 56.2484C265.81 56.241 265.791 56.2375 265.772 56.238C265.173 56.2436 264.715 56.4497 264.398 56.8563C264.303 56.9794 264.261 56.9636 264.27 56.8088L264.29 56.5178C264.292 56.494 264.288 56.4701 264.28 56.4476C264.271 56.4251 264.259 56.4045 264.242 56.3869C264.225 56.3694 264.205 56.3554 264.182 56.3456C264.16 56.3359 264.135 56.3307 264.111 56.3304H263.274C263.164 56.3304 263.109 56.3845 263.109 56.4926L263.115 58.8903" stroke="#5E519F" stroke-width="2"/>
<path d="M262.19 58.9799C262.068 57.8664 261.795 56.8005 260.745 56.4312C259.242 55.9015 258.094 56.3305 257.299 57.7181" stroke="#5E519F" stroke-width="2"/>
<path d="M256.872 57.2872L257.279 56.4031C257.3 56.3583 257.286 56.3359 257.236 56.3359L256.101 56.3303C256.063 56.3285 256.037 56.3453 256.021 56.3807L254.67 59.3994C254.662 59.4175 254.649 59.433 254.633 59.444C254.616 59.455 254.597 59.461 254.577 59.4613C254.557 59.4616 254.537 59.4562 254.521 59.4457C254.504 59.4352 254.49 59.4201 254.482 59.4022L253.048 56.3835C253.031 56.3481 253.003 56.3303 252.966 56.3303L251.745 56.3331C251.686 56.3331 251.67 56.3592 251.697 56.4115L252.863 58.714" stroke="#5E519F" stroke-width="2"/>
<path d="M251.233 59.0582C251.491 57.3647 250.905 56.4321 249.477 56.2605C248.36 56.1262 247.532 56.4955 246.993 57.3684C246.936 57.4598 246.954 57.5344 247.047 57.5922L247.616 57.9419C247.652 57.9646 247.696 57.9726 247.738 57.9642C247.78 57.9559 247.817 57.9318 247.841 57.8972C248.264 57.3059 248.851 57.1185 249.602 57.3348C249.895 57.4216 250.146 57.7041 250.117 58.0175C250.112 58.0701 250.097 58.1211 250.071 58.1676C250.046 58.2141 250.011 58.2551 249.969 58.288C249.927 58.3209 249.879 58.3452 249.827 58.3592C249.775 58.3733 249.721 58.377 249.668 58.37C248.865 58.2637 248.096 58.3914 247.36 58.7533" stroke="#5E519F" stroke-width="2"/>
<path d="M246.071 59.0022L246.066 53.7117C246.066 53.6669 246.044 53.6455 246 53.6473L244.976 53.6753C244.925 53.6772 244.899 53.7033 244.899 53.7536L244.902 58.9098" stroke="#5E519F" stroke-width="2"/>
<path d="M241.203 59.1617L242.486 56.4032C242.507 56.3603 242.493 56.3379 242.444 56.336L241.305 56.3276C241.267 56.3276 241.241 56.3444 241.226 56.378L239.869 59.4191C239.861 59.4352 239.849 59.4488 239.834 59.4583C239.819 59.4679 239.801 59.473 239.783 59.473C239.765 59.473 239.748 59.4679 239.732 59.4583C239.717 59.4488 239.705 59.4352 239.698 59.4191L238.301 56.4927C238.25 56.3845 238.163 56.3304 238.042 56.3304L237.077 56.3332C236.946 56.3332 236.908 56.3911 236.963 56.5067L237.239 57.0858" stroke="#5E519F" stroke-width="2"/>
<path d="M236.739 57.8663C236.042 56.2352 234.218 55.726 232.823 56.8955C232.736 56.9682 232.693 56.9477 232.693 56.8339V53.8431C232.693 53.7723 232.656 53.7359 232.582 53.734L231.643 53.7256C231.572 53.7256 231.537 53.7602 231.537 53.8292L231.532 59.5421" stroke="#5E519F" stroke-width="2"/>
<path d="M229.281 57.3739L229.207 56.3611C229.204 56.3283 229.189 56.2977 229.165 56.2754C229.141 56.2531 229.109 56.2408 229.076 56.2408C228.465 56.2446 228.004 56.4535 227.693 56.8675C227.595 56.9981 227.552 56.9822 227.565 56.82L227.594 56.4898C227.601 56.3854 227.553 56.3332 227.449 56.3332L226.569 56.3304C226.547 56.3304 226.526 56.3346 226.505 56.3429C226.485 56.3512 226.466 56.3634 226.451 56.3787C226.435 56.394 226.423 56.4122 226.414 56.4323C226.406 56.4523 226.402 56.4738 226.402 56.4954L226.41 57.6341" stroke="#5E519F" stroke-width="2"/>
<path d="M225.414 57.4186C224.896 56.5476 224.046 56.1559 222.862 56.2436" stroke="#5E519F" stroke-width="2"/>
<path d="M205.172 49.6299L207.196 49.5683C207.292 49.5665 207.311 49.5273 207.252 49.4508L201.402 41.9753C201.332 41.8858 201.335 41.7991 201.411 41.7152L207.09 35.3532C207.103 35.3392 207.112 35.3218 207.115 35.3031C207.118 35.2843 207.115 35.265 207.107 35.2476C207.099 35.2301 207.086 35.2152 207.069 35.2046C207.053 35.1941 207.033 35.1883 207.013 35.1881L201.843 35.1937C201.745 35.1937 201.662 35.231 201.596 35.3056L196.804 40.6492C196.687 40.7798 196.628 40.7583 196.628 40.5849V27.6511C196.628 27.6318 196.62 27.6133 196.606 27.5996C196.592 27.586 196.574 27.5783 196.554 27.5783H192.516C192.414 27.5783 192.363 27.6287 192.363 27.7294L192.357 37.8879" stroke="#958EB3" stroke-width="2"/>
<path d="M189.819 38.0921C189.06 36.8518 188.006 35.9677 186.655 35.4398C184.916 34.7609 183.079 34.6583 181.144 35.1321" stroke="#958EB3" stroke-width="2"/>
<path d="M69.1515 1.5155C65.2079 0.431855 61.5753 1.05668 58.2539 3.38997C56.2072 4.82426 54.6802 6.59428 53.6729 8.70003C52.7377 10.6547 51.8348 12.6094 50.9642 14.564C49.0066 18.962 45.6083 21.6217 40.7693 22.5431C38.6771 22.9422 36.6189 23.3358 34.595 23.7237C34.5747 23.7279 34.5556 23.7366 34.5394 23.7493C34.5231 23.7619 34.5102 23.778 34.5015 23.7963C34.4929 23.8146 34.4889 23.8346 34.4898 23.8546C34.4907 23.8745 34.4965 23.8939 34.5068 23.9112L35.0644 24.91" stroke="#958EB3" stroke-width="2"/>
<path d="M35.0644 24.91C34.8501 24.9454 34.6964 24.993 34.6035 25.0527C34.4973 25.1198 34.4745 25.2084 34.5352 25.3184C35.294 26.6856 36.1988 27.8289 37.2496 28.7484C42.431 33.2835 50.1646 35.3846 56.9735 35.4993" stroke="#5E519F" stroke-width="2"/>
<path d="M58.51 38.6327C55.3592 40.1677 52.1839 41.7475 48.9838 43.372C48.3009 43.719 47.7916 43.8281 47.1457 43.4923C40.8594 40.2041 34.7325 37.1471 28.7649 34.3214C28.486 34.189 28.2195 34.0165 27.9654 33.8039C27.9515 33.7922 27.9408 33.7775 27.9339 33.7609C27.9271 33.7443 27.9244 33.7264 27.9261 33.7086C27.9277 33.6908 27.9337 33.6736 27.9435 33.6586C27.9533 33.6435 27.9667 33.631 27.9824 33.622C28.9726 33.0364 29.9552 32.4619 30.9302 31.8986C31.0573 31.824 31.1303 31.7541 31.1493 31.6888C31.166 31.6308 31.1645 31.5697 31.1451 31.5139C31.1257 31.4582 31.0894 31.4108 31.0412 31.3782C29.9467 30.649 28.7725 29.9122 27.5186 29.1681C27.2056 28.9815 26.8889 28.9592 26.5683 29.1009C24.5178 30.0036 22.4511 31.0155 20.3683 32.1364C18.7152 33.0261 19.0623 34.6516 20.576 35.4181C28.6814 39.5215 37.1671 43.8486 46.0332 48.3995C47.453 49.1297 48.0648 49.6165 49.4447 48.9171C52.9995 47.1135 55.3735 45.8965 56.5666 45.2661" stroke="#958EB3" stroke-width="2"/>
<path d="M57.5767 53.7124C54.9116 55.1094 52.236 56.4719 49.55 57.7999C49.3281 57.909 49.0066 58.2027 48.9127 58.3902C48.8385 58.5421 48.8237 58.7146 48.8715 58.8716C48.9192 59.0286 49.0257 59.1579 49.1688 59.2323L52.512 60.9725" stroke="#958EB3" stroke-width="2"/>
<path d="M52.512 60.9725C54.5341 62.0132 57.1158 63.2964 60.257 64.8221C60.5245 64.9508 60.7644 65.0133 60.9769 65.0096" stroke="#5E519F" stroke-width="2"/>
<path d="M62.4109 68.3165C61.5772 68.7753 60.7976 69.3628 59.8387 68.8676C49.3451 63.4457 38.7757 57.8661 28.1304 52.1289C27.5651 51.8249 27.273 51.3754 27.254 50.7804C27.2161 49.5326 27.2189 48.1664 27.2625 46.6818C27.2796 46.0271 27.0178 45.4508 26.4402 45.1094C20.7097 41.7074 16.0292 39.3909 8.75935 35.8015C8.50896 35.6784 8.36101 35.587 8.31548 35.5273C8.09924 35.2456 8.1514 35.0265 8.47197 34.8698C12.9828 32.641 17.8426 30.2135 23.0514 27.5874C23.2373 27.4923 23.3881 27.3692 23.5038 27.2181C23.5732 27.1268 23.6088 27.0151 23.6046 26.9016C23.6005 26.788 23.5569 26.6795 23.4811 26.5942L21.7938 24.6666C21.6788 24.535 21.5229 24.4445 21.3505 24.409C21.1781 24.3736 20.9988 24.3953 20.8406 24.4707C15.1993 27.1192 9.41473 29.8796 3.48695 32.752C2.42565 33.2667 0.749746 33.9802 1.03143 35.4154C1.21923 36.3694 2.20086 36.9429 3.02885 37.3514C9.43369 40.496 15.8584 43.7553 22.1125 47.2581C22.3193 47.3739 22.4931 47.5392 22.618 47.7387C22.7428 47.9381 22.8146 48.1654 22.8267 48.3996L23.1909 55.5253" stroke="#958EB3" stroke-width="2"/>
<path d="M23.1909 55.5253C23.115 56.055 23.1245 56.5679 23.2193 57.0641C23.2301 57.12 23.253 57.1729 23.2864 57.2188C23.3198 57.2647 23.363 57.3027 23.4128 57.3298L60.3879 77.9826C60.4434 78.0132 60.5059 78.029 60.5693 78.0285C60.6327 78.0281 60.6948 78.0112 60.7492 77.9798L69.1145 73.2292" stroke="#5E519F" stroke-width="2"/>
<path d="M71.2969 75.4254C68.1689 77.1582 65.0315 78.8657 61.8845 80.548C61.4008 80.8054 60.9883 80.9388 60.6468 80.9481C60.1745 80.9612 59.7335 80.853 59.3237 80.6236C53.3391 77.2794 47.3477 73.9464 41.3498 70.6246C39.6786 69.7013 38.0141 68.8033 36.3562 67.9304C29.8499 64.5116 24.1706 61.4192 19.3184 58.6532C13.5291 55.3556 8.88646 52.8432 5.3905 51.1161C5.06424 50.9557 4.73133 50.8121 4.39179 50.6853C3.35893 50.2992 2.23503 50.7216 1.58914 51.5526C0.698547 52.6996 1.50946 53.7068 2.54801 54.2608C10.7141 58.6215 20.4973 63.9138 31.8976 70.1378C33.6086 71.0722 35.2627 71.9843 36.8598 72.8739C44.5536 77.1582 52.273 81.3836 60.018 85.5504C60.4363 85.777 61.122 85.9309 61.5289 85.7014C68.1035 81.9805 74.699 78.2931 81.3153 74.6393" stroke="#958EB3" stroke-width="2"/>
<path d="M82.5445 77.244C81.6188 77.7961 80.7007 78.3221 79.7902 78.8219C73.7543 82.1251 67.7374 85.46 61.7394 88.8265C60.6383 89.4448 59.7704 88.9301 58.8201 88.3901C55.1895 86.3161 51.4118 84.2271 47.4871 82.1232C45.6832 81.1571 44.0282 80.2543 42.522 79.415C30.3345 72.6166 18.0863 65.8396 5.77744 59.0841C5.69431 59.0387 5.59944 59.0211 5.50713 59.0337C4.79011 59.1344 4.91815 60.5445 4.90962 61.0984C4.8897 62.2287 5.43885 62.9085 6.41195 63.3953C7.95222 64.1656 9.54371 65.005 11.1864 65.9133C27.3156 74.8249 43.4515 83.7226 59.594 92.6062C60.5501 93.1322 61.0394 93.1322 61.9443 92.6006C66.5916 89.8719 73.1653 86.1696 81.6653 81.4937" stroke="#5E519F" stroke-width="2"/>
<path d="M81.6652 81.4938C90.9106 76.3404 100.134 71.1488 109.336 65.9189C111.127 64.9005 112.794 63.9223 114.338 62.9841C114.793 62.7062 115.065 62.377 115.152 61.9965C115.319 61.2523 115.395 60.3953 115.38 59.4254C115.378 59.3732 115.363 59.3221 115.336 59.2772C115.309 59.2322 115.271 59.195 115.225 59.1691C115.179 59.1431 115.127 59.1294 115.075 59.1292C115.022 59.129 114.97 59.1424 114.924 59.168L82.5444 77.244" stroke="#6354AE" stroke-width="2"/>
<path d="M81.3153 74.6393C85.4012 72.3703 89.4558 69.9783 93.5388 67.7793C101.538 63.4708 109.487 59.1269 117.386 54.7475C118.034 54.3894 119.005 53.7795 119.346 53.2144C120.296 51.6281 118.236 50.5706 116.93 50.6433C116.504 50.6675 115.855 50.9119 114.984 51.3763C113.795 52.0123 112.659 52.6278 111.578 53.2228C99.3604 59.9448 86.4217 67.0845 72.7622 74.6421C72.2728 74.9125 71.7844 75.1736 71.2969 75.4254" stroke="#9991C2" stroke-width="2"/>
<path d="M69.1145 73.2293C78.3865 67.9546 87.6727 62.7024 96.9731 57.4725C97.1989 57.3457 97.3089 57.1312 97.3032 56.8291C97.2899 56.1017 97.2672 55.6158 97.2349 55.3715" stroke="#6354AE" stroke-width="2"/>
<path d="M97.2349 55.3714C97.3677 53.1482 97.4711 50.882 97.5451 48.573C97.565 47.9239 97.7385 47.4679 98.2991 47.1601C104.329 43.8607 110.843 40.4018 117.841 36.7834C118.323 36.5335 118.667 36.1987 118.874 35.779C119.434 34.6404 118.418 33.9186 117.46 33.4709C107.241 28.726 97.9482 24.4157 89.581 20.5399C87.8662 19.7435 86.5061 20.0671 85.5008 21.5107C85.4563 21.5744 85.4262 21.6467 85.4126 21.7228C85.399 21.7989 85.4021 21.8769 85.4218 21.9517C85.4415 22.0265 85.4773 22.0963 85.5268 22.1563C85.5762 22.2163 85.6382 22.2652 85.7085 22.2997C94.7396 26.7331 102.75 30.7031 109.74 34.2095C110.209 34.4445 110.672 34.6851 111.132 34.9313C111.331 35.0376 111.443 35.1589 111.467 35.295C111.481 35.3742 111.469 35.4558 111.432 35.5278C111.395 35.5999 111.336 35.6585 111.262 35.6951C105.441 38.5506 99.7464 41.5992 94.179 44.8408C93.5531 45.2045 93.1661 45.5962 93.1519 46.2928C93.1215 47.7495 93.112 49.2491 93.1234 50.7916C93.1263 51.2644 92.9043 51.7428 92.4804 51.9862C87.0572 55.0637 80.971 58.1775 75.1552 61.4397C70.9403 63.8046 66.6922 66.0969 62.4109 68.3164" stroke="#9991C2" stroke-width="2"/>
<path d="M60.9769 65.0096L68.8698 60.813" stroke="#6354AE" stroke-width="2"/>
<path d="M68.8698 60.813C69.7026 60.453 70.596 60.0576 71.5501 59.6267C71.8726 59.4831 72.1306 59.2677 72.3241 58.9805C72.4096 58.8545 72.4446 58.7019 72.4226 58.5517C72.4005 58.4015 72.3229 58.2643 72.2046 58.1663C71.9618 57.9668 71.6981 57.7952 71.4136 57.6516C68.1585 56.0009 64.9262 54.3708 61.7167 52.7612C60.2883 52.0449 59.0506 52.9066 57.5767 53.7124" stroke="#9991C2" stroke-width="2"/>
<path d="M56.5666 45.2661C57.4012 44.8091 58.2397 44.3568 59.0819 43.9092C60.4875 43.1594 61.7707 43.7246 63.1706 44.4576C66.3194 46.1063 69.1961 47.5621 71.8005 48.8248C72.5365 49.1829 73.3417 49.1279 74.2162 48.6597C78.5696 46.3264 85.4296 42.7314 91.567 39.6399C94.143 38.3418 96.8631 36.9103 99.7274 35.3454C100.706 34.8083 101.127 33.4961 100.086 32.7771C99.2266 32.184 98.3342 31.6608 97.4085 31.2076C93.1139 29.1019 89.0119 27.1705 85.1024 25.4135C84.6965 25.2326 84.2811 25.1645 83.8562 25.2093C83.7594 25.2186 83.676 25.2569 83.6058 25.324C82.8983 25.9843 82.2258 26.7257 81.5884 27.5482C81.5365 27.6148 81.5001 27.6919 81.4818 27.7739C81.4634 27.8559 81.4636 27.9409 81.4823 28.0228C81.5011 28.1047 81.5379 28.1816 81.5901 28.248C81.6424 28.3144 81.7088 28.3687 81.7848 28.4071C85.1309 30.0913 88.2532 31.6646 91.1516 33.1268C91.3014 33.2014 91.4409 33.2956 91.5699 33.4094C91.616 33.4496 91.6521 33.4997 91.6755 33.5558C91.6989 33.6119 91.7089 33.6725 91.7048 33.733C91.7006 33.7935 91.6825 33.8523 91.6517 33.9048C91.6209 33.9573 91.5783 34.0022 91.5272 34.0361C91.0719 34.3364 90.5892 34.6161 90.0789 34.8754C84.5267 37.7048 78.9546 40.5249 73.3626 43.3357C72.7632 43.636 72.1808 43.6453 71.6156 43.3637C68.2448 41.6832 64.8143 39.9803 61.324 38.255C60.2997 37.7514 59.5883 38.1263 58.51 38.6327" stroke="#9991C2" stroke-width="2"/>
<path d="M56.9735 35.4993C65.5237 34.9789 72.0793 31.2635 75.4596 23.4355C75.7005 22.8779 75.8276 22.1999 75.8408 21.4016" stroke="#6354AE" stroke-width="2"/>
<path d="M75.8409 21.4016C76.5067 18.4976 76.5465 15.2802 76.3644 12.2923C76.2734 10.7955 77.5424 9.90304 78.763 9.20361C80.0169 8.4874 81.2119 7.8001 82.3481 7.1417C82.3662 7.13095 82.3811 7.11569 82.3912 7.09747C82.4013 7.07924 82.4063 7.05871 82.4057 7.03796C82.4051 7.0172 82.399 6.99697 82.3879 6.97932C82.3768 6.96167 82.3611 6.94723 82.3425 6.93746C79.4971 5.4239 76.0884 6.01143 73.4423 4.14255C71.8014 2.98617 70.3712 2.11048 69.1515 1.5155" stroke="#9991C2" stroke-width="2"/>
<path d="M97.2349 55.3715C96.8441 55.89 96.4354 56.2677 96.0086 56.5045C86.9035 61.5572 77.3005 66.913 67.1996 72.5718C64.9764 73.8158 63.1592 74.7904 61.7479 75.4954C60.8564 75.9393 59.9734 75.9113 59.0989 75.4115C55.9178 73.5874 52.7776 71.8668 49.678 70.2497C46.2067 68.4386 43.2296 66.8393 40.7465 65.4516C35.5396 62.5401 30.3241 59.679 25.1001 56.8682C24.2825 56.4281 23.6461 55.9804 23.1909 55.5253" stroke="#C9C2EB" stroke-width="2"/>
<path d="M68.8698 60.813L60.8858 56.608C60.8464 56.5875 60.8027 56.5767 60.7585 56.5767C60.7143 56.5767 60.6711 56.5875 60.6326 56.608L52.512 60.9725" stroke="#C9C2EB" stroke-width="2"/>
<path d="M75.8409 21.4016C73.9288 26.292 70.7098 29.8265 66.1838 32.0049C63.0084 33.5325 59.0278 34.3354 55.5138 34.1452C49.4333 33.8123 42.7212 31.7979 37.9553 28.0574C36.8627 27.2013 35.8991 26.1521 35.0644 24.9099" stroke="#C9C2EB" stroke-width="2"/>
<path d="M5.72343 42.1748C4.92389 42.3622 4.94665 44.2031 5.02632 44.7123C5.15152 45.4928 6.0478 46.03 6.71076 46.3769C9.60541 47.8765 12.5892 49.3975 15.6622 50.94C16.4105 51.3149 17.3352 51.5275 17.6567 50.4784C18.1006 49.0347 17.7734 48.3521 16.4361 47.6275C13.035 45.7773 9.61774 43.9783 6.18437 42.2307C6.04125 42.1585 5.87778 42.1387 5.72343 42.1748Z" stroke="#5E519F" stroke-width="2"/>
<path d="M44.1809 51.1665C41.1421 49.3899 37.8842 47.7812 34.6604 46.1893C33.8552 45.7921 32.8081 45.4955 32.6089 46.6705C32.461 47.5406 32.6516 48.6206 33.5081 49.0906C36.5658 50.7636 39.5752 52.4152 42.5363 54.0453C44.676 55.2231 45.8539 52.1457 44.1809 51.1665Z" stroke="#5E519F" stroke-width="2"/>
<path d="M253.611 35.1936H251.184C251.122 35.1936 251.091 35.2235 251.093 35.2831L251.108 37.0793C251.108 37.1184 251.128 37.138 251.17 37.138L253.62 37.1296C253.745 37.1296 253.809 37.1912 253.811 37.3143C253.837 39.9106 253.833 42.4415 253.799 44.9073C253.78 46.2408 253.894 47.2005 254.141 47.7861C254.977 49.7809 257.712 50.1194 259.601 49.5627C259.622 49.5564 259.641 49.5434 259.654 49.5257C259.666 49.508 259.673 49.4865 259.672 49.4647L259.669 47.8393C259.669 47.7889 259.644 47.7665 259.592 47.7721C258.298 47.9232 255.967 48.0323 255.967 46.0459C255.971 43.2408 255.971 40.3116 255.967 37.2583C255.967 37.1744 256.01 37.1324 256.095 37.1324L259.57 37.1352C259.634 37.1352 259.666 37.1026 259.666 37.0373L259.669 35.2803C259.669 35.2207 259.64 35.1908 259.581 35.1908L256.098 35.1964C256.013 35.1964 255.97 35.1544 255.97 35.0705V31.0782C255.97 31.0185 255.94 30.9886 255.879 30.9886L253.896 30.997C253.876 30.997 253.856 31.0053 253.842 31.02C253.827 31.0347 253.819 31.0546 253.819 31.0754V34.9922C253.819 35.1265 253.75 35.1936 253.611 35.1936Z" stroke="#958EB3" stroke-width="2"/>
<path d="M211.062 37.429C210.924 37.6286 210.855 37.6071 210.855 37.3647V35.2692C210.855 35.2484 210.846 35.2285 210.831 35.2138C210.816 35.1991 210.796 35.1908 210.775 35.1908H208.789C208.734 35.1908 208.706 35.2179 208.706 35.272L208.704 49.5375C208.704 49.5897 208.73 49.6158 208.783 49.6158L210.775 49.613C210.795 49.613 210.815 49.6054 210.829 49.5917C210.844 49.5781 210.852 49.5596 210.852 49.5403C210.859 46.9664 210.858 44.3272 210.849 41.6228C210.843 39.4797 211.984 37.5101 214.132 36.987C216.067 36.5141 218.164 37.2136 218.941 39.13C219.193 39.7567 219.313 40.6464 219.3 41.799C219.265 44.6639 219.263 47.2415 219.291 49.5319C219.291 49.5879 219.319 49.6158 219.376 49.6158L221.434 49.613C221.475 49.613 221.496 49.5925 221.496 49.5515C221.496 46.7463 221.496 43.8525 221.496 40.8702C221.496 38.0669 220.182 35.5042 217.12 35.0314C214.474 34.6248 212.455 35.424 211.062 37.429Z" stroke="#958EB3" stroke-width="2"/>
<path d="M246.561 47.6463C244.176 48.5192 242.099 47.3834 241.14 45.1983C241.137 45.1899 241.131 45.1822 241.124 45.1759C241.118 45.1695 241.11 45.1646 241.101 45.1615C241.092 45.1583 241.083 45.157 241.073 45.1575C241.064 45.1581 241.055 45.1606 241.046 45.1648L239.359 46.0768C239.323 46.0973 239.314 46.1262 239.331 46.1635C240.649 48.965 242.904 50.1633 246.097 49.7586C247.539 49.574 248.644 48.993 249.415 48.0156C251.514 45.355 249.85 42.6972 246.999 41.7935C246.079 41.5007 245.078 41.2349 243.997 40.9962C243.403 40.8656 242.911 40.6306 242.52 40.2911C241.499 39.4043 242.136 38.0138 243.146 37.3815C243.609 37.0906 244.11 36.9283 244.649 36.8947C246.295 36.7977 247.525 37.582 248.339 39.2476C248.36 39.2905 248.391 39.3008 248.433 39.2784L250.092 38.3915C250.147 38.3617 250.162 38.3197 250.137 38.2656C249.504 36.8406 248.558 35.8885 247.3 35.4091C245.5 34.7228 243.765 34.8337 242.093 35.7421C239.322 37.2444 238.932 41.0661 242.048 42.451C242.822 42.7942 243.824 43.1 245.055 43.3686C246.501 43.682 248.877 44.4849 247.904 46.4545C247.623 47.0252 247.175 47.4225 246.561 47.6463Z" stroke="#958EB3" stroke-width="2"/>
<path d="M226.1 43.1727C226.098 43.1578 226.1 43.1428 226.105 43.1286C226.109 43.1144 226.117 43.1013 226.127 43.0902C226.137 43.0791 226.15 43.0703 226.164 43.0642C226.178 43.0582 226.193 43.0551 226.208 43.0552L237.786 43.0608C237.911 43.0608 237.976 42.9983 237.982 42.8734C238.141 38.8643 236.116 35.4147 231.816 35.0314C230.786 34.9381 229.853 35.0221 229.016 35.2832C225.784 36.2876 223.639 39.4182 223.875 42.8454C224.174 47.1623 227.927 50.4552 232.408 49.7669C234.703 49.4163 236.41 48.2123 237.527 46.1551C237.548 46.1159 237.539 46.0842 237.501 46.06L235.979 45.0752C235.947 45.0547 235.921 45.0612 235.902 45.0948C233.435 49.7585 226.561 48.4072 226.1 43.1727Z" stroke="#958EB3" stroke-width="2"/>
<path d="M265.585 47.8841C265.585 47.628 265.533 47.3744 265.434 47.1378C265.334 46.9013 265.188 46.6863 265.004 46.5052C264.82 46.3241 264.601 46.1805 264.36 46.0825C264.12 45.9845 263.862 45.9341 263.601 45.9341C263.075 45.9341 262.571 46.1395 262.199 46.5052C261.827 46.8709 261.618 47.3669 261.618 47.8841C261.618 48.4013 261.827 48.8972 262.199 49.2629C262.571 49.6286 263.075 49.8341 263.601 49.8341C263.862 49.8341 264.12 49.7836 264.36 49.6857C264.601 49.5877 264.82 49.444 265.004 49.2629C265.188 49.0819 265.334 48.8669 265.434 48.6303C265.533 48.3937 265.585 48.1402 265.585 47.8841Z" stroke="#958EB3" stroke-width="2"/>
<path d="M114.665 41.9228C111.276 43.7376 107.886 45.5281 104.496 47.2944C103.21 47.9659 103.136 49.3619 103.233 50.6209C103.243 50.7564 103.301 50.8842 103.397 50.9829C103.492 51.0817 103.619 51.1455 103.756 51.1637C104.109 51.2103 104.447 51.1478 104.769 50.9762C107.702 49.417 110.851 47.7225 114.216 45.8928C115.838 45.0115 115.445 43.7665 115.357 42.2809C115.344 42.0515 115.234 41.9154 115.03 41.8725C114.907 41.8454 114.777 41.8633 114.665 41.9228Z" stroke="#6354AE" stroke-width="2"/>
<path d="M86.5592 45.8816C83.4464 47.5267 80.3744 49.1512 77.3432 50.7552C77.0017 50.9361 76.7134 51.16 76.4782 51.4267C75.9347 52.0478 75.8437 53.2536 76.464 53.8187C77.0615 54.3671 77.807 54.4081 78.7004 53.9418C81.155 52.6605 83.7357 51.2812 86.4425 49.804C88.1127 48.8947 87.8937 47.6498 87.7116 46.0551C87.705 45.9969 87.6865 45.9406 87.6572 45.8896C87.6278 45.8386 87.5883 45.794 87.541 45.7584C87.4937 45.7229 87.4395 45.6971 87.3818 45.6827C87.324 45.6683 87.2639 45.6655 87.2051 45.6746C86.9718 45.7082 86.7565 45.7772 86.5592 45.8816Z" stroke="#6354AE" stroke-width="2"/>
<path d="M64.8984 11.7361C65.7034 11.8347 66.5179 11.5938 67.1628 11.0663C67.8077 10.5388 68.2301 9.76803 68.337 8.92349C68.444 8.07894 68.2268 7.22983 67.7333 6.56293C67.2397 5.89604 66.5101 5.46599 65.7051 5.3674C64.9001 5.26881 64.0856 5.50975 63.4407 6.03722C62.7959 6.56469 62.3735 7.33548 62.2665 8.18003C62.1595 9.02457 62.3767 9.87369 62.8703 10.5406C63.3638 11.2075 64.0934 11.6375 64.8984 11.7361Z" stroke="#9991C2" stroke-width="2"/>
<path d="M51.5361 29.1429C53.9461 28.8911 56.4215 27.0446 57.9011 25.2625C59.6007 23.2164 60.4239 20.829 60.3708 18.1003C60.3395 16.5784 59.705 15.3642 57.8413 15.9461C57.0124 16.2053 56.5799 16.7201 56.5439 17.4904C56.4471 19.4936 55.7851 21.2421 54.5578 22.7361C53.0583 24.563 50.5516 25.7884 48.244 25.822C45.5808 25.863 43.3292 26.1148 41.4892 26.5774C41.18 26.6539 40.8832 26.7527 40.5986 26.8739C40.4711 26.9284 40.368 27.0264 40.3084 27.1498C40.2487 27.2733 40.2366 27.4138 40.2743 27.5454C40.9514 29.9039 49.3708 29.3723 51.5361 29.1429Z" stroke="#958EB3" stroke-width="2"/>
<path d="M181.144 35.1321C178.427 36.0199 176.677 37.6379 175.894 39.9861C175.371 41.5547 175.339 43.1279 175.8 44.7059C177.029 48.894 181.497 50.7545 185.662 49.711C187.902 49.1496 189.499 47.788 190.451 45.6263C190.496 45.5237 190.467 45.451 190.363 45.4081L186.866 43.9784C186.809 43.9559 186.746 43.9553 186.69 43.9766C186.633 43.9979 186.587 44.0396 186.561 44.0932C185.005 47.2881 180.353 46.4432 179.963 42.9013C179.908 42.3996 179.925 41.9557 180.014 41.5696C180.443 39.725 181.561 38.7831 183.369 38.7439C184.799 38.7122 185.846 39.3809 186.51 40.7499C186.552 40.8376 186.618 40.8627 186.709 40.8254L190.215 39.4014C190.296 39.3678 190.328 39.3091 190.311 39.2251C190.241 38.8596 190.077 38.4819 189.819 38.0921" stroke="#8D89A6" stroke-width="2"/>
<path d="M192.357 37.8879L192.366 49.4312C192.366 49.5543 192.429 49.6159 192.556 49.6159H196.486C196.523 49.6159 196.56 49.6011 196.586 49.5749C196.613 49.5487 196.628 49.5131 196.628 49.476V43.058C196.628 42.8062 196.705 42.7811 196.858 42.9825L201.806 49.4956C201.865 49.5739 201.944 49.6131 202.043 49.6131L205.172 49.6299" stroke="#8D89A6" stroke-width="2"/>
<path d="M222.862 56.2436C220.865 56.5961 219.983 58.8651 221.209 60.443C222.256 61.7915 224.484 61.8418 225.48 60.3562C225.531 60.2798 225.519 60.2154 225.443 60.1632L224.877 59.7715C224.841 59.7474 224.797 59.7374 224.755 59.7436C224.712 59.7499 224.673 59.7718 224.646 59.8051C223.764 60.8934 222.35 60.5381 221.801 59.4022C221.791 59.3829 221.786 59.3614 221.788 59.3398C221.789 59.3183 221.795 59.2973 221.807 59.2791C221.819 59.2608 221.835 59.2458 221.854 59.2355C221.874 59.2253 221.895 59.22 221.917 59.2204L225.557 59.2287C225.665 59.2287 225.722 59.1747 225.727 59.0665C225.758 58.4995 225.653 57.9502 225.414 57.4186" stroke="#574C92" stroke-width="2"/>
<path d="M226.41 57.6341L226.402 61.2543C226.401 61.2689 226.404 61.2834 226.409 61.2969C226.415 61.3105 226.423 61.3228 226.434 61.3332C226.444 61.3437 226.457 61.352 226.471 61.3576C226.485 61.3633 226.5 61.3662 226.515 61.3662H227.443C227.526 61.3662 227.57 61.3252 227.574 61.2431C227.591 60.5847 227.586 59.876 227.56 59.1169C227.523 57.9726 228.023 57.2844 229.281 57.3739" stroke="#574C92" stroke-width="2"/>
<path d="M231.532 59.5422L231.52 61.2012C231.518 61.315 231.576 61.3709 231.694 61.3691L232.61 61.3635C232.745 61.3616 232.795 61.2963 232.761 61.1676L232.701 60.941C232.663 60.7918 232.707 60.7629 232.832 60.8543C233.756 61.522 234.613 61.6563 235.404 61.2572C236.77 60.5727 237.215 59.4424 236.739 57.8663" stroke="#574C92" stroke-width="2"/>
<path d="M237.239 57.0858L239.103 60.6333C239.124 60.6733 239.136 60.7176 239.137 60.7627C239.138 60.8079 239.128 60.8526 239.109 60.8935L237.766 63.7556C237.747 63.7966 237.761 63.8171 237.808 63.8171L238.938 63.8255C238.987 63.8255 239.022 63.804 239.043 63.7612L241.203 59.1617" stroke="#574C92" stroke-width="2"/>
<path d="M244.902 58.9099L244.896 61.2516C244.894 61.3281 244.932 61.3663 245.01 61.3663H245.935C245.972 61.3663 246.007 61.3522 246.033 61.327C246.059 61.3018 246.074 61.2676 246.074 61.232L246.071 59.0022" stroke="#574C92" stroke-width="2"/>
<path d="M247.36 58.7532C245.593 60.6081 248.413 62.3931 249.932 60.9327C250.024 60.845 250.067 60.8637 250.063 60.9886C250.061 61.067 250.078 61.1397 250.112 61.2068C250.165 61.3131 250.252 61.3663 250.373 61.3663H251.105C251.205 61.3663 251.255 61.3178 251.253 61.2208L251.233 59.0582" stroke="#574C92" stroke-width="2"/>
<path d="M252.863 58.714L253.89 60.6724C253.93 60.7489 253.932 60.8254 253.896 60.9018L252.567 63.7555C252.548 63.7984 252.562 63.8198 252.607 63.8198L253.734 63.8254C253.779 63.8254 253.812 63.8049 253.831 63.7639L256.872 57.2872" stroke="#574C92" stroke-width="2"/>
<path d="M257.299 57.718C256.468 59.8555 258.101 61.8335 260.335 61.3914C260.999 61.2609 261.523 60.9139 261.908 60.3507C261.96 60.2761 261.947 60.2136 261.871 60.1632L261.243 59.7436C261.22 59.7285 261.193 59.7225 261.166 59.7267C261.14 59.7308 261.116 59.7449 261.1 59.7659C260.852 60.0812 260.654 60.2621 260.506 60.3087C259.443 60.6444 258.687 60.3525 258.235 59.433C258.224 59.4104 258.219 59.3853 258.22 59.3602C258.222 59.3351 258.23 59.3107 258.243 59.2895C258.257 59.2682 258.276 59.2507 258.298 59.2386C258.321 59.2265 258.346 59.2203 258.372 59.2204L262.002 59.226C262.078 59.226 262.132 59.1915 262.164 59.1225C262.185 59.0814 262.194 59.0339 262.19 58.9798" stroke="#574C92" stroke-width="2"/>
<path d="M263.115 58.8903L263.103 61.2488C263.103 61.3271 263.143 61.3663 263.223 61.3663H264.145C264.182 61.3663 264.217 61.3518 264.243 61.3261C264.27 61.3004 264.284 61.2655 264.284 61.2292C264.284 60.4887 264.281 59.7165 264.276 58.9127C264.268 57.8383 264.843 57.3217 266 57.3627" stroke="#574C92" stroke-width="2"/>
<path d="M193.293 61.453C194.229 61.5034 195.271 61.1929 195.47 60.1661C195.737 58.8008 193.936 58.4847 193.012 58.2916C192.867 58.2612 192.74 58.176 192.656 58.0538C192.414 57.7041 192.502 57.304 192.869 57.111C193.639 56.71 194.264 56.8872 194.742 57.6426C194.789 57.719 194.853 57.7349 194.932 57.6901L195.325 57.4747C195.346 57.463 195.364 57.4471 195.379 57.428C195.393 57.409 195.403 57.3871 195.409 57.364C195.414 57.3408 195.414 57.3168 195.41 57.2934C195.405 57.2701 195.396 57.248 195.382 57.2285C194.665 56.2437 193.752 55.9956 192.645 56.4843C191.88 56.8219 191.634 57.4215 191.905 58.2832C192.263 59.4219 194.608 58.8288 194.716 60.0458C194.725 60.1506 194.702 60.2556 194.65 60.3474C194.598 60.4392 194.518 60.5134 194.423 60.5606C193.528 61.0007 192.817 60.8068 192.292 59.9786C192.244 59.9059 192.177 59.8761 192.09 59.8891C191.803 59.9357 191.634 60.0486 191.583 60.2276" stroke="#574C92" stroke-width="2"/>
<path d="M191.102 60.236C190.975 60.0495 190.807 59.9142 190.599 59.8303C190.508 59.793 190.439 59.8163 190.394 59.9002C190.056 60.5045 189.518 60.7983 188.778 60.7815C188.207 60.7685 187.761 60.5297 187.44 60.0653C187.347 59.9347 187.27 59.8247 187.207 59.7352C186.896 59.2857 187.016 59.0609 187.568 59.0609L191.06 59.0637C191.158 59.0637 191.21 59.0152 191.213 58.9182C191.279 57.4299 190.448 56.3108 188.86 56.2632C187.675 56.2296 186.822 56.8386 186.302 58.0901" stroke="#574C92" stroke-width="2"/>
<path d="M185.685 57.4718C184.702 56.1644 183.442 55.9079 181.903 56.7025" stroke="#574C92" stroke-width="2"/>
<path d="M173.498 49.6215L173.709 49.6103C173.821 49.6066 173.877 49.5487 173.877 49.4368C173.852 46.8835 173.854 44.2126 173.882 41.4242C173.894 40.2193 173.797 39.2811 173.592 38.6097C172.545 35.2049 168.818 34.4998 165.719 34.9727C163.487 35.3102 161.859 36.3519 160.837 38.0977C160.805 38.1525 160.796 38.2172 160.812 38.2779C160.828 38.3386 160.867 38.3904 160.922 38.4222L163.912 40.1624C163.943 40.1801 163.98 40.1853 164.014 40.177C164.049 40.1686 164.079 40.1473 164.097 40.1177C165.086 38.5621 166.481 38.0016 168.283 38.4362C168.882 38.5798 169.302 38.9398 169.543 39.5162C169.865 40.2883 169.441 41.0997 168.533 41.0661C166.482 40.9933 164.49 41.0745 162.646 41.939C160.882 42.7699 160.404 44.3842 160.501 46.1999" stroke="#8D89A6" stroke-width="2"/>
<path d="M159.021 46.1915C159.035 46.1337 159.022 46.0917 158.984 46.0656C158.95 46.0432 158.912 46.0367 158.87 46.046C157.36 46.3957 155.507 46.046 155.493 44.1407C155.482 42.5143 155.479 40.8087 155.485 39.0237C155.486 38.9156 155.542 38.8615 155.652 38.8615H158.919C159.019 38.8615 159.07 38.812 159.07 38.7132V35.3559C159.07 35.2459 159.013 35.1909 158.899 35.1909H155.595C155.58 35.1909 155.565 35.1879 155.551 35.1823C155.537 35.1766 155.525 35.1683 155.514 35.1579C155.503 35.1475 155.495 35.1351 155.49 35.1216C155.484 35.108 155.481 35.0935 155.482 35.079L155.496 30.8264C155.496 30.8114 155.493 30.7965 155.487 30.7825C155.481 30.7686 155.472 30.756 155.461 30.7453C155.45 30.7347 155.437 30.7262 155.422 30.7205C155.408 30.7147 155.392 30.7117 155.376 30.7117L151.33 30.7145C151.303 30.7145 151.277 30.7252 151.258 30.744C151.239 30.7629 151.228 30.7885 151.228 30.8152V34.9978C151.228 35.0498 151.207 35.0996 151.17 35.1363C151.134 35.173 151.084 35.1937 151.032 35.1937L148.693 35.1909C148.6 35.1909 148.553 35.2366 148.553 35.328L148.536 37.8095" stroke="#8D89A6" stroke-width="2"/>
<path d="M147.95 37.7704C146.962 36.1608 145.498 35.217 143.56 34.9391C142.676 34.8142 141.799 34.8198 140.931 34.9559" stroke="#8D89A6" stroke-width="2"/>
<path d="M206.834 60.3143C206.809 60.3143 206.785 60.3046 206.768 60.2873C206.75 60.27 206.74 60.2465 206.74 60.222L206.737 54.0866C206.737 54.0621 206.728 54.0387 206.71 54.0214C206.692 54.004 206.668 53.9943 206.644 53.9943L205.608 53.9971C205.583 53.9971 205.559 54.0068 205.541 54.0242C205.524 54.0415 205.514 54.065 205.514 54.0894V61.274C205.514 61.2984 205.524 61.3219 205.541 61.3392C205.559 61.3566 205.583 61.3663 205.608 61.3663H210.01C210.022 61.3663 210.035 61.3638 210.046 61.359C210.058 61.3542 210.068 61.3471 210.077 61.3383C210.086 61.3294 210.093 61.3189 210.097 61.3074C210.102 61.2958 210.104 61.2835 210.103 61.2712L210.089 60.4011C210.089 60.3771 210.078 60.3543 210.061 60.3376C210.043 60.3209 210.02 60.3115 209.995 60.3115L206.834 60.3143Z" stroke="#574C92" stroke-width="2"/>
<path d="M198.802 59.4022C199.436 59.6344 199.394 60.387 198.802 60.636C197.965 60.9829 197.293 60.7367 196.785 59.8974C196.775 59.8818 196.76 59.8702 196.743 59.8645C196.726 59.8589 196.707 59.8596 196.691 59.8666L196.179 60.082C196.127 60.1044 196.114 60.1399 196.139 60.1883C196.694 61.2254 197.553 61.6217 198.714 61.3774C200.518 60.9969 200.469 58.9518 198.665 58.5657C198.294 58.4855 197.926 58.3848 197.564 58.2635C196.876 58.0341 196.933 57.2927 197.536 57.0409C198.266 56.7388 198.851 56.9393 199.291 57.6424C199.341 57.7208 199.405 57.7376 199.485 57.6928L199.877 57.4746C199.899 57.4626 199.918 57.446 199.933 57.4261C199.948 57.4061 199.958 57.3832 199.964 57.3588C199.969 57.3345 199.968 57.3092 199.963 57.2848C199.957 57.2604 199.947 57.2373 199.931 57.2172C199.161 56.2044 198.216 55.9778 197.095 56.5373C195.959 57.1025 196.11 58.7196 197.439 59.0105C197.904 59.1112 198.358 59.2418 198.802 59.4022Z" stroke="#574C92" stroke-width="2"/>
<path d="M213.657 60.9466L213.706 61.2376C213.719 61.3234 213.769 61.3663 213.856 61.3663H214.696C214.793 61.3663 214.841 61.3187 214.841 61.2236C214.835 60.2518 214.836 59.2717 214.844 58.2832C214.851 57.0876 214.279 56.4181 213.125 56.2744C211.968 56.129 211.12 56.4852 210.581 57.3432C210.515 57.4457 210.534 57.5306 210.638 57.5978L211.148 57.9223C211.269 58.0006 211.372 57.981 211.458 57.8635C211.869 57.2891 212.448 57.1203 213.193 57.3571C213.569 57.4765 213.73 57.7115 213.677 58.0622C213.664 58.1489 213.618 58.2276 213.548 58.2825C213.479 58.3374 213.391 58.3646 213.302 58.3587C212.195 58.2804 210.143 58.4678 210.425 60.1269C210.661 61.5257 212.622 61.9314 213.512 60.9046C213.59 60.817 213.638 60.831 213.657 60.9466Z" stroke="#574C92" stroke-width="2"/>
<path d="M219.402 56.3247C219.383 56.3247 219.364 56.3303 219.348 56.3408C219.331 56.3512 219.319 56.366 219.311 56.3835L217.965 59.3966C217.958 59.4141 217.945 59.429 217.929 59.4396C217.913 59.4502 217.894 59.456 217.875 59.4563C217.856 59.4566 217.837 59.4514 217.82 59.4413C217.804 59.4312 217.791 59.4166 217.783 59.3994L216.349 56.3835C216.341 56.3666 216.328 56.3523 216.312 56.3424C216.296 56.3325 216.277 56.3273 216.258 56.3275L215.108 56.3359C215.091 56.336 215.075 56.3403 215.06 56.3486C215.045 56.3568 215.033 56.3687 215.024 56.383C215.015 56.3973 215.01 56.4136 215.009 56.4303C215.009 56.4471 215.012 56.4637 215.02 56.4786L217.237 60.7255C217.244 60.7384 217.247 60.7527 217.248 60.7672C217.248 60.7817 217.245 60.7961 217.24 60.8094L215.897 63.6715C215.889 63.6865 215.886 63.7031 215.887 63.7197C215.888 63.7362 215.894 63.7523 215.903 63.7663C215.912 63.7802 215.924 63.7917 215.939 63.7996C215.954 63.8075 215.971 63.8116 215.988 63.8114L217.026 63.8282C217.046 63.8287 217.066 63.8234 217.082 63.8129C217.099 63.8024 217.112 63.7873 217.12 63.7694L220.537 56.4786C220.544 56.4638 220.548 56.4475 220.547 56.4311C220.546 56.4148 220.541 56.3989 220.532 56.385C220.523 56.3711 220.511 56.3596 220.497 56.3515C220.482 56.3434 220.466 56.339 220.449 56.3387L219.402 56.3247Z" stroke="#574C92" stroke-width="2"/>
<path d="M201.462 61.5565C201.295 61.8773 201.079 62.1198 200.813 62.2839C200.713 62.3455 200.704 62.4182 200.788 62.5021L200.939 62.6504C201.045 62.7549 201.156 62.7605 201.272 62.6672C201.923 62.1356 202.629 60.7843 201.69 60.1744C201.615 60.1264 201.531 60.0939 201.443 60.0792C201.355 60.0644 201.265 60.0676 201.178 60.0887C201.092 60.1097 201.011 60.148 200.94 60.2013C200.869 60.2546 200.811 60.3216 200.768 60.3982C200.461 60.9438 200.816 61.2851 201.357 61.3607C201.486 61.3774 201.521 61.4427 201.462 61.5565Z" stroke="#574C92" stroke-width="2"/>
<path d="M140.931 34.9559C137.98 35.5378 135.971 37.8235 136.887 40.8199C137.243 41.9837 138.572 43.0217 139.727 43.4693C140.505 43.7696 141.356 44.0214 142.282 44.2247C142.905 44.359 144.208 44.7143 144.16 45.5396C144.132 45.9984 143.688 46.3062 143.272 46.4097C141.855 46.7706 139.946 46.3426 139.258 44.9157C139.247 44.8936 139.232 44.8738 139.214 44.8578C139.195 44.8418 139.173 44.8298 139.149 44.8227C139.125 44.8156 139.1 44.8134 139.075 44.8165C139.05 44.8195 139.026 44.8276 139.004 44.8402L136.094 46.5468C136.004 46.599 135.985 46.6708 136.034 46.7622C136.876 48.2935 138.182 49.2764 139.952 49.711C141.448 50.0785 142.898 50.099 144.3 49.7726C146.528 49.2541 147.812 47.9941 148.149 45.9928C148.75 42.4258 145.261 41.0633 142.422 40.5233C141.702 40.389 140.473 40.0029 140.723 39.0349C140.837 38.5929 141.338 38.3607 141.759 38.2991C143.071 38.1145 144.058 38.5099 144.718 39.4854C144.771 39.5637 144.839 39.5786 144.923 39.5301L147.95 37.7704" stroke="#88859B" stroke-width="2"/>
<path d="M148.536 37.8096L148.573 38.73C148.577 38.8252 148.628 38.8727 148.727 38.8727L151.02 38.8671C151.119 38.8671 151.167 38.9147 151.165 39.0098C151.16 40.8451 151.16 42.7056 151.165 44.5912C151.171 46.3389 151.786 47.7088 153.009 48.7011C154.457 49.8789 157.032 50.0691 158.876 49.6075C158.915 49.5981 158.95 49.5759 158.975 49.5445C158.999 49.513 159.013 49.4741 159.013 49.4341L159.021 46.1915" stroke="#88859B" stroke-width="2"/>
<path d="M160.501 46.1999C160.985 49.2466 164.04 50.3069 166.829 49.7754C167.754 49.5991 169.045 48.992 169.58 48.1359C169.779 47.817 169.879 47.845 169.879 48.2198V49.4648C169.879 49.5618 169.928 49.6103 170.027 49.6103L173.498 49.6215" stroke="#88859B" stroke-width="2"/>
<path d="M181.903 56.7025C181.088 57.387 180.731 58.1937 180.834 59.1225C181.115 61.6405 184.353 62.3063 185.673 60.1717C185.763 60.0262 185.728 59.9208 185.571 59.8555L185.318 59.7464C185.164 59.683 185.048 59.7222 184.971 59.8639C184.1 61.439 182.017 60.8907 181.687 59.2848C181.257 57.2061 183.759 55.9163 184.973 57.83C185.023 57.9065 185.093 57.9419 185.184 57.9363C185.527 57.9158 185.694 57.761 185.685 57.4719" stroke="#514887" stroke-width="2"/>
<path d="M186.302 58.0901C186.039 59.3417 186.343 60.278 187.216 60.8991C188.635 61.9081 189.93 61.6871 191.102 60.236" stroke="#514887" stroke-width="2"/>
<path d="M191.583 60.2276C191.97 60.9233 192.54 61.3318 193.293 61.453" stroke="#514887" stroke-width="2"/>
<path d="M162.421 53.7453C162.421 53.7186 162.411 53.693 162.391 53.6741C162.372 53.6552 162.346 53.6446 162.319 53.6446H161.733C161.719 53.6446 161.706 53.6472 161.694 53.6523C161.681 53.6573 161.67 53.6647 161.66 53.6741C161.651 53.6834 161.643 53.6945 161.638 53.7068C161.633 53.719 161.63 53.7321 161.63 53.7453V61.2656C161.63 61.2788 161.633 61.2919 161.638 61.3041C161.643 61.3163 161.651 61.3274 161.66 61.3368C161.67 61.3461 161.681 61.3535 161.694 61.3586C161.706 61.3637 161.719 61.3663 161.733 61.3663H162.319C162.346 61.3663 162.372 61.3557 162.391 61.3368C162.411 61.3179 162.421 61.2923 162.421 61.2656V53.7453Z" stroke="#514887" stroke-width="2"/>
<path d="M144.069 54.5762C144.069 54.4248 144.008 54.2796 143.899 54.1726C143.79 54.0656 143.643 54.0054 143.489 54.0054C143.335 54.0054 143.187 54.0656 143.078 54.1726C142.969 54.2796 142.908 54.4248 142.908 54.5762C142.908 54.7275 142.969 54.8727 143.078 54.9797C143.187 55.0868 143.335 55.1469 143.489 55.1469C143.643 55.1469 143.79 55.0868 143.899 54.9797C144.008 54.8727 144.069 54.7275 144.069 54.5762Z" stroke="#514887" stroke-width="2"/>
<path d="M152.32 54.5762C152.32 54.4248 152.259 54.2796 152.15 54.1726C152.042 54.0656 151.894 54.0054 151.74 54.0054C151.586 54.0054 151.438 54.0656 151.33 54.1726C151.221 54.2796 151.16 54.4248 151.16 54.5762C151.16 54.6511 151.175 54.7253 151.204 54.7946C151.233 54.8638 151.276 54.9267 151.33 54.9797C151.384 55.0327 151.447 55.0748 151.518 55.1034C151.588 55.1321 151.664 55.1469 151.74 55.1469C151.894 55.1469 152.042 55.0868 152.15 54.9797C152.259 54.8727 152.32 54.7275 152.32 54.5762Z" stroke="#514887" stroke-width="2"/>
<path d="M135.946 54.1426L135.934 61.2432C135.934 61.2593 135.937 61.2753 135.944 61.2903C135.95 61.3052 135.959 61.3188 135.971 61.3302C135.983 61.3416 135.996 61.3507 136.012 61.3569C136.027 61.3631 136.043 61.3663 136.059 61.3663L138.333 61.3719C138.827 61.3726 139.317 61.2795 139.774 61.0978C140.231 60.9162 140.646 60.6495 140.996 60.3131C141.346 59.9766 141.624 59.577 141.814 59.137C142.004 58.6971 142.102 58.2254 142.103 57.7488V57.6593C142.104 56.6969 141.709 55.7734 141.004 55.0919C140.299 54.4103 139.343 54.0266 138.344 54.0251L136.071 54.0195C136.038 54.0195 136.006 54.0324 135.982 54.0555C135.959 54.0786 135.946 54.1099 135.946 54.1426Z" stroke="#514887" stroke-width="2"/>
<path d="M153.552 56.3304L153.02 56.3276C152.874 56.3276 152.802 56.3994 152.804 56.5431L152.81 56.7893C152.814 56.9534 152.898 57.028 153.063 57.0131L153.518 56.9767C153.663 56.9655 153.734 57.0299 153.732 57.1697C153.724 58.1881 153.718 59.2195 153.715 60.264C153.712 61.246 154.733 61.6069 155.573 61.3971C155.647 61.3792 155.712 61.3334 155.753 61.2694C155.795 61.2053 155.809 61.1278 155.795 61.053L155.769 60.9187C155.761 60.881 155.739 60.8475 155.707 60.8252C155.675 60.8028 155.635 60.7932 155.595 60.7984C155.224 60.845 154.895 60.7648 154.611 60.5578C154.507 60.4832 154.454 60.3825 154.454 60.2556L154.452 57.1837C154.452 57.1585 154.457 57.1335 154.467 57.1103C154.477 57.087 154.491 57.0659 154.509 57.0482C154.528 57.0305 154.549 57.0166 154.573 57.0072C154.597 56.9978 154.622 56.9931 154.648 56.9935L155.527 56.9963C155.658 56.9963 155.733 56.9329 155.752 56.806L155.786 56.5487C155.807 56.4032 155.742 56.3304 155.593 56.3304H154.594C154.558 56.3304 154.523 56.3163 154.497 56.2911C154.472 56.2659 154.457 56.2318 154.457 56.1961L154.452 54.9484C154.45 54.8644 154.406 54.8243 154.321 54.8281L153.874 54.8448C153.832 54.8463 153.793 54.8638 153.764 54.8937C153.735 54.9235 153.72 54.9632 153.72 55.0043L153.726 56.1598C153.726 56.205 153.708 56.2484 153.675 56.2804C153.643 56.3125 153.599 56.3304 153.552 56.3304Z" stroke="#514887" stroke-width="2"/>
<path d="M148.929 57.1333C147.748 55.6393 145.711 56.1038 144.971 57.774C144.662 58.4753 144.673 59.2008 145.005 59.9506C145.512 61.0884 146.413 61.5388 147.708 61.3019C148.22 61.2087 148.625 60.9419 148.923 60.5018C149.005 60.3805 149.056 60.3917 149.077 60.5354C149.273 61.8531 148.929 63.2463 147.256 63.2295C146.48 63.2202 145.917 62.8509 145.566 62.1216C145.471 61.9239 145.329 61.882 145.139 61.9957L145.045 62.0489C144.84 62.172 144.797 62.3361 144.917 62.5413C145.42 63.4011 146.168 63.8488 147.162 63.8842C149.102 63.9513 149.882 62.7931 149.851 61.0641C149.822 59.4116 149.82 57.885 149.845 56.4843C149.845 56.4642 149.842 56.4442 149.834 56.4256C149.827 56.4069 149.816 56.3899 149.802 56.3756C149.788 56.3613 149.771 56.3499 149.753 56.3421C149.734 56.3344 149.714 56.3304 149.694 56.3304L149.259 56.3276C149.164 56.3257 149.115 56.3714 149.111 56.4647L149.085 57.0858C149.08 57.2424 149.028 57.2583 148.929 57.1333Z" stroke="#514887" stroke-width="2"/>
<path d="M159.568 60.7508L159.494 61.176C159.473 61.3029 159.528 61.3663 159.659 61.3663L160.137 61.3691C160.262 61.3691 160.323 61.3075 160.319 61.1844C160.298 60.3955 160.3 59.5366 160.324 58.6077C160.361 57.3516 160.009 56.4003 158.555 56.266C157.517 56.1709 156.761 56.5206 156.287 57.3152C156.255 57.3693 156.244 57.4332 156.256 57.4951C156.269 57.5569 156.304 57.6123 156.355 57.6509L156.569 57.8104C156.684 57.898 156.781 57.8813 156.859 57.76C157.314 57.0606 157.923 56.7911 158.686 56.9515C159.065 57.0317 159.316 57.2527 159.44 57.6145C159.46 57.6742 159.494 57.7721 159.539 57.9083C159.664 58.2739 159.531 58.4464 159.138 58.4259C158.25 58.3783 156.671 58.3224 156.244 59.3463C155.877 60.2276 156.361 61.1816 157.306 61.3859C158.15 61.5705 158.865 61.3402 159.451 60.6948C159.555 60.5829 159.594 60.6016 159.568 60.7508Z" stroke="#514887" stroke-width="2"/>
<path d="M166.322 57.6593C166.313 57.5866 166.349 57.4849 166.43 57.3543C166.489 57.2592 166.569 57.1846 166.67 57.1305C167.459 56.7053 168.095 56.8843 168.579 57.6677C168.586 57.6809 168.597 57.6923 168.609 57.7014C168.622 57.7105 168.636 57.7171 168.651 57.7207C168.667 57.7244 168.683 57.725 168.699 57.7226C168.714 57.7202 168.73 57.7149 168.744 57.7069L169.171 57.4607C169.248 57.414 169.264 57.3525 169.219 57.276C168.73 56.461 167.989 56.1346 166.997 56.2968C165.318 56.5738 165.022 58.6777 166.829 59.0442C167.418 59.1645 168.508 59.2988 168.53 60.0737C168.534 60.1769 168.506 60.2789 168.451 60.3673C168.396 60.4557 168.316 60.5267 168.22 60.5717C167.304 61.0007 166.585 60.776 166.063 59.8975C166.043 59.862 166.012 59.8499 165.972 59.8611C165.733 59.9208 165.543 60.0168 165.4 60.1493C165.387 60.1605 165.384 60.1735 165.392 60.1884C166.048 61.343 167.023 61.7067 168.317 61.2795C169.637 60.8459 169.66 59.2456 168.334 58.7084C167.911 58.5369 167.466 58.411 167 58.3308C166.824 58.3007 166.664 58.2191 166.542 58.0982C166.42 57.9773 166.343 57.8234 166.322 57.6593Z" stroke="#514887" stroke-width="2"/>
<path d="M177.581 57.0718C178.545 56.682 179.318 56.9487 179.9 57.872C179.929 57.9189 179.975 57.9529 180.029 57.9666C180.083 57.9802 180.14 57.9723 180.188 57.9447L180.458 57.7908C180.574 57.7237 180.599 57.6323 180.535 57.5166C179.602 55.8576 177.277 55.8716 176.207 57.3236C175.657 58.0697 175.549 58.8763 175.883 59.7436C176.654 61.7384 179.326 62.0825 180.515 60.2276C180.619 60.0672 180.589 59.9376 180.424 59.8387L180.259 59.7408C180.23 59.7238 180.198 59.7127 180.165 59.708C180.132 59.7033 180.098 59.7052 180.066 59.7135C180.034 59.7219 180.003 59.7365 179.977 59.7566C179.95 59.7766 179.928 59.8017 179.912 59.8303C178.631 62.0461 175.726 60.2136 176.677 57.9559C176.851 57.54 177.153 57.2453 177.581 57.0718Z" stroke="#514887" stroke-width="2"/>
<path d="M143.924 56.4255C143.924 56.4002 143.914 56.376 143.896 56.3582C143.877 56.3404 143.853 56.3303 143.827 56.3303H143.23C143.204 56.3303 143.179 56.3404 143.161 56.3582C143.143 56.376 143.133 56.4002 143.133 56.4255V61.2711C143.133 61.2963 143.143 61.3205 143.161 61.3383C143.179 61.3562 143.204 61.3662 143.23 61.3662H143.827C143.853 61.3662 143.877 61.3562 143.896 61.3383C143.914 61.3205 143.924 61.2963 143.924 61.2711V56.4255Z" stroke="#514887" stroke-width="2"/>
<path d="M152.178 56.4114C152.178 56.3899 152.17 56.3693 152.154 56.3541C152.139 56.3389 152.118 56.3303 152.096 56.3303H151.47C151.448 56.3303 151.427 56.3389 151.411 56.3541C151.396 56.3693 151.387 56.3899 151.387 56.4114V61.2851C151.387 61.3066 151.396 61.3272 151.411 61.3424C151.427 61.3576 151.448 61.3662 151.47 61.3662H152.096C152.118 61.3662 152.139 61.3576 152.154 61.3424C152.17 61.3272 152.178 61.3066 152.178 61.2851V56.4114Z" stroke="#514887" stroke-width="2"/>
<path d="M174.102 60.7536C174.107 60.8749 174.096 60.9942 174.067 61.1117C174.06 61.1423 174.059 61.1742 174.066 61.2051C174.072 61.2359 174.086 61.2649 174.106 61.2897C174.126 61.3145 174.151 61.3346 174.18 61.3483C174.209 61.3621 174.24 61.3692 174.272 61.3691H174.582C174.732 61.3691 174.807 61.2964 174.807 61.1509L174.81 56.4451C174.81 56.3668 174.771 56.3276 174.693 56.3276L174.164 56.3304C174.092 56.3304 174.056 56.3659 174.056 56.4368C174.05 57.1977 174.061 57.968 174.087 58.7477C174.102 59.2121 174.044 59.6112 173.911 59.9451C173.407 61.2096 171.179 61.1173 171.125 59.573C171.089 58.6087 171.093 57.567 171.137 56.4479C171.137 56.4324 171.135 56.4169 171.129 56.4023C171.124 56.3878 171.115 56.3744 171.105 56.3632C171.094 56.3519 171.081 56.343 171.066 56.3369C171.051 56.3308 171.036 56.3276 171.02 56.3276H170.459C170.397 56.3295 170.365 56.3603 170.363 56.42C170.298 58.1937 170.311 59.3473 170.4 59.8807C170.704 61.7132 172.855 62.0546 173.951 60.7033C174.046 60.5858 174.096 60.6025 174.102 60.7536Z" stroke="#514887" stroke-width="2"/>
<path d="M167.148 46.7761C168.707 46.5467 169.651 45.3829 169.612 43.8721C169.608 43.7565 169.548 43.6959 169.432 43.6903C168.053 43.6306 167.101 43.6343 166.576 43.7015C164.041 44.0288 164.342 47.1874 167.148 46.7761Z" stroke="#8D89A6" stroke-width="2"/>
<path d="M226.148 40.9429C226.099 41.1294 226.172 41.2227 226.367 41.2227H235.603C235.71 41.2227 235.754 41.1714 235.737 41.0688C235.333 38.7728 234.165 37.4113 232.232 36.9842C229.261 36.3295 226.88 38.1648 226.148 40.9429Z" stroke="#958EB3" stroke-width="2"/>
<path d="M234.237 60.4149C234.646 60.4086 235.036 60.236 235.32 59.9352C235.605 59.6343 235.761 59.2298 235.754 58.8106C235.747 58.3914 235.578 57.9919 235.284 57.7C234.991 57.4081 234.596 57.2476 234.187 57.2539C233.778 57.2602 233.388 57.4328 233.104 57.7336C232.819 58.0345 232.663 58.439 232.67 58.8582C232.677 59.2774 232.846 59.6769 233.139 59.9688C233.433 60.2608 233.828 60.4212 234.237 60.4149Z" stroke="#5E519F" stroke-width="2"/>
<path d="M136.734 54.7861V60.5942C136.734 60.6135 136.742 60.632 136.755 60.6456C136.769 60.6592 136.788 60.6669 136.808 60.6669H138.25C138.648 60.6669 139.042 60.5911 139.41 60.4437C139.778 60.2964 140.112 60.0804 140.393 59.8082C140.674 59.5359 140.898 59.2127 141.05 58.8569C141.202 58.5012 141.281 58.12 141.281 57.7349V57.6454C141.281 57.2604 141.202 56.8791 141.05 56.5234C140.898 56.1676 140.674 55.8444 140.393 55.5722C140.112 55.2999 139.778 55.0839 139.41 54.9366C139.042 54.7892 138.648 54.7134 138.25 54.7134H136.808C136.788 54.7134 136.769 54.721 136.755 54.7347C136.742 54.7483 136.734 54.7668 136.734 54.7861Z" stroke="#514887" stroke-width="2"/>
<path d="M147.329 60.7312C147.562 60.73 147.792 60.6793 148.007 60.582C148.222 60.4847 148.417 60.3428 148.581 60.1642C148.745 59.9857 148.875 59.774 148.963 59.5414C149.051 59.3088 149.095 59.0597 149.094 58.8084C149.091 58.3009 148.902 57.8151 148.567 57.458C148.232 57.1008 147.779 56.9015 147.308 56.904C147.075 56.9052 146.844 56.9558 146.63 57.0531C146.415 57.1504 146.22 57.2924 146.056 57.4709C145.892 57.6495 145.762 57.8611 145.674 58.0937C145.586 58.3263 145.542 58.5754 145.543 58.8267C145.546 59.3342 145.735 59.82 146.07 60.1771C146.405 60.5343 146.858 60.7336 147.329 60.7312Z" stroke="#514887" stroke-width="2"/>
<path d="M156.958 59.6401C156.423 61.1257 159.38 61.3299 159.55 59.254C159.56 59.144 159.508 59.0862 159.394 59.0806C158.703 59.0386 157.237 58.8679 156.958 59.6401Z" stroke="#514887" stroke-width="2"/>
<path d="M221.969 58.3615L224.518 58.3559C224.53 58.3559 224.542 58.3512 224.55 58.3428C224.559 58.3344 224.563 58.323 224.563 58.3112V58.286C224.563 58.014 224.427 57.7535 224.187 57.5615C223.946 57.3695 223.62 57.2618 223.28 57.262H223.206C223.038 57.2621 222.87 57.2888 222.715 57.3407C222.559 57.3925 222.417 57.4684 222.298 57.564C222.179 57.6596 222.084 57.7731 222.02 57.898C221.956 58.0228 221.923 58.1566 221.923 58.2916V58.3167C221.923 58.3286 221.928 58.34 221.936 58.3484C221.945 58.3568 221.956 58.3615 221.969 58.3615Z" stroke="#5E519F" stroke-width="2"/>
<path d="M248.348 59.3015C248.228 59.3423 248.128 59.4229 248.064 59.529C248 59.6351 247.976 59.7597 247.998 59.8806C248.089 60.3973 248.439 60.6052 249.048 60.5045C249.73 60.3907 250.086 59.9879 250.115 59.2959C250.116 59.2641 250.106 59.2329 250.086 59.2082C250.066 59.1835 250.038 59.167 250.006 59.1616C249.447 59.0646 248.894 59.1113 248.348 59.3015Z" stroke="#5E519F" stroke-width="2"/>
<path d="M258.386 58.3615L260.941 58.3559C260.953 58.3559 260.965 58.3512 260.973 58.3428C260.982 58.3344 260.987 58.323 260.987 58.3112V58.286C260.986 58.014 260.85 57.7535 260.61 57.5615C260.369 57.3695 260.043 57.2618 259.703 57.262H259.624C259.455 57.2621 259.288 57.2888 259.132 57.3407C258.976 57.3925 258.835 57.4684 258.715 57.564C258.596 57.6596 258.502 57.7731 258.437 57.898C258.373 58.0228 258.34 58.1566 258.34 58.2916V58.3167C258.34 58.3286 258.345 58.34 258.354 58.3484C258.362 58.3568 258.374 58.3615 258.386 58.3615Z" stroke="#5E519F" stroke-width="2"/>
<path d="M187.147 58.4343L190.385 58.4287C190.395 58.4287 190.405 58.4249 190.411 58.418C190.418 58.4112 190.422 58.402 190.422 58.3923V58.3839C190.422 57.9926 190.252 57.6175 189.951 57.3411C189.649 57.0647 189.241 56.9095 188.815 56.9095H188.718C188.507 56.9096 188.297 56.9479 188.102 57.0223C187.907 57.0968 187.73 57.2058 187.58 57.3433C187.431 57.4808 187.313 57.6439 187.232 57.8235C187.151 58.003 187.11 58.1953 187.11 58.3895V58.3979C187.11 58.4076 187.114 58.4168 187.121 58.4236C187.128 58.4305 187.138 58.4343 187.147 58.4343Z" stroke="#574C92" stroke-width="2"/>
<path d="M211.905 59.3099C211.811 59.3454 211.73 59.4078 211.672 59.4892C211.615 59.5705 211.584 59.667 211.583 59.766C211.577 60.2864 211.856 60.5372 212.42 60.5185C213.205 60.4924 213.632 60.0849 213.7 59.2959C213.708 59.2083 213.667 59.1589 213.578 59.1477C212.965 59.0675 212.407 59.1216 211.905 59.3099Z" stroke="#574C92" stroke-width="2"/>
<path d="M69.1515 1.5155C70.3712 2.11048 71.8015 2.98617 73.4423 4.14255C76.0884 6.01142 79.4971 5.4239 82.3425 6.93746C82.3611 6.94722 82.3768 6.96167 82.3879 6.97932C82.399 6.99697 82.4052 7.0172 82.4057 7.03795C82.4063 7.05871 82.4013 7.07924 82.3912 7.09746C82.3811 7.11569 82.3662 7.13095 82.3482 7.1417C81.2119 7.80009 80.0169 8.4874 78.763 9.20361C77.5424 9.90304 76.2734 10.7955 76.3644 12.2923C76.5465 15.2802 76.5067 18.4976 75.8409 21.4016C73.9288 26.292 70.7098 29.8265 66.1838 32.005C63.0084 33.5325 59.0278 34.3355 55.5138 34.1452C49.4334 33.8123 42.7212 31.7979 37.9553 28.0574C36.8627 27.2013 35.8991 26.1522 35.0644 24.91L34.5068 23.9112C34.4965 23.8939 34.4907 23.8745 34.4898 23.8546C34.4889 23.8346 34.4929 23.8146 34.5015 23.7963C34.5102 23.778 34.5231 23.7619 34.5394 23.7493C34.5556 23.7366 34.5747 23.7279 34.595 23.7237C36.6189 23.3358 38.6771 22.9422 40.7693 22.5431C45.6083 21.6217 49.0066 18.962 50.9642 14.564C51.8348 12.6094 52.7377 10.6547 53.6729 8.70003C54.6802 6.59428 56.2072 4.82426 58.2539 3.38997C61.5753 1.05668 65.2079 0.431855 69.1515 1.5155ZM64.8984 11.7361C65.7034 11.8347 66.5179 11.5938 67.1628 11.0663C67.8077 10.5388 68.2301 9.76802 68.3371 8.92347C68.444 8.07893 68.2269 7.22982 67.7333 6.56292C67.2397 5.89603 66.5102 5.46598 65.7052 5.36739C64.9002 5.2688 64.0856 5.50974 63.4408 6.03721C62.7959 6.56468 62.3735 7.33547 62.2665 8.18002C62.1595 9.02456 62.3767 9.87368 62.8703 10.5406C63.3639 11.2075 64.0934 11.6375 64.8984 11.7361ZM51.5361 29.1429C53.9461 28.8911 56.4215 27.0446 57.9011 25.2625C59.6007 23.2164 60.4239 20.829 60.3708 18.1003C60.3395 16.5784 59.705 15.3642 57.8413 15.9461C57.0124 16.2054 56.5799 16.7201 56.5439 17.4904C56.4471 19.4936 55.7851 21.2422 54.5578 22.7361C53.0583 24.563 50.5516 25.7884 48.244 25.822C45.5808 25.863 43.3292 26.1148 41.4892 26.5774C41.18 26.6539 40.8832 26.7527 40.5986 26.874C40.4711 26.9284 40.368 27.0264 40.3084 27.1499C40.2487 27.2733 40.2366 27.4138 40.2742 27.5454C40.9514 29.9039 49.3708 29.3723 51.5361 29.1429Z" fill="white"/>
<path d="M97.2349 55.3714C96.8441 55.8899 96.4354 56.2676 96.0086 56.5045C86.9035 61.5572 77.3005 66.9129 67.1996 72.5718C64.9764 73.8158 63.1592 74.7903 61.7479 75.4954C60.8564 75.9393 59.9734 75.9113 59.0989 75.4114C55.9179 73.5873 52.7776 71.8667 49.6781 70.2497C46.2067 68.4386 43.2296 66.8392 40.7466 65.4516C35.5396 62.5401 30.3241 59.679 25.1001 56.8682C24.2825 56.428 23.6461 55.9804 23.1909 55.5253L22.8267 48.3995C22.8146 48.1654 22.7428 47.9381 22.618 47.7386C22.4931 47.5391 22.3193 47.3739 22.1125 47.2581C15.8584 43.7553 9.43369 40.496 3.02885 37.3514C2.20086 36.9429 1.21923 36.3694 1.03143 35.4153C0.749746 33.9801 2.42565 33.2667 3.48695 32.7519C9.41473 29.8796 15.1993 27.1192 20.8406 24.4707C20.9988 24.3953 21.1781 24.3736 21.3505 24.409C21.5229 24.4444 21.6788 24.535 21.7938 24.6665L23.4811 26.5942C23.5569 26.6795 23.6005 26.788 23.6046 26.9015C23.6088 27.0151 23.5732 27.1268 23.5038 27.2181C23.3881 27.3691 23.2373 27.4922 23.0514 27.5873C17.8426 30.2135 12.9828 32.6409 8.47197 34.8698C8.1514 35.0265 8.09924 35.2456 8.31548 35.5273C8.36101 35.5869 8.50896 35.6783 8.75935 35.8014C16.0292 39.3909 20.7097 41.7074 26.4402 45.1094C27.0178 45.4507 27.2796 46.0271 27.2625 46.6817C27.2189 48.1664 27.2161 49.5326 27.254 50.7804C27.273 51.3754 27.5651 51.8249 28.1304 52.1289C38.7757 57.866 49.3451 63.4456 59.8387 68.8676C60.7976 69.3628 61.5772 68.7753 62.4109 68.3164C66.6922 66.0969 70.9403 63.8047 75.1551 61.4397C80.971 58.1775 87.0571 55.0637 92.4803 51.9862C92.9043 51.7428 93.1262 51.2644 93.1234 50.7916C93.112 49.2491 93.1215 47.7495 93.1519 46.2928C93.1661 45.5962 93.553 45.2045 94.179 44.8408C99.7464 41.5992 105.441 38.5506 111.262 35.6951C111.336 35.6585 111.395 35.5999 111.432 35.5278C111.469 35.4558 111.481 35.3742 111.467 35.295C111.443 35.1589 111.331 35.0376 111.132 34.9313C110.672 34.6851 110.209 34.4445 109.74 34.2095C102.75 30.7031 94.7395 26.7331 85.7085 22.2997C85.6381 22.2652 85.5762 22.2163 85.5267 22.1563C85.4773 22.0963 85.4415 22.0265 85.4218 21.9517C85.4021 21.8769 85.399 21.7989 85.4126 21.7228C85.4262 21.6467 85.4563 21.5744 85.5008 21.5107C86.5061 20.0671 87.8662 19.7435 89.581 20.5399C97.9481 24.4157 107.241 28.726 117.46 33.4709C118.418 33.9186 119.434 34.6404 118.874 35.779C118.667 36.1987 118.323 36.5335 117.841 36.7834C110.843 40.4018 104.329 43.8607 98.299 47.1601C97.7385 47.4679 97.565 47.9239 97.5451 48.573C97.4711 50.882 97.3677 53.1482 97.2349 55.3714Z" fill="white"/>
<path d="M75.8409 21.4016C75.8276 22.1999 75.7005 22.8779 75.4596 23.4355C72.0793 31.2635 65.5237 34.9789 56.9735 35.4993C50.1646 35.3846 42.431 33.2835 37.2496 28.7484C36.1988 27.8289 35.294 26.6856 34.5352 25.3184C34.4745 25.2084 34.4973 25.1198 34.6035 25.0526C34.6964 24.9929 34.8501 24.9454 35.0644 24.9099C35.8991 26.1521 36.8627 27.2013 37.9553 28.0574C42.7212 31.7979 49.4333 33.8123 55.5138 34.1452C59.0278 34.3354 63.0084 33.5325 66.1838 32.0049C70.7098 29.8265 73.9288 26.292 75.8409 21.4016Z" fill="#9284D6"/>
<path d="M56.5666 45.2661C55.3735 45.8965 52.9995 47.1135 49.4447 48.9171C48.0648 49.6165 47.453 49.1297 46.0332 48.3995C37.1672 43.8486 28.6814 39.5215 20.576 35.4182C19.0623 34.6516 18.7152 33.0261 20.3683 32.1364C22.4511 31.0155 24.5178 30.0036 26.5683 29.1009C26.8889 28.9592 27.2056 28.9816 27.5186 29.1681C28.7725 29.9123 29.9467 30.649 31.0412 31.3783C31.0894 31.4108 31.1257 31.4582 31.1451 31.5139C31.1645 31.5697 31.166 31.6308 31.1493 31.6888C31.1303 31.7541 31.0573 31.824 30.9302 31.8986C29.9552 32.4619 28.9726 33.0364 27.9824 33.622C27.9667 33.631 27.9533 33.6435 27.9435 33.6586C27.9337 33.6736 27.9277 33.6908 27.9261 33.7086C27.9244 33.7264 27.9271 33.7444 27.9339 33.7609C27.9408 33.7775 27.9515 33.7922 27.9654 33.8039C28.2195 34.0165 28.486 34.189 28.7649 34.3215C34.7325 37.1471 40.8594 40.2041 47.1457 43.4923C47.7916 43.8281 48.3009 43.719 48.9838 43.372C52.1839 41.7475 55.3592 40.1677 58.51 38.6327C59.5883 38.1263 60.2997 37.7514 61.324 38.255C64.8143 39.9803 68.2448 41.6832 71.6156 43.3637C72.1808 43.6453 72.7632 43.636 73.3626 43.3357C78.9546 40.5249 84.5267 37.7048 90.0789 34.8754C90.5892 34.6161 91.0719 34.3364 91.5272 34.0361C91.5783 34.0022 91.6209 33.9573 91.6517 33.9048C91.6825 33.8523 91.7006 33.7935 91.7048 33.733C91.7089 33.6725 91.6989 33.6119 91.6755 33.5558C91.6521 33.4997 91.616 33.4496 91.5699 33.4094C91.4409 33.2956 91.3015 33.2014 91.1516 33.1268C88.2532 31.6646 85.1309 30.0913 81.7848 28.4071C81.7088 28.3687 81.6424 28.3144 81.5901 28.248C81.5379 28.1816 81.5011 28.1047 81.4824 28.0228C81.4636 27.9409 81.4634 27.8559 81.4818 27.7739C81.5001 27.6919 81.5365 27.6148 81.5884 27.5482C82.2258 26.7257 82.8983 25.9843 83.6058 25.324C83.676 25.2569 83.7594 25.2186 83.8562 25.2093C84.2811 25.1645 84.6965 25.2326 85.1024 25.4135C89.0119 27.1705 93.1139 29.1019 97.4085 31.2076C98.3342 31.6608 99.2267 32.184 100.086 32.7771C101.127 33.4961 100.706 34.8083 99.7274 35.3454C96.8631 36.9103 94.143 38.3418 91.567 39.6399C85.4296 42.7314 78.5696 46.3264 74.2162 48.6597C73.3417 49.1279 72.5365 49.1829 71.8005 48.8248C69.1961 47.5621 66.3195 46.1063 63.1706 44.4576C61.7707 43.7246 60.4875 43.1594 59.0819 43.9092C58.2397 44.3568 57.4012 44.8091 56.5666 45.2661Z" fill="white"/>
<path d="M114.665 41.9228C114.777 41.8633 114.907 41.8454 115.03 41.8725C115.234 41.9154 115.344 42.0515 115.357 42.2809C115.445 43.7665 115.838 45.0115 114.216 45.8928C110.851 47.7225 107.702 49.417 104.769 50.9762C104.447 51.1478 104.109 51.2103 103.756 51.1637C103.619 51.1455 103.492 51.0817 103.397 50.9829C103.301 50.8842 103.243 50.7564 103.233 50.6209C103.136 49.3619 103.21 47.9659 104.496 47.2944C107.886 45.5281 111.276 43.7376 114.665 41.9228Z" fill="#9284D6"/>
<path d="M5.72343 42.1748C5.87778 42.1387 6.04125 42.1585 6.18437 42.2307C9.61774 43.9783 13.035 45.7773 16.4361 47.6275C17.7734 48.3521 18.1006 49.0347 17.6567 50.4784C17.3352 51.5275 16.4105 51.3149 15.6622 50.94C12.5892 49.3975 9.60541 47.8765 6.71076 46.3769C6.0478 46.03 5.15152 45.4928 5.02632 44.7123C4.94665 44.2031 4.92389 42.3622 5.72343 42.1748Z" fill="#9284D6"/>
<path d="M86.5592 45.8816C86.7565 45.7772 86.9718 45.7082 87.2051 45.6746C87.2639 45.6655 87.324 45.6683 87.3818 45.6827C87.4395 45.6971 87.4937 45.7229 87.541 45.7584C87.5883 45.794 87.6278 45.8386 87.6572 45.8896C87.6865 45.9406 87.705 45.9969 87.7116 46.0551C87.8937 47.6498 88.1127 48.8947 86.4425 49.804C83.7357 51.2812 81.155 52.6605 78.7004 53.9418C77.807 54.4081 77.0615 54.3671 76.464 53.8187C75.8437 53.2536 75.9347 52.0478 76.4782 51.4267C76.7134 51.16 77.0017 50.9361 77.3432 50.7552C80.3744 49.1512 83.4464 47.5267 86.5592 45.8816Z" fill="#9284D6"/>
<path d="M34.6604 46.1893C37.8842 47.7812 41.1421 49.3899 44.1809 51.1665C45.8539 52.1457 44.676 55.2231 42.5363 54.0453C39.5752 52.4152 36.5658 50.7636 33.5081 49.0906C32.6516 48.6206 32.461 47.5406 32.6089 46.6705C32.8081 45.4955 33.8552 45.7921 34.6604 46.1893Z" fill="#9284D6"/>
<path d="M71.2969 75.4254C71.7844 75.1737 72.2728 74.9125 72.7622 74.6421C86.4217 67.0845 99.3604 59.9448 111.578 53.2228C112.659 52.6278 113.795 52.0123 114.984 51.3763C115.855 50.9119 116.504 50.6676 116.93 50.6433C118.236 50.5706 120.296 51.6281 119.346 53.2144C119.005 53.7795 118.034 54.3895 117.386 54.7476C109.487 59.1269 101.538 63.4708 93.5388 67.7793C89.4558 69.9783 85.4012 72.3703 81.3153 74.6393C74.699 78.2931 68.1035 81.9805 61.5289 85.7014C61.122 85.9309 60.4363 85.777 60.018 85.5504C52.273 81.3836 44.5536 77.1582 36.8598 72.8739C35.2627 71.9843 33.6086 71.0722 31.8976 70.1378C20.4973 63.9138 10.7141 58.6215 2.54801 54.2608C1.50946 53.7068 0.698547 52.6996 1.58914 51.5526C2.23503 50.7216 3.35893 50.2992 4.39179 50.6853C4.73133 50.8121 5.06424 50.9557 5.3905 51.1161C8.88646 52.8432 13.5291 55.3556 19.3184 58.6532C24.1706 61.4192 29.8499 64.5116 36.3562 67.9304C38.0141 68.8033 39.6786 69.7013 41.3498 70.6246C47.3477 73.9464 53.3391 77.2794 59.3237 80.6236C59.7335 80.853 60.1745 80.9612 60.6468 80.9481C60.9883 80.9388 61.4008 80.8054 61.8845 80.548C65.0315 78.8657 68.1689 77.1582 71.2969 75.4254Z" fill="white"/>
<path d="M68.8698 60.813L60.8858 56.608C60.8465 56.5875 60.8027 56.5767 60.7585 56.5767C60.7143 56.5767 60.6711 56.5875 60.6326 56.608L52.512 60.9724L49.1688 59.2323C49.0257 59.1578 48.9192 59.0286 48.8715 58.8716C48.8237 58.7146 48.8385 58.542 48.9127 58.3902C49.0066 58.2027 49.3281 57.909 49.55 57.7998C52.236 56.4719 54.9116 55.1094 57.5767 53.7124C59.0506 52.9066 60.2883 52.0449 61.7167 52.7612C64.9262 54.3708 68.1585 56.0009 71.4136 57.6516C71.6981 57.7952 71.9618 57.9668 72.2046 58.1663C72.3229 58.2643 72.4005 58.4015 72.4226 58.5517C72.4446 58.7019 72.4095 58.8545 72.3241 58.9805C72.1306 59.2677 71.8726 59.4831 71.5501 59.6267C70.596 60.0576 69.7026 60.453 68.8698 60.813Z" fill="white"/>
<path d="M97.2349 55.3715C97.2672 55.6158 97.2899 56.1017 97.3032 56.8291C97.3089 57.1312 97.1989 57.3457 96.9731 57.4725C87.6727 62.7024 78.3865 67.9546 69.1145 73.2293L60.7492 77.9798C60.6948 78.0112 60.6327 78.0281 60.5693 78.0286C60.5059 78.029 60.4434 78.0132 60.3879 77.9826L23.4128 57.3299C23.363 57.3027 23.3198 57.2648 23.2864 57.2188C23.253 57.1729 23.2301 57.1201 23.2193 57.0641C23.1245 56.568 23.115 56.055 23.1909 55.5253C23.6461 55.9804 24.2825 56.4281 25.1001 56.8682C30.3241 59.679 35.5396 62.5401 40.7466 65.4516C43.2296 66.8393 46.2068 68.4386 49.6781 70.2497C52.7776 71.8668 55.9179 73.5874 59.0989 75.4115C59.9734 75.9113 60.8564 75.9393 61.7479 75.4954C63.1592 74.7904 64.9764 73.8158 67.1996 72.5718C77.3005 66.913 86.9035 61.5572 96.0086 56.5045C96.4354 56.2677 96.8441 55.89 97.2349 55.3715Z" fill="#9284D6"/>
<path d="M68.8698 60.813L60.9769 65.0096C60.7644 65.0133 60.5245 64.9508 60.257 64.8221C57.1158 63.2964 54.5341 62.0132 52.512 60.9725L60.6326 56.608C60.6711 56.5875 60.7143 56.5767 60.7585 56.5767C60.8027 56.5767 60.8464 56.5875 60.8858 56.608L68.8698 60.813Z" fill="#9284D6"/>
<path d="M82.5444 77.244L114.924 59.168C114.97 59.1424 115.022 59.129 115.075 59.1292C115.127 59.1293 115.179 59.1431 115.225 59.169C115.271 59.1949 115.309 59.2322 115.336 59.2771C115.363 59.3221 115.378 59.3732 115.38 59.4254C115.395 60.3953 115.319 61.2523 115.152 61.9965C115.065 62.377 114.793 62.7062 114.338 62.9841C112.794 63.9222 111.127 64.9005 109.336 65.9189C100.134 71.1487 90.9107 76.3403 81.6653 81.4937C73.1653 86.1696 66.5916 89.8719 61.9443 92.6006C61.0394 93.1322 60.55 93.1322 59.594 92.6062C43.4515 83.7226 27.3156 74.8249 11.1864 65.9133C9.54371 65.005 7.95222 64.1656 6.41195 63.3953C5.43885 62.9085 4.8897 62.2287 4.90962 61.0984C4.91815 60.5445 4.79011 59.1344 5.50713 59.0337C5.59944 59.0211 5.69431 59.0387 5.77744 59.0841C18.0863 65.8396 30.3345 72.6166 42.522 79.415C44.0282 80.2543 45.6832 81.1571 47.4871 82.1232C51.4118 84.2271 55.1894 86.3161 58.8201 88.3901C59.7704 88.9301 60.6382 89.4448 61.7394 88.8265C67.7373 85.46 73.7543 82.1251 79.7902 78.8219C80.7007 78.3221 81.6188 77.7961 82.5444 77.244Z" fill="#9284D6"/>
<path d="M205.172 49.6299L202.043 49.6131C201.944 49.6131 201.865 49.5739 201.806 49.4956L196.858 42.9825C196.705 42.7811 196.628 42.8063 196.628 43.0581V49.476C196.628 49.5131 196.613 49.5487 196.586 49.5749C196.56 49.6012 196.523 49.6159 196.486 49.6159H192.556C192.429 49.6159 192.366 49.5543 192.366 49.4312L192.357 37.8879L192.363 27.7294C192.363 27.6287 192.414 27.5783 192.516 27.5783H196.554C196.574 27.5783 196.592 27.586 196.606 27.5996C196.62 27.6133 196.628 27.6318 196.628 27.6511V40.5849C196.628 40.7583 196.687 40.7798 196.804 40.6492L201.596 35.3056C201.662 35.231 201.745 35.1937 201.843 35.1937L207.013 35.1881C207.033 35.1883 207.053 35.1941 207.069 35.2046C207.086 35.2152 207.099 35.2301 207.107 35.2476C207.115 35.265 207.118 35.2843 207.115 35.3031C207.112 35.3218 207.103 35.3392 207.09 35.3532L201.411 41.7152C201.335 41.7991 201.332 41.8858 201.402 41.9753L207.252 49.4508C207.311 49.5273 207.292 49.5665 207.196 49.5683L205.172 49.6299Z" fill="white"/>
<path d="M159.021 46.1915L159.013 49.434C159.013 49.4741 158.999 49.513 158.975 49.5444C158.95 49.5759 158.915 49.5981 158.876 49.6075C157.032 50.0691 154.457 49.8789 153.009 48.701C151.786 47.7088 151.171 46.3388 151.165 44.5912C151.16 42.7055 151.16 40.8451 151.165 39.0098C151.167 38.9146 151.119 38.8671 151.02 38.8671L148.727 38.8727C148.628 38.8727 148.577 38.8251 148.573 38.73L148.536 37.8095L148.553 35.328C148.553 35.2366 148.6 35.1909 148.693 35.1909L151.032 35.1937C151.084 35.1937 151.134 35.173 151.17 35.1363C151.207 35.0996 151.228 35.0498 151.228 34.9978V30.8152C151.228 30.7885 151.239 30.7629 151.258 30.744C151.277 30.7252 151.303 30.7145 151.33 30.7145L155.376 30.7117C155.392 30.7117 155.408 30.7147 155.422 30.7205C155.437 30.7262 155.45 30.7347 155.461 30.7453C155.472 30.756 155.481 30.7686 155.487 30.7825C155.493 30.7965 155.496 30.8114 155.496 30.8264L155.482 35.079C155.481 35.0935 155.484 35.108 155.49 35.1216C155.495 35.1351 155.503 35.1475 155.514 35.1579C155.525 35.1683 155.537 35.1766 155.551 35.1823C155.565 35.1879 155.58 35.1909 155.595 35.1909H158.899C159.013 35.1909 159.07 35.2459 159.07 35.3559V38.7132C159.07 38.812 159.019 38.8615 158.919 38.8615H155.652C155.542 38.8615 155.486 38.9156 155.485 39.0237C155.479 40.8087 155.482 42.5143 155.493 44.1407C155.507 46.046 157.36 46.3957 158.87 46.046C158.912 46.0367 158.95 46.0432 158.984 46.0656C159.022 46.0917 159.035 46.1337 159.021 46.1915Z" fill="white"/>
<path d="M253.819 34.9922V31.0754C253.819 31.0546 253.827 31.0347 253.842 31.02C253.856 31.0053 253.876 30.997 253.896 30.997L255.879 30.9886C255.94 30.9886 255.97 31.0185 255.97 31.0782V35.0705C255.97 35.1544 256.013 35.1964 256.098 35.1964L259.581 35.1908C259.64 35.1908 259.669 35.2207 259.669 35.2803L259.666 37.0373C259.666 37.1026 259.634 37.1352 259.57 37.1352L256.095 37.1324C256.01 37.1324 255.967 37.1744 255.967 37.2583C255.971 40.3116 255.971 43.2408 255.967 46.0459C255.967 48.0323 258.298 47.9232 259.592 47.7721C259.644 47.7665 259.669 47.7889 259.669 47.8393L259.672 49.4647C259.673 49.4865 259.666 49.508 259.654 49.5257C259.641 49.5434 259.622 49.5564 259.601 49.5627C257.712 50.1194 254.977 49.7809 254.141 47.7861C253.894 47.2005 253.78 46.2408 253.799 44.9073C253.833 42.4415 253.837 39.9106 253.811 37.3143C253.809 37.1912 253.745 37.1296 253.62 37.1296L251.17 37.138C251.128 37.138 251.108 37.1184 251.108 37.0793L251.093 35.2831C251.091 35.2235 251.122 35.1936 251.184 35.1936H253.611C253.75 35.1936 253.819 35.1265 253.819 34.9922Z" fill="white"/>
<path d="M147.95 37.7704L144.923 39.5302C144.839 39.5787 144.771 39.5638 144.718 39.4854C144.058 38.5099 143.071 38.1145 141.759 38.2992C141.338 38.3607 140.837 38.5929 140.723 39.035C140.473 40.003 141.702 40.3891 142.422 40.5234C145.261 41.0633 148.75 42.4258 148.149 45.9929C147.812 47.9942 146.528 49.2541 144.3 49.7726C142.898 50.099 141.448 50.0785 139.952 49.7111C138.182 49.2765 136.876 48.2935 136.034 46.7623C135.985 46.6709 136.004 46.5991 136.094 46.5469L139.004 44.8402C139.026 44.8276 139.05 44.8195 139.075 44.8165C139.1 44.8135 139.125 44.8156 139.149 44.8228C139.173 44.8299 139.195 44.8418 139.214 44.8579C139.232 44.8739 139.247 44.8936 139.258 44.9158C139.946 46.3426 141.855 46.7707 143.272 46.4097C143.688 46.3062 144.132 45.9985 144.16 45.5397C144.208 44.7143 142.905 44.359 142.282 44.2247C141.356 44.0214 140.505 43.7697 139.727 43.4694C138.572 43.0217 137.243 41.9838 136.887 40.8199C135.971 37.8236 137.98 35.5378 140.931 34.9559C141.799 34.8198 142.676 34.8142 143.56 34.9391C145.498 35.217 146.962 36.1608 147.95 37.7704Z" fill="white"/>
<path d="M173.498 49.6215L170.027 49.6103C169.928 49.6103 169.879 49.5618 169.879 49.4648V48.2198C169.879 47.8449 169.779 47.817 169.58 48.1359C169.045 48.992 167.754 49.5991 166.829 49.7754C164.04 50.3069 160.985 49.2466 160.501 46.1999C160.404 44.3842 160.882 42.7699 162.646 41.939C164.49 41.0745 166.482 40.9933 168.533 41.0661C169.441 41.0997 169.865 40.2883 169.543 39.5162C169.302 38.9398 168.882 38.5798 168.283 38.4362C166.481 38.0016 165.086 38.5621 164.097 40.1177C164.079 40.1473 164.049 40.1686 164.014 40.177C163.98 40.1853 163.943 40.1801 163.912 40.1624L160.922 38.4222C160.867 38.3904 160.828 38.3386 160.812 38.2779C160.796 38.2172 160.805 38.1525 160.837 38.0977C161.859 36.3519 163.487 35.3102 165.719 34.9727C168.818 34.4998 172.545 35.2049 173.592 38.6097C173.797 39.2811 173.894 40.2193 173.882 41.4242C173.854 44.2126 173.852 46.8835 173.877 49.4368C173.877 49.5487 173.821 49.6066 173.709 49.6103L173.498 49.6215ZM167.148 46.7762C168.707 46.5468 169.651 45.3829 169.612 43.8722C169.608 43.7565 169.548 43.6959 169.432 43.6903C168.053 43.6307 167.101 43.6344 166.576 43.7015C164.04 44.0289 164.342 47.1875 167.148 46.7762Z" fill="white"/>
<path d="M189.819 38.0921C190.077 38.4819 190.241 38.8596 190.311 39.2251C190.328 39.3091 190.296 39.3678 190.215 39.4014L186.709 40.8254C186.618 40.8627 186.552 40.8376 186.51 40.7499C185.846 39.3809 184.799 38.7122 183.369 38.7439C181.561 38.7831 180.443 39.725 180.014 41.5696C179.925 41.9557 179.908 42.3996 179.963 42.9013C180.353 46.4432 185.005 47.2882 186.561 44.0932C186.587 44.0396 186.633 43.9979 186.69 43.9766C186.746 43.9553 186.809 43.956 186.866 43.9785L190.363 45.4081C190.467 45.451 190.496 45.5237 190.451 45.6263C189.499 47.788 187.902 49.1496 185.662 49.711C181.497 50.7545 177.029 48.894 175.8 44.7059C175.339 43.128 175.371 41.5547 175.894 39.9861C176.677 37.6379 178.427 36.0199 181.144 35.1321C183.079 34.6583 184.916 34.7609 186.655 35.4398C188.006 35.9677 189.06 36.8518 189.819 38.0921Z" fill="white"/>
<path d="M211.062 37.429C212.455 35.424 214.474 34.6248 217.12 35.0314C220.182 35.5042 221.496 38.0669 221.496 40.8702C221.496 43.8525 221.496 46.7463 221.496 49.5515C221.496 49.5925 221.475 49.613 221.434 49.613L219.376 49.6158C219.319 49.6158 219.291 49.5879 219.291 49.5319C219.263 47.2415 219.265 44.6639 219.3 41.799C219.313 40.6464 219.193 39.7567 218.941 39.13C218.164 37.2136 216.067 36.5141 214.132 36.987C211.984 37.5101 210.843 39.4797 210.849 41.6228C210.858 44.3272 210.859 46.9664 210.852 49.5403C210.852 49.5596 210.844 49.5781 210.829 49.5917C210.815 49.6054 210.795 49.613 210.775 49.613L208.783 49.6158C208.73 49.6158 208.704 49.5897 208.704 49.5375L208.706 35.272C208.706 35.2179 208.734 35.1908 208.789 35.1908H210.775C210.796 35.1908 210.816 35.1991 210.831 35.2138C210.846 35.2285 210.855 35.2484 210.855 35.2692V37.3647C210.855 37.6071 210.924 37.6286 211.062 37.429Z" fill="white"/>
<path d="M246.561 47.6463C247.175 47.4225 247.623 47.0252 247.904 46.4545C248.877 44.4849 246.501 43.682 245.055 43.3686C243.824 43.1 242.822 42.7942 242.048 42.451C238.932 41.0661 239.322 37.2444 242.093 35.7421C243.765 34.8337 245.5 34.7228 247.3 35.4091C248.558 35.8885 249.504 36.8406 250.137 38.2656C250.162 38.3197 250.147 38.3617 250.092 38.3915L248.433 39.2784C248.391 39.3008 248.36 39.2905 248.339 39.2476C247.525 37.582 246.295 36.7977 244.649 36.8947C244.11 36.9283 243.609 37.0906 243.146 37.3815C242.136 38.0138 241.499 39.4043 242.52 40.2911C242.911 40.6306 243.403 40.8656 243.997 40.9962C245.078 41.2349 246.079 41.5007 246.999 41.7935C249.85 42.6972 251.514 45.355 249.415 48.0156C248.644 48.993 247.539 49.574 246.097 49.7586C242.904 50.1633 240.649 48.965 239.331 46.1635C239.314 46.1262 239.323 46.0973 239.359 46.0768L241.046 45.1648C241.055 45.1606 241.064 45.1581 241.073 45.1575C241.083 45.157 241.092 45.1583 241.101 45.1615C241.11 45.1646 241.118 45.1695 241.124 45.1759C241.131 45.1822 241.137 45.1899 241.14 45.1983C242.099 47.3834 244.176 48.5192 246.561 47.6463Z" fill="white"/>
<path d="M226.1 43.1727C226.561 48.4072 233.435 49.7585 235.902 45.0948C235.921 45.0612 235.947 45.0547 235.979 45.0752L237.501 46.06C237.539 46.0842 237.548 46.1159 237.527 46.1551C236.41 48.2123 234.703 49.4163 232.408 49.7669C227.927 50.4552 224.174 47.1623 223.875 42.8454C223.639 39.4182 225.784 36.2876 229.016 35.2832C229.853 35.0221 230.786 34.9381 231.816 35.0314C236.116 35.4147 238.141 38.8643 237.982 42.8734C237.976 42.9983 237.911 43.0608 237.786 43.0608L226.208 43.0552C226.193 43.0551 226.178 43.0582 226.164 43.0642C226.15 43.0703 226.137 43.0791 226.127 43.0902C226.117 43.1013 226.109 43.1144 226.105 43.1286C226.1 43.1428 226.098 43.1578 226.1 43.1727ZM226.148 40.9429C226.099 41.1295 226.172 41.2227 226.367 41.2227H235.603C235.71 41.2227 235.754 41.1714 235.737 41.0688C235.333 38.7729 234.165 37.4113 232.232 36.9842C229.261 36.3295 226.88 38.1648 226.148 40.9429Z" fill="white"/>
<path d="M263.601 49.8341C264.697 49.8341 265.585 48.961 265.585 47.8841C265.585 46.8071 264.697 45.9341 263.601 45.9341C262.506 45.9341 261.618 46.8071 261.618 47.8841C261.618 48.961 262.506 49.8341 263.601 49.8341Z" fill="white"/>
<path d="M162.319 53.6446H161.733C161.676 53.6446 161.63 53.6897 161.63 53.7453V61.2656C161.63 61.3212 161.676 61.3663 161.733 61.3663H162.319C162.376 61.3663 162.421 61.3212 162.421 61.2656V53.7453C162.421 53.6897 162.376 53.6446 162.319 53.6446Z" fill="#9285D7"/>
<path d="M246.071 59.0022L246.074 61.2319C246.074 61.2676 246.059 61.3017 246.033 61.3269C246.007 61.3521 245.972 61.3662 245.935 61.3662H245.01C244.932 61.3662 244.894 61.328 244.896 61.2515L244.902 58.9098L244.899 53.7536C244.899 53.7033 244.925 53.6772 244.976 53.6753L246 53.6473C246.044 53.6455 246.066 53.6669 246.066 53.7117L246.071 59.0022Z" fill="#9285D7"/>
<path d="M236.739 57.8663C237.215 59.4423 236.77 60.5726 235.404 61.2571C234.613 61.6562 233.756 61.5219 232.832 60.8542C232.707 60.7628 232.663 60.7917 232.701 60.9409L232.761 61.1676C232.795 61.2962 232.745 61.3615 232.61 61.3634L231.694 61.369C231.576 61.3709 231.518 61.3149 231.52 61.2011L231.532 59.5421L231.537 53.8292C231.537 53.7602 231.572 53.7256 231.643 53.7256L232.582 53.734C232.656 53.7359 232.693 53.7723 232.693 53.8431V56.8339C232.693 56.9477 232.736 56.9682 232.823 56.8955C234.218 55.726 236.041 56.2352 236.739 57.8663ZM234.237 60.4148C234.646 60.4085 235.036 60.2359 235.32 59.935C235.605 59.6341 235.761 59.2296 235.754 58.8105C235.747 58.3913 235.578 57.9918 235.284 57.6999C234.991 57.4079 234.596 57.2475 234.187 57.2538C233.778 57.2601 233.388 57.4326 233.104 57.7335C232.819 58.0344 232.663 58.4389 232.67 58.8581C232.677 59.2773 232.846 59.6768 233.139 59.9687C233.433 60.2606 233.828 60.4211 234.237 60.4148Z" fill="#9285D7"/>
<path d="M143.489 55.1469C143.809 55.1469 144.069 54.8914 144.069 54.5762C144.069 54.261 143.809 54.0054 143.489 54.0054C143.168 54.0054 142.908 54.261 142.908 54.5762C142.908 54.8914 143.168 55.1469 143.489 55.1469Z" fill="#9285D7"/>
<path d="M151.74 55.1469C152.061 55.1469 152.32 54.8914 152.32 54.5762C152.32 54.261 152.061 54.0054 151.74 54.0054C151.419 54.0054 151.16 54.261 151.16 54.5762C151.16 54.8914 151.419 55.1469 151.74 55.1469Z" fill="#9285D7"/>
<path d="M206.834 60.3143L209.995 60.3115C210.02 60.3115 210.043 60.3209 210.061 60.3376C210.078 60.3543 210.089 60.3771 210.089 60.4011L210.103 61.2712C210.104 61.2835 210.102 61.2958 210.097 61.3074C210.093 61.3189 210.086 61.3294 210.077 61.3383C210.068 61.3471 210.058 61.3542 210.046 61.359C210.035 61.3638 210.022 61.3663 210.01 61.3663H205.608C205.583 61.3663 205.559 61.3566 205.541 61.3392C205.524 61.3219 205.514 61.2984 205.514 61.274V54.0894C205.514 54.065 205.524 54.0415 205.541 54.0242C205.559 54.0068 205.583 53.9971 205.608 53.9971L206.644 53.9943C206.668 53.9943 206.692 54.004 206.71 54.0214C206.728 54.0387 206.737 54.0621 206.737 54.0866L206.74 60.222C206.74 60.2465 206.75 60.27 206.768 60.2873C206.785 60.3046 206.809 60.3143 206.834 60.3143Z" fill="#9285D7"/>
<path d="M135.946 54.1426C135.946 54.1099 135.959 54.0786 135.982 54.0555C136.006 54.0324 136.038 54.0195 136.071 54.0195L138.344 54.0251C139.343 54.0266 140.299 54.4103 141.004 55.0919C141.709 55.7734 142.104 56.6969 142.103 57.6593V57.7488C142.102 58.2254 142.004 58.6971 141.814 59.137C141.624 59.577 141.346 59.9766 140.996 60.3131C140.646 60.6495 140.231 60.9162 139.774 61.0978C139.317 61.2795 138.827 61.3726 138.333 61.3719L136.059 61.3663C136.043 61.3663 136.027 61.3631 136.012 61.3569C135.996 61.3507 135.983 61.3416 135.971 61.3302C135.959 61.3188 135.95 61.3052 135.944 61.2903C135.937 61.2753 135.934 61.2593 135.934 61.2432L135.946 54.1426ZM136.734 54.786V60.5941C136.734 60.6134 136.742 60.6319 136.755 60.6455C136.769 60.6592 136.788 60.6668 136.808 60.6668H138.25C138.648 60.6668 139.042 60.591 139.41 60.4437C139.778 60.2963 140.112 60.0803 140.393 59.8081C140.674 59.5358 140.898 59.2126 141.05 58.8569C141.202 58.5011 141.281 58.1199 141.281 57.7348V57.6453C141.281 57.2603 141.202 56.879 141.05 56.5233C140.898 56.1675 140.674 55.8443 140.393 55.5721C140.112 55.2998 139.778 55.0838 139.41 54.9365C139.042 54.7891 138.648 54.7133 138.25 54.7133H136.808C136.788 54.7133 136.769 54.721 136.755 54.7346C136.742 54.7482 136.734 54.7667 136.734 54.786Z" fill="#9285D7"/>
<path d="M153.726 56.1598L153.72 55.0043C153.72 54.9632 153.735 54.9235 153.764 54.8937C153.793 54.8638 153.832 54.8463 153.874 54.8448L154.321 54.8281C154.406 54.8243 154.45 54.8644 154.452 54.9484L154.457 56.1961C154.457 56.2318 154.472 56.2659 154.497 56.2911C154.523 56.3163 154.558 56.3304 154.594 56.3304H155.593C155.742 56.3304 155.807 56.4032 155.786 56.5487L155.752 56.806C155.733 56.9329 155.658 56.9963 155.527 56.9963L154.648 56.9935C154.622 56.9931 154.597 56.9978 154.573 57.0072C154.549 57.0166 154.528 57.0305 154.509 57.0482C154.491 57.0659 154.477 57.087 154.467 57.1103C154.457 57.1335 154.452 57.1585 154.452 57.1837L154.454 60.2556C154.454 60.3825 154.507 60.4832 154.611 60.5578C154.895 60.7648 155.224 60.845 155.595 60.7984C155.635 60.7932 155.675 60.8028 155.707 60.8252C155.739 60.8475 155.761 60.881 155.769 60.9187L155.795 61.053C155.809 61.1278 155.795 61.2053 155.753 61.2694C155.712 61.3334 155.647 61.3792 155.573 61.3971C154.733 61.6069 153.712 61.246 153.715 60.264C153.718 59.2195 153.724 58.1881 153.732 57.1697C153.734 57.0299 153.663 56.9655 153.518 56.9767L153.063 57.0131C152.898 57.028 152.814 56.9534 152.81 56.7893L152.804 56.5431C152.802 56.3994 152.874 56.3276 153.02 56.3276L153.552 56.3304C153.599 56.3304 153.643 56.3125 153.675 56.2804C153.708 56.2484 153.726 56.205 153.726 56.1598Z" fill="#9285D7"/>
<path d="M149.085 57.0858L149.111 56.4647C149.115 56.3714 149.164 56.3257 149.259 56.3276L149.694 56.3304C149.714 56.3304 149.734 56.3344 149.753 56.3421C149.771 56.3499 149.788 56.3613 149.802 56.3756C149.816 56.3899 149.827 56.4069 149.834 56.4256C149.842 56.4442 149.845 56.4642 149.845 56.4843C149.82 57.885 149.822 59.4116 149.851 61.0641C149.882 62.7931 149.102 63.9513 147.162 63.8842C146.168 63.8488 145.42 63.4011 144.917 62.5413C144.797 62.3361 144.84 62.172 145.045 62.0489L145.139 61.9957C145.329 61.882 145.471 61.9239 145.566 62.1216C145.917 62.8509 146.48 63.2202 147.256 63.2295C148.929 63.2463 149.273 61.8531 149.077 60.5354C149.056 60.3917 149.005 60.3805 148.923 60.5018C148.625 60.9419 148.22 61.2087 147.708 61.3019C146.413 61.5388 145.512 61.0884 145.005 59.9506C144.673 59.2008 144.662 58.4753 144.971 57.774C145.711 56.1038 147.748 55.6393 148.929 57.1333C149.028 57.2583 149.08 57.2424 149.085 57.0858ZM147.329 60.7312C147.562 60.73 147.792 60.6793 148.007 60.582C148.222 60.4847 148.417 60.3428 148.581 60.1642C148.745 59.9857 148.875 59.774 148.963 59.5414C149.051 59.3088 149.095 59.0597 149.094 58.8084C149.091 58.3009 148.902 57.8151 148.567 57.458C148.232 57.1008 147.779 56.9015 147.308 56.9039C147.075 56.9051 146.844 56.9558 146.63 57.0531C146.415 57.1504 146.22 57.2924 146.056 57.4709C145.892 57.6494 145.762 57.8611 145.674 58.0937C145.586 58.3263 145.542 58.5754 145.543 58.8267C145.546 59.3342 145.735 59.82 146.07 60.1771C146.405 60.5343 146.858 60.7336 147.329 60.7312Z" fill="#9285D7"/>
<path d="M159.451 60.6948C158.865 61.3402 158.15 61.5705 157.306 61.3859C156.361 61.1816 155.877 60.2276 156.244 59.3463C156.671 58.3224 158.25 58.3783 159.138 58.4259C159.531 58.4464 159.664 58.2739 159.539 57.9083C159.494 57.7721 159.46 57.6742 159.44 57.6145C159.316 57.2527 159.065 57.0317 158.686 56.9515C157.923 56.7911 157.314 57.0606 156.859 57.76C156.781 57.8813 156.684 57.898 156.569 57.8104L156.355 57.6509C156.304 57.6123 156.269 57.5569 156.256 57.4951C156.244 57.4332 156.255 57.3693 156.287 57.3152C156.761 56.5206 157.517 56.1709 158.555 56.266C160.009 56.4003 160.361 57.3516 160.324 58.6077C160.3 59.5366 160.298 60.3955 160.319 61.1844C160.323 61.3075 160.262 61.3691 160.137 61.3691L159.659 61.3663C159.528 61.3663 159.473 61.3029 159.494 61.176L159.568 60.7508C159.594 60.6016 159.555 60.5829 159.451 60.6948ZM156.958 59.6401C156.423 61.1257 159.38 61.3299 159.55 59.254C159.56 59.144 159.508 59.0861 159.394 59.0805C158.703 59.0386 157.237 58.8679 156.958 59.6401Z" fill="#9285D7"/>
<path d="M225.414 57.4186C225.653 57.9502 225.758 58.4995 225.727 59.0665C225.722 59.1747 225.665 59.2287 225.557 59.2287L221.917 59.2204C221.895 59.22 221.874 59.2253 221.854 59.2355C221.835 59.2458 221.819 59.2608 221.807 59.2791C221.795 59.2973 221.789 59.3183 221.788 59.3398C221.786 59.3614 221.791 59.3829 221.801 59.4022C222.35 60.5381 223.764 60.8934 224.646 59.8051C224.673 59.7718 224.712 59.7499 224.755 59.7436C224.797 59.7374 224.841 59.7474 224.877 59.7715L225.443 60.1632C225.519 60.2154 225.531 60.2798 225.48 60.3562C224.484 61.8418 222.256 61.7915 221.209 60.443C219.983 58.865 220.865 56.5961 222.862 56.2436C224.046 56.1559 224.896 56.5476 225.414 57.4186ZM221.969 58.3615L224.518 58.3559C224.53 58.3559 224.542 58.3511 224.55 58.3427C224.559 58.3344 224.564 58.323 224.564 58.3111V58.2859C224.563 58.014 224.427 57.7534 224.187 57.5614C223.946 57.3695 223.62 57.2618 223.28 57.262H223.206C223.038 57.2621 222.87 57.2888 222.715 57.3406C222.559 57.3924 222.417 57.4683 222.298 57.5639C222.179 57.6596 222.084 57.7731 222.02 57.8979C221.956 58.0227 221.923 58.1565 221.923 58.2915V58.3167C221.923 58.3286 221.928 58.34 221.936 58.3483C221.945 58.3567 221.957 58.3615 221.969 58.3615Z" fill="#9285D7"/>
<path d="M229.281 57.3739C228.023 57.2844 227.523 57.9726 227.56 59.1169C227.586 59.876 227.591 60.5848 227.574 61.2432C227.57 61.3252 227.526 61.3663 227.443 61.3663H226.515C226.5 61.3663 226.485 61.3633 226.471 61.3577C226.457 61.352 226.444 61.3437 226.434 61.3333C226.423 61.3229 226.415 61.3105 226.409 61.2969C226.404 61.2834 226.401 61.2689 226.402 61.2543L226.41 57.6341L226.402 56.4954C226.402 56.4738 226.406 56.4523 226.414 56.4323C226.423 56.4122 226.435 56.394 226.451 56.3787C226.466 56.3634 226.485 56.3512 226.505 56.3429C226.526 56.3346 226.547 56.3304 226.569 56.3304L227.449 56.3332C227.553 56.3332 227.601 56.3854 227.594 56.4898L227.565 56.82C227.552 56.9822 227.595 56.9981 227.693 56.8675C228.004 56.4535 228.465 56.2446 229.076 56.2408C229.109 56.2408 229.141 56.2531 229.165 56.2754C229.189 56.2977 229.204 56.3283 229.207 56.3611L229.281 57.3739Z" fill="#9285D7"/>
<path d="M251.233 59.0582L251.253 61.2208C251.255 61.3178 251.205 61.3663 251.105 61.3663H250.373C250.252 61.3663 250.165 61.3132 250.112 61.2069C250.078 61.1397 250.061 61.067 250.063 60.9886C250.067 60.8637 250.024 60.845 249.932 60.9327C248.413 62.3931 245.593 60.6081 247.36 58.7533C248.096 58.3914 248.865 58.2637 249.668 58.37C249.721 58.377 249.775 58.3733 249.827 58.3592C249.879 58.3452 249.927 58.3209 249.969 58.288C250.011 58.2551 250.046 58.2141 250.071 58.1676C250.097 58.1211 250.112 58.0701 250.117 58.0175C250.146 57.7041 249.895 57.4216 249.602 57.3348C248.851 57.1185 248.264 57.3059 247.841 57.8972C247.817 57.9318 247.78 57.9559 247.738 57.9642C247.696 57.9726 247.652 57.9646 247.616 57.9419L247.047 57.5922C246.954 57.5344 246.936 57.4598 246.993 57.3684C247.532 56.4955 248.36 56.1262 249.477 56.2605C250.906 56.4321 251.491 57.3647 251.233 59.0582ZM248.348 59.3016C248.228 59.3424 248.128 59.4231 248.064 59.5291C248 59.6352 247.976 59.7598 247.998 59.8807C248.089 60.3974 248.439 60.6053 249.048 60.5046C249.73 60.3909 250.086 59.988 250.115 59.296C250.116 59.2642 250.106 59.2331 250.086 59.2084C250.066 59.1837 250.038 59.1671 250.006 59.1617C249.447 59.0647 248.894 59.1114 248.348 59.3016Z" fill="#9285D7"/>
<path d="M262.19 58.9799C262.194 59.034 262.185 59.0815 262.164 59.1226C262.132 59.1916 262.078 59.2261 262.002 59.2261L258.372 59.2205C258.346 59.2204 258.321 59.2267 258.298 59.2387C258.276 59.2508 258.257 59.2683 258.243 59.2896C258.23 59.3109 258.222 59.3352 258.22 59.3603C258.219 59.3854 258.224 59.4105 258.235 59.4331C258.687 60.3526 259.443 60.6445 260.506 60.3088C260.654 60.2622 260.852 60.0813 261.1 59.7661C261.116 59.745 261.14 59.7309 261.166 59.7268C261.193 59.7226 261.22 59.7287 261.243 59.7437L261.871 60.1633C261.947 60.2137 261.96 60.2762 261.908 60.3508C261.523 60.914 260.999 61.261 260.335 61.3915C258.101 61.8336 256.468 59.8556 257.299 57.7181C258.094 56.3305 259.242 55.9015 260.745 56.4312C261.795 56.8005 262.068 57.8664 262.19 58.9799ZM258.386 58.3616L260.941 58.356C260.953 58.356 260.965 58.3513 260.973 58.3429C260.982 58.3345 260.987 58.3231 260.987 58.3112V58.2861C260.986 58.0141 260.85 57.7536 260.61 57.5616C260.369 57.3696 260.043 57.2619 259.703 57.2621H259.624C259.455 57.2622 259.288 57.2889 259.132 57.3407C258.976 57.3926 258.835 57.4685 258.715 57.5641C258.596 57.6597 258.502 57.7732 258.437 57.898C258.373 58.0229 258.34 58.1567 258.34 58.2917V58.3168C258.34 58.3287 258.345 58.3401 258.354 58.3485C258.362 58.3569 258.374 58.3616 258.386 58.3616Z" fill="#9285D7"/>
<path d="M266 57.3627C264.843 57.3217 264.268 57.8383 264.276 58.9126C264.281 59.7165 264.284 60.4887 264.284 61.2292C264.284 61.2655 264.27 61.3004 264.243 61.3261C264.217 61.3518 264.182 61.3662 264.145 61.3662H263.223C263.143 61.3662 263.103 61.3271 263.103 61.2487L263.115 58.8903L263.109 56.4926C263.109 56.3845 263.164 56.3304 263.274 56.3304H264.111C264.135 56.3307 264.16 56.3359 264.182 56.3456C264.205 56.3554 264.225 56.3694 264.242 56.3869C264.259 56.4045 264.271 56.4251 264.28 56.4476C264.288 56.4701 264.291 56.494 264.29 56.5178L264.27 56.8088C264.261 56.9636 264.303 56.9794 264.398 56.8563C264.715 56.4497 265.173 56.2436 265.772 56.238C265.791 56.2375 265.81 56.241 265.827 56.2484C265.845 56.2558 265.86 56.2668 265.873 56.2808C265.886 56.2948 265.896 56.3114 265.902 56.3296C265.908 56.3478 265.911 56.3671 265.909 56.3863C265.877 56.7034 265.907 57.0289 266 57.3627Z" fill="#9285D7"/>
<path d="M166.322 57.6593C166.343 57.8234 166.42 57.9773 166.542 58.0982C166.664 58.2191 166.824 58.3007 167 58.3308C167.466 58.411 167.911 58.5369 168.334 58.7084C169.66 59.2456 169.637 60.8459 168.317 61.2795C167.023 61.7067 166.048 61.343 165.392 60.1884C165.384 60.1735 165.387 60.1605 165.4 60.1493C165.543 60.0168 165.733 59.9208 165.972 59.8611C166.012 59.8499 166.043 59.862 166.063 59.8975C166.585 60.776 167.304 61.0007 168.22 60.5717C168.316 60.5267 168.396 60.4557 168.451 60.3673C168.506 60.2789 168.534 60.1769 168.53 60.0737C168.508 59.2988 167.418 59.1645 166.829 59.0442C165.022 58.6777 165.318 56.5738 166.997 56.2968C167.989 56.1346 168.73 56.461 169.219 57.276C169.264 57.3525 169.248 57.414 169.171 57.4607L168.744 57.7069C168.73 57.7149 168.714 57.7202 168.699 57.7226C168.683 57.725 168.667 57.7244 168.651 57.7207C168.636 57.7171 168.622 57.7105 168.609 57.7014C168.597 57.6923 168.586 57.6809 168.579 57.6677C168.095 56.8843 167.459 56.7053 166.67 57.1305C166.569 57.1846 166.489 57.2592 166.431 57.3543C166.349 57.4849 166.313 57.5866 166.322 57.6593Z" fill="#9285D7"/>
<path d="M176.677 57.9559C175.726 60.2136 178.631 62.0461 179.912 59.8303C179.928 59.8017 179.95 59.7766 179.977 59.7566C180.003 59.7365 180.034 59.7219 180.066 59.7135C180.098 59.7052 180.132 59.7033 180.165 59.708C180.198 59.7127 180.23 59.7238 180.259 59.7408L180.424 59.8387C180.589 59.9376 180.619 60.0672 180.515 60.2276C179.326 62.0825 176.654 61.7384 175.883 59.7436C175.549 58.8763 175.657 58.0697 176.207 57.3236C177.277 55.8716 179.602 55.8576 180.535 57.5166C180.599 57.6323 180.574 57.7237 180.458 57.7908L180.188 57.9447C180.14 57.9723 180.083 57.9802 180.029 57.9666C179.975 57.9529 179.929 57.9189 179.9 57.872C179.318 56.9487 178.545 56.682 177.581 57.0718C177.153 57.2453 176.851 57.54 176.677 57.9559Z" fill="#9285D7"/>
<path d="M185.685 57.4718C185.694 57.7609 185.527 57.9157 185.184 57.9362C185.093 57.9418 185.023 57.9064 184.973 57.8299C183.759 55.9163 181.257 57.206 181.687 59.2847C182.017 60.8906 184.1 61.439 184.971 59.8639C185.048 59.7221 185.164 59.683 185.318 59.7464L185.571 59.8555C185.728 59.9207 185.763 60.0261 185.673 60.1716C184.353 62.3063 181.115 61.6404 180.834 59.1225C180.731 58.1936 181.088 57.387 181.903 56.7025C183.442 55.9079 184.702 56.1644 185.685 57.4718Z" fill="#9285D7"/>
<path d="M191.102 60.236C189.93 61.6871 188.635 61.9081 187.216 60.899C186.343 60.2779 186.039 59.3416 186.302 58.0901C186.822 56.8386 187.675 56.2296 188.86 56.2632C190.448 56.3108 191.279 57.4299 191.213 58.9182C191.21 59.0152 191.158 59.0637 191.06 59.0637L187.568 59.0609C187.016 59.0609 186.896 59.2857 187.207 59.7352C187.27 59.8247 187.347 59.9347 187.44 60.0653C187.761 60.5297 188.207 60.7685 188.778 60.7815C189.518 60.7983 190.056 60.5045 190.394 59.9002C190.439 59.8163 190.508 59.793 190.599 59.8303C190.807 59.9142 190.975 60.0495 191.102 60.236ZM187.147 58.4342L190.385 58.4286C190.395 58.4286 190.405 58.4248 190.411 58.418C190.418 58.4112 190.422 58.4019 190.422 58.3923V58.3839C190.422 57.9925 190.252 57.6175 189.951 57.341C189.649 57.0646 189.241 56.9094 188.815 56.9095H188.718C188.507 56.9095 188.297 56.9479 188.102 57.0223C187.907 57.0967 187.73 57.2058 187.58 57.3432C187.431 57.4807 187.313 57.6439 187.232 57.8234C187.151 58.0029 187.11 58.1953 187.11 58.3895V58.3979C187.11 58.4075 187.114 58.4168 187.121 58.4236C187.128 58.4304 187.138 58.4342 187.147 58.4342Z" fill="#9285D7"/>
<path d="M193.293 61.453C192.54 61.3318 191.97 60.9233 191.583 60.2276C191.634 60.0486 191.803 59.9357 192.09 59.8891C192.177 59.8761 192.244 59.9059 192.292 59.9786C192.817 60.8068 193.528 61.0007 194.423 60.5606C194.518 60.5134 194.598 60.4392 194.65 60.3474C194.702 60.2556 194.725 60.1506 194.716 60.0458C194.608 58.8288 192.263 59.4219 191.905 58.2832C191.634 57.4215 191.88 56.8219 192.645 56.4843C193.752 55.9956 194.665 56.2437 195.382 57.2285C195.396 57.248 195.405 57.2701 195.41 57.2934C195.414 57.3168 195.414 57.3408 195.409 57.364C195.403 57.3871 195.393 57.409 195.379 57.428C195.364 57.4471 195.346 57.463 195.325 57.4747L194.932 57.6901C194.853 57.7349 194.789 57.719 194.742 57.6426C194.264 56.8872 193.639 56.71 192.869 57.111C192.502 57.304 192.414 57.7041 192.656 58.0538C192.74 58.176 192.867 58.2612 193.012 58.2916C193.936 58.4847 195.737 58.8008 195.47 60.1661C195.271 61.1929 194.229 61.5034 193.293 61.453Z" fill="#9285D7"/>
<path d="M198.802 59.4022C198.358 59.2418 197.904 59.1112 197.439 59.0105C196.11 58.7196 195.959 57.1025 197.095 56.5373C198.216 55.9778 199.161 56.2044 199.931 57.2172C199.947 57.2373 199.957 57.2604 199.963 57.2848C199.968 57.3092 199.969 57.3345 199.964 57.3588C199.958 57.3832 199.948 57.4061 199.933 57.4261C199.918 57.446 199.899 57.4626 199.877 57.4746L199.485 57.6928C199.405 57.7376 199.341 57.7208 199.291 57.6424C198.851 56.9393 198.266 56.7388 197.536 57.0409C196.933 57.2927 196.876 58.0341 197.564 58.2635C197.926 58.3848 198.294 58.4855 198.665 58.5657C200.469 58.9518 200.518 60.9969 198.714 61.3774C197.553 61.6217 196.694 61.2254 196.139 60.1883C196.114 60.1399 196.127 60.1044 196.179 60.082L196.691 59.8666C196.707 59.8596 196.726 59.8589 196.743 59.8645C196.76 59.8702 196.775 59.8818 196.785 59.8974C197.293 60.7367 197.965 60.9829 198.802 60.636C199.394 60.387 199.436 59.6344 198.802 59.4022Z" fill="#9285D7"/>
<path d="M213.512 60.9046C212.622 61.9314 210.661 61.5257 210.425 60.1269C210.143 58.4678 212.195 58.2804 213.302 58.3587C213.391 58.3646 213.479 58.3374 213.548 58.2825C213.618 58.2276 213.664 58.1489 213.677 58.0622C213.73 57.7115 213.569 57.4765 213.193 57.3571C212.448 57.1203 211.869 57.2891 211.458 57.8635C211.372 57.981 211.269 58.0006 211.148 57.9223L210.638 57.5978C210.534 57.5306 210.515 57.4457 210.581 57.3432C211.12 56.4852 211.968 56.129 213.125 56.2744C214.279 56.4181 214.851 57.0876 214.844 58.2832C214.836 59.2717 214.835 60.2518 214.841 61.2236C214.841 61.3187 214.793 61.3663 214.696 61.3663H213.856C213.769 61.3663 213.719 61.3234 213.706 61.2376L213.657 60.9466C213.638 60.831 213.59 60.817 213.512 60.9046ZM211.905 59.31C211.811 59.3454 211.73 59.4078 211.672 59.4892C211.615 59.5705 211.584 59.667 211.583 59.766C211.577 60.2864 211.856 60.5372 212.42 60.5186C213.205 60.4924 213.632 60.0849 213.7 59.296C213.708 59.2083 213.667 59.1589 213.578 59.1477C212.965 59.0675 212.407 59.1216 211.905 59.31Z" fill="#9285D7"/>
<path d="M143.827 56.3303H143.23C143.176 56.3303 143.133 56.3729 143.133 56.4255V61.2711C143.133 61.3236 143.176 61.3662 143.23 61.3662H143.827C143.881 61.3662 143.924 61.3236 143.924 61.2711V56.4255C143.924 56.3729 143.881 56.3303 143.827 56.3303Z" fill="#9285D7"/>
<path d="M152.096 56.3303H151.47C151.424 56.3303 151.387 56.3666 151.387 56.4114V61.2851C151.387 61.3299 151.424 61.3662 151.47 61.3662H152.096C152.141 61.3662 152.178 61.3299 152.178 61.2851V56.4114C152.178 56.3666 152.141 56.3303 152.096 56.3303Z" fill="#9285D7"/>
<path d="M173.951 60.7033C172.855 62.0546 170.704 61.7132 170.4 59.8807C170.311 59.3473 170.298 58.1937 170.363 56.42C170.365 56.3603 170.397 56.3295 170.459 56.3276H171.02C171.036 56.3276 171.051 56.3308 171.066 56.3369C171.081 56.343 171.094 56.3519 171.105 56.3632C171.115 56.3744 171.124 56.3878 171.129 56.4023C171.135 56.4169 171.137 56.4324 171.137 56.4479C171.093 57.567 171.089 58.6087 171.125 59.573C171.179 61.1173 173.407 61.2096 173.911 59.9451C174.044 59.6112 174.102 59.2121 174.087 58.7477C174.061 57.968 174.05 57.1977 174.056 56.4368C174.056 56.3659 174.092 56.3304 174.164 56.3304L174.693 56.3276C174.771 56.3276 174.81 56.3668 174.81 56.4451L174.807 61.1509C174.807 61.2964 174.732 61.3691 174.582 61.3691H174.272C174.24 61.3692 174.209 61.3621 174.18 61.3483C174.151 61.3346 174.126 61.3145 174.106 61.2897C174.086 61.2649 174.072 61.2359 174.066 61.2051C174.059 61.1742 174.06 61.1423 174.067 61.1117C174.096 60.9942 174.107 60.8749 174.102 60.7536C174.096 60.6025 174.046 60.5858 173.951 60.7033Z" fill="#9285D7"/>
<path d="M219.402 56.3247L220.449 56.3387C220.466 56.339 220.482 56.3434 220.497 56.3515C220.511 56.3596 220.523 56.3711 220.532 56.385C220.541 56.3989 220.546 56.4148 220.547 56.4311C220.548 56.4475 220.544 56.4638 220.537 56.4786L217.12 63.7694C217.112 63.7873 217.099 63.8024 217.082 63.8129C217.066 63.8234 217.046 63.8287 217.026 63.8282L215.988 63.8114C215.971 63.8116 215.954 63.8075 215.939 63.7996C215.924 63.7917 215.912 63.7802 215.903 63.7663C215.894 63.7523 215.888 63.7362 215.887 63.7197C215.886 63.7031 215.889 63.6865 215.897 63.6715L217.24 60.8094C217.245 60.7961 217.248 60.7817 217.248 60.7672C217.247 60.7527 217.244 60.7384 217.237 60.7255L215.02 56.4786C215.012 56.4637 215.009 56.4471 215.009 56.4303C215.01 56.4136 215.015 56.3973 215.024 56.383C215.033 56.3687 215.045 56.3568 215.06 56.3486C215.075 56.3403 215.091 56.336 215.108 56.3359L216.258 56.3275C216.277 56.3273 216.296 56.3325 216.312 56.3424C216.328 56.3523 216.341 56.3666 216.349 56.3835L217.783 59.3994C217.791 59.4166 217.804 59.4312 217.82 59.4413C217.837 59.4514 217.856 59.4566 217.875 59.4563C217.894 59.456 217.913 59.4502 217.929 59.4396C217.945 59.429 217.958 59.4141 217.965 59.3966L219.311 56.3835C219.319 56.366 219.331 56.3512 219.348 56.3408C219.364 56.3303 219.383 56.3247 219.402 56.3247Z" fill="#9285D7"/>
<path d="M241.203 59.1617L239.043 63.7612C239.023 63.8041 238.987 63.8255 238.938 63.8255L237.809 63.8171C237.761 63.8171 237.747 63.7966 237.766 63.7556L239.109 60.8935C239.128 60.8526 239.138 60.8079 239.137 60.7628C239.136 60.7176 239.124 60.6733 239.103 60.6333L237.239 57.0858L236.963 56.5067C236.908 56.3911 236.946 56.3332 237.077 56.3332L238.042 56.3304C238.163 56.3304 238.25 56.3845 238.301 56.4927L239.698 59.4191C239.705 59.4352 239.717 59.4488 239.732 59.4583C239.748 59.4679 239.765 59.473 239.783 59.473C239.801 59.473 239.819 59.4679 239.834 59.4583C239.849 59.4488 239.861 59.4352 239.869 59.4191L241.226 56.378C241.241 56.3444 241.267 56.3276 241.305 56.3276L242.444 56.336C242.493 56.3379 242.507 56.3603 242.486 56.4032L241.203 59.1617Z" fill="#9285D7"/>
<path d="M256.872 57.2872L253.831 63.7639C253.812 63.8049 253.779 63.8254 253.734 63.8254L252.607 63.8198C252.561 63.8198 252.548 63.7984 252.567 63.7555L253.896 60.9018C253.932 60.8253 253.93 60.7489 253.89 60.6724L252.863 58.714L251.697 56.4115C251.67 56.3592 251.686 56.3331 251.745 56.3331L252.966 56.3303C253.003 56.3303 253.031 56.3481 253.048 56.3835L254.482 59.4022C254.49 59.4201 254.504 59.4352 254.521 59.4457C254.537 59.4562 254.557 59.4616 254.577 59.4613C254.597 59.461 254.616 59.455 254.633 59.444C254.649 59.433 254.662 59.4175 254.67 59.3994L256.021 56.3807C256.037 56.3453 256.063 56.3285 256.101 56.3303L257.236 56.3359C257.286 56.3359 257.3 56.3583 257.279 56.4031L256.872 57.2872Z" fill="#9285D7"/>
<path d="M201.357 61.3607C200.816 61.2851 200.461 60.9438 200.768 60.3982C200.811 60.3216 200.869 60.2546 200.94 60.2013C201.011 60.148 201.092 60.1097 201.178 60.0887C201.265 60.0676 201.355 60.0644 201.443 60.0792C201.531 60.0939 201.615 60.1264 201.69 60.1744C202.629 60.7843 201.923 62.1356 201.272 62.6672C201.156 62.7605 201.045 62.7549 200.939 62.6504L200.788 62.5021C200.704 62.4182 200.713 62.3455 200.813 62.2839C201.079 62.1198 201.295 61.8773 201.462 61.5565C201.521 61.4427 201.486 61.3774 201.357 61.3607Z" fill="#9285D7"/>
</svg>
